<svg viewBox="0 0 919.5 1066.84" xmlns="http://www.w3.org/2000/svg">
    <path
        d="m385.44 274.38c-1.32-34-2.57-68.54 5.91-101.48 9.16-35.59 29.13-67.24 47.53-99 1.18-2 2.38-4.18 2.42-6.52.05-3.9-3.06-7-6-9.57a149.34 149.34 0 0 0 -29.88-19.65 130.49 130.49 0 0 1 20.35-13.44c6-14.79 26.23-21.61 39.92-13.43 7.21-13.92 30.15-15.29 38.97-2.29 4-.95 8.29-1.89 12.34-.9s7.77 4.58 7.44 8.73c-.2 2.5-1.77 4.64-3.21 6.68a114.1 114.1 0 0 0 -17.45 38.49c12.54-.42 24.61 4.4 36.1 9.41 72.75 31.72 143.06 77.15 183.61 145.37 30.33 51 41.8 111.12 46.23 170.32-100.31 4.49-183.42 87.11-283.47 95.69-23 2-47.7-.64-66-14.71-4.65-3.58-8.86-7.94-11.31-13.28-6.08-13.28-.44-27.95.62-41.62 1.17-15.11-5.77-25.84-10.55-39.68-10.94-31.78-12.29-65.86-13.57-99.12z"
        fill="#b2c1db" opacity=".59" />
    <path
        d="m717.07 314.6c5.6-48.1-25.22-96-73.12-116.26a61 61 0 0 0 -17.95-4.34 286.64 286.64 0 0 0 -9.55-30.41c-10.61-27.36-48-64.19-101.31-62.2-58.38 2.19-113.48 63.88-105 144.68 5.78 56.41 105.02 166.25 169.96 173.93 64.13 7.59 129.8-43.86 136.97-105.4zm-264.07-76.85c-1.36-50.86 36.3-88.87 74.24-91.14 27.18-1.63 41.88 10.5 48.18 25.1 4 9.24 4.37 20.4 5.5 26.37a117.49 117.49 0 0 0 -29.51 13.3c-17.76 10.89-29 31.42-33 55.87a92.49 92.49 0 0 1 -30.59-7.73 177.6 177.6 0 0 1 -34.82-21.77zm52.56 100.15c-18.2-17.07-31-34.21-39.45-50.85 6 3.34 11.34 6.16 14.67 7.63a155.34 155.34 0 0 0 37 11.12 155.89 155.89 0 0 0 7.52 32.38c1.61 4.63 5 14.45 9.13 23.33-9.43-5.51-18.87-14.24-28.87-23.61zm77.44 37.31c-7.38-10.54-16.19-25.07-22.05-41.17a90.54 90.54 0 0 1 -5.14-27.2c22.62-2.8 42-12.12 53.49-27.82a88 88 0 0 0 16.52-45.15 111.64 111.64 0 0 1 12.85 6.72c43.33 26.13 45 74.83 21 101.48-11.67 13.05-39.67 34.76-76.67 33.14z"
        fill="#f7a037" />
    <path
        d="m515.09 101.41c-53.52 2-104.28 54-105.86 124.94 9.24-1.14 20.58-12.65 23.49-19.06 6.78-14.92 8.56-27.58 22.68-38.73 23.35-18.45 41.35-49.76 75.62-43.18 15.75 3 27.2 6.94 38.4 18.6 4.53 4.71 9.27 9 12.11 14.59 3 6 3.69 13.18 7.71 18.82 7.31 10.26 22.54 8.07 31.36-.63l.3-.32c-1.33-4.17-2.85-8.56-4.5-12.83-10.61-27.36-48.05-64.19-101.31-62.2z"
        fill="#f5892f" />
    <path
        d="m717.07 314.6c5.6-48.1-25.22-96-73.12-116.26a61 61 0 0 0 -17.42-4.26c.32 9.56 13.88 26.66 18.35 29.55 6.75 4.37 13.25 5.91 18.56 12.49 4.73 5.88 7.56 12.88 12.48 18.67 14.08 16.66 25.8 41.9 17.11 64.43-5.75 14.91-20.82 24.56-31.94 35-9.76 9.15-12.6 24.16-27.34 25.26-12.14.91-22-1.36-33.23 5.58-9.27 5.7-15.32 17.37-4.11 25.89 5.2 3.95 16.81 3.52 23.05 4.77 1.51.3 3 .54 4.45.73 47.46-13.1 87.64-54.45 93.16-101.85z"
        fill="#f5892f" />
    <path
        d="m630.61 196.59c-8.45-1.55-13.51-1.7-22.05 1.34-9.13 3.24-18.29 2.88-27.84 4.54-18.46 3.22-34.09 14.78-44.17 30.44-4.38 6.8-11.64 17-11.29 25.4.29 7 7.64 12.8 14.85 14.69 8.4 2.22 17.61-3.11 21.73-9.41 7.3-11.16 12.4-22.09 22.1-31.62 8.64-8.5 16.73-11.31 28.68-8.62 9 2 14.78 4.45 23.72 2.71 8.54-1.66 18 5.77 25.54 1 10.29-6.56-3.51-17.28-9.17-21.08z"
        fill="#f5892f" />
    <path
        d="m598.58 275.47a64.12 64.12 0 0 0 14.37-22c3.3-8.22 3.56-13.73 1-21.15l-.71-1.5c-9.82-5.31-17.35 2.81-24.25 9.46-8.76 8.43-14.5 18.11-22.56 26.78-6.39 6.87-11.78 13.23-21.09 15.74-8.64 2.32-18.66.72-27.21-1.38-9.05-2.22-17.06-8-25.39-12-9.15-4.41-17.75-9.91-26.83-14.29-2.78-1.34-10-4.65-12.89-2.21-2 1.68-1.18 9.74-.51 12.17 2.67 9.7 19 12.26 27.71 14.4 10.6 2.62 20 8.27 30.87 10.18 12.15 2.14 25.09 5.53 37.39 7 8 1 20.28-2.52 28-5.54 8.37-3.31 15.6-9.28 22.1-15.66z"
        fill="#f5892f" />
    <path
        d="m581.9 385.48c3.11-4 2.21-5.14.55-9.25-6-14.93-15.5-27.59-21.54-42.72-2.7-6.76-2-16.39-5.38-22.51-4.23-7.74-17-9.21-23.7-4.91a32.09 32.09 0 0 0 -3.41 3.28l-.38.36c-5 9.33 4.59 19.78 9.11 27.65 2.87 5 6 9.57 6.56 15.38.53 5.61.22 10 2.39 15.33 3.74 9.17 11.12 22.73 22.39 23.93 5.21.55 10.21-2.46 13.41-6.54z"
        fill="#f5892f" />
    <path
        d="m518.23 373.82c-4.65-9.93-15.27-16.57-23.59-23.07-10.41-8.14-19.78-14.92-28.28-25.42-14.08-17.41-22.68-37.56-29.9-58.59-4.08-11.9-4.27-22.81-4.78-35.07-.42-10-6.17-18.69-1.85-27.92l-1.06-2.62c.63-2.47-1.24-4.3-3.91-4.12-2.85.2-6.32 5.23-7.87 7.24a61.3 61.3 0 0 0 -8.92 15.48c-2.72 7.42-2.41 16.7-1.54 24.43 2 17.62 9.47 33.21 17.87 47.91 4.7 8.24 7.2 17.43 13.21 25.14 6.7 8.59 15.19 15.08 23 22.4 7.47 7 15.26 13.6 22.34 21 4.47 4.66 8.11 10 13.11 14.23 3.87 3.27 8 8.22 12.4 10.63 2.48 1.36 8.21 3.46 10.95 1.71 4.39-2.87.51-9.74-1.18-13.36z"
        fill="#f5892f" />
    <path
        d="m538.83 222.13c-12.43 10.48-20.83 26.34-24.83 44.87 1.51.2 3 .36 4.54.49 2.92-18.01 9.79-33.89 20.29-45.36z"
        fill="#db772c" />
    <path
        d="m599.55 289c-11.41 9.62-26.74 15.52-43.95 17.66.06 1.52.16 3 .29 4.55 17.74-3.21 33.11-10.59 43.66-22.21z"
        fill="#db772c" />
    <path
        d="m569.88 177c3.3 7.67 4.13 16.64 5 22.89q3.2-1.12 6.22-2c-1.13-6-1.52-17.13-5.5-26.37-6.3-14.6-21-26.73-48.18-25.1-17.75 1.06-35.45 9.95-49.11 24.32 12.71-11.15 28.05-17.94 43.43-18.86 27.13-1.62 41.84 10.51 48.14 25.12z"
        fill="#db772c" />
    <path
        d="m580.29 419.82c-64.94-7.68-164.18-117.52-170.06-173.92-4.82-46.23 11.16-86.21 36.66-112.36-28.76 25.85-47.51 68.24-42.34 117.83 5.88 56.39 105.12 166.23 170.06 173.91 38.28 4.53 77.1-12 103.71-39.11-26.32 23.83-62.39 37.83-98.03 33.65z"
        fill="#db772c" />
    <path
        d="m525.51 338a155.65 155.65 0 0 1 -7.51-32.38 156.42 156.42 0 0 1 -37-11.12c-3.33-1.48-9.08-4.64-15.09-8 2 4 4.2 8.32 6.76 12.37.77.38 2 .79 2.65 1.07a156.12 156.12 0 0 0 37 11.12 155.65 155.65 0 0 0 7.52 32.37c.77 2.22 2.17 5.82 3.73 9.41 3.9 2.82 9.79 10.37 13.6 12.6-4.17-8.86-10.05-22.82-11.66-27.44z"
        fill="#db772c" />
    <path
        d="m659.86 341.89c23.94-26.65 22.31-75.36-21-101.48a110.09 110.09 0 0 0 -12.86-6.72c-.21 2.53-.54 5.1-1 7.68 2.6 1.31 5.32 2.8 8.13 4.5 43.32 26.13 45 74.83 21 101.48-.5.56-1 1.14-1.6 1.73a90.7 90.7 0 0 0 7.33-7.19z"
        fill="#db772c" />
    <path
        d="m626.53 194.08s-15.7-2.53-25.38-1.61-24.46 6.39-24.46 6.39l-1.79-3.38s7.13-5.12 18.9-6.87c16.58-2.45 31.7 3.42 31.7 3.42z"
        fill="#db772c" />
    <path
        d="m601 230.18a41.33 41.33 0 0 1 27.76 5.14l-3.76 6.05a44.33 44.33 0 0 0 -11.6-3c-18.83-1.92-25.7 3.45-30.07 8s-10.3 13.54-11.06 14.27a12.91 12.91 0 0 1 -2.81 1.62s6-10.48 10.33-15.4 7.37-14.41 21.21-16.68z"
        fill="#db772c" />
    <path
        d="m531.16 302.74c11.73.42 24.44 3.95 24.44 3.95l2 4.19s-15.74-2.73-16.85-2.75c-10.36-.21-25.68 2.09-25.68 2.09l-1.39-4.86s6.15-3.03 17.48-2.62z"
        fill="#db772c" />
    <path
        d="m517.05 264.56c5 1.77 16.38 7.59 25.49 7.56 16.72 0 27.53-11.15 27.53-11.15l2.81-1.25s-13.13 15.53-27.24 15.28c-19.35-.38-30.49-8.22-30.49-8.22z"
        fill="#db772c" />
    <path
        d="m477.58 297-9.67-8.92c-2.45-3.37-20.09-8-28.74-21.57-6.94-10.87-5-16.12-4.05-20.51 1.35-6 1.63-7.12-1.4-4.49-3.92 3.4-4.53 8.82-3.91 14 1.21 10.06 10.1 20.82 16.33 27.3 4.87 5.06 11.61 8.56 17.5 12.24a42 42 0 0 0 8.19 3.8c1.4.57 7.78 1.96 5.75-1.85z"
        fill="#db772c" />
    <path
        d="m586 379.76c-1.88-3.19-1.64-.17-1.77 2.05s-1.58 4.26-2.9 6.08c-1.08 1.51-4.61 3.72-6.22 4.52-12.75 6.29-22-.3-28.77-10.6-3-4.52-9-16.53-12.19-22.54-2-3.77-2.32-.89-3.43-5.08l-1.05-3c-1.12-.33-6.32-6.92-6.41-.49a14.86 14.86 0 0 0 2.69 7.71c2.57 3.35 18 28.94 20.76 32.51 6.16 7.92 17.41 12.05 24.21 8.79 16.81-8.06 16.15-18.08 15.08-19.95z"
        fill="#db772c" />
    <g fill="#fff3ae">
        <path
            d="m560.79 119.9c-2.66-2.67-14.41-10.44-34.52-11a96.64 96.64 0 0 0 -19.24 1.6c-16 2.91-32.18 7.49-44.27 19.13-5.84 5.63-13.66 13.7-11.85 22.57 1.63 8 8.52 6.52 13.33 2.73 7.22-5.68 13.14-12.91 21.27-17.4 10-5.51 19.51-11.18 31-12 8.52-.59 17.31 3.12 25 6.61 5.88 2.69 12.92 6.22 19 2.63 6.49-3.85 5-10.13.28-14.87z"
            opacity=".2" />
        <path
            d="m615.57 206.21c-2.33-1.23-12.37-.55-12.39-.75l-1 .47c-6.44 2.56-13.55 2.93-20.33 4.48a66.34 66.34 0 0 0 -28.16 14.82c-3 2.62-14.83 16.82-5.54 19.15 5.29 1.33 14.51-10.66 17.88-13.9 12.42-11.93 26.4-16.89 43.22-17.71 3.5-.17 14.21-2.44 6.32-6.56z"
            opacity=".2" />
        <path
            d="m484.27 265.23c1.45-6-11.62-10.78-15.57-13.59-5.66-4-12.11-8.38-17-12.78h.5c-4.55-3.72-11 .77-12.8 5.38-2.44 6.31 2.06 13.28 7.68 16.08 2.83 1.42 6.48 1.92 9.52 2.95 3.62 1.21 6.7 3.32 10.2 4.81 4.93 2.12 15.64 4.69 17.47-2.85z"
            opacity=".2" />
        <path
            d="m576 378.32c3.74-5.38-2.41-12.2-5.12-16.48-6.9-10.86-15-21-20-33.08-1.23-2.94-3.57-11.74-7.33-11.4-5.41.49-2.29 11 .79 10.28 5.71 4.75 7.58 16.72 8.54 23.52 1.22 8.75.77 18.73 7.09 25.59 3.87 4.25 11.75 7.72 16.03 1.57z"
            opacity=".2" />
        <path
            d="m505.56 123a23.23 23.23 0 0 1 3 4.61 1.32 1.32 0 0 0 2.32-1.26 26.52 26.52 0 0 0 -3.46-5.17c-1.15-1.25-3.05.58-1.89 1.82z" />
        <path
            d="m519.71 121c1 1 1.57 2.34 2.54 3.39 1.15 1.25 3-.57 1.89-1.82-1-1-1.57-2.34-2.53-3.39-1.15-1.25-3 .57-1.9 1.82z" />
        <path
            d="m530.74 117.52a30.27 30.27 0 0 1 5.6.82c1.64.36 2.38-2.17.72-2.53a33.17 33.17 0 0 0 -6.26-.91 1.31 1.31 0 0 0 -.06 2.62z" />
        <path d="m529.54 131.23a1.32 1.32 0 0 0 1.9-1.82 1.32 1.32 0 0 0 -1.9 1.82z" />
        <path
            d="m531.12 131.48c1.43-.64 3-.75 4.48-1.4s.28-3-1.25-2.31-3 .75-4.49 1.4-.28 3 1.26 2.31z" />
        <path d="m545.65 124.49a1.32 1.32 0 0 0 1.9-1.82 1.32 1.32 0 0 0 -1.9 1.82z" />
        <path
            d="m545.65 124.49a14.41 14.41 0 0 1 2.69 3.49c.76 1.52 3.07.26 2.31-1.25a17 17 0 0 0 -3.1-4.06 1.32 1.32 0 0 0 -1.9 1.82z" />
        <path d="m567.63 140.54a1.31 1.31 0 0 0 1.89-1.82 1.31 1.31 0 0 0 -1.89 1.82z" />
        <path
            d="m567.3 139.93a11.62 11.62 0 0 0 2.48 4.36c1.15 1.25 3-.57 1.9-1.82a8.39 8.39 0 0 1 -1.83-3.15c-.52-1.6-3.08-1-2.55.61z" />
        <path d="m563 148.62a1.31 1.31 0 0 0 1.89-1.82 1.31 1.31 0 0 0 -1.89 1.82z" />
        <path
            d="m564 149.35c2 .46 3.78 1.18 5.85.86 1.68-.26 1.05-2.81-.61-2.55s-3.05-.5-4.52-.84c-1.64-.38-2.37 2.15-.72 2.53z" />
        <path
            d="m581.76 140.07 3.27 3.41a1.32 1.32 0 0 0 1.9-1.82q-1.65-1.69-3.28-3.41a1.31 1.31 0 0 0 -1.89 1.82z" />
        <path
            d="m595.5 160.19a9.92 9.92 0 0 0 2.13 4c1.15 1.24 3-.58 1.89-1.82a6.83 6.83 0 0 1 -1.46-2.78c-.5-1.61-3.06-1-2.56.62z" />
        <path
            d="m595.15 176.38a4.63 4.63 0 0 0 -1.54 4.57c.46 1.63 3 1 2.55-.61-.22-.79.12-1.38.81-2.07 1.21-1.19-.61-3.08-1.82-1.89z" />
        <path
            d="m458.28 147.8a8.24 8.24 0 0 0 3.5 4.6c1.47.84 2.82-1.42 1.34-2.26a5.48 5.48 0 0 1 -2.29-2.95c-.53-1.6-3.09-1-2.55.61z" />
        <path
            d="m473.27 151.27a12 12 0 0 0 3.28.85 1.32 1.32 0 0 0 .06-2.63 10.35 10.35 0 0 1 -2.63-.75 1.32 1.32 0 0 0 -1.62.9 1.34 1.34 0 0 0 .91 1.63z" />
        <path
            d="m475.61 138.92c1.73-1 3.52-1.88 5.26-2.86a1.32 1.32 0 0 0 -1.26-2.31c-1.73 1-3.52 1.88-5.25 2.86a1.31 1.31 0 0 0 1.25 2.31z" />
        <path d="m490.84 134.18a1.32 1.32 0 0 0 1.9-1.82 1.32 1.32 0 0 0 -1.9 1.82z" />
        <path
            d="m491.57 134.94 3.28 3.41a1.31 1.31 0 0 0 1.89-1.82l-3.28-3.41a1.31 1.31 0 0 0 -1.89 1.82z" />
        <path
            d="m491 147.19 1.45 1.51a1.32 1.32 0 1 0 1.9-1.82l-1.46-1.51a1.31 1.31 0 1 0 -1.89 1.82z" />
        <path
            d="m431.94 186a25.41 25.41 0 0 1 3.07-1.67 1.36 1.36 0 0 0 1-1.59 1.33 1.33 0 0 0 -1.59-1 31.66 31.66 0 0 0 -3.7 1.92c-1.52.74-.26 3 1.25 2.31z" />
        <path
            d="m438.7 173.12a12.69 12.69 0 0 1 3 2.44 1.31 1.31 0 0 0 1.89-1.82 15 15 0 0 0 -3.56-2.88c-1.48-.82-2.83 1.44-1.35 2.26z" />
        <path
            d="m449.6 190.58.18.19c.06.07.28.4.06.06.05.08.18.43.07.11a1.17 1.17 0 0 1 0 .2c0-.15 0-.15 0 0a1.32 1.32 0 1 0 2.63 0 3.45 3.45 0 0 0 -1.08-2.44 1.31 1.31 0 1 0 -1.89 1.82z" />
        <path
            d="m439.12 214.38a7.12 7.12 0 0 1 -1.93 2.34 1.31 1.31 0 0 0 1.82 1.89 9.81 9.81 0 0 0 2.64-3.52 1.31 1.31 0 0 0 -.91-1.62 1.34 1.34 0 0 0 -1.62.91z" />
        <path
            d="m425.18 222.79.18.19c.06.07.29.4.06.07.05.07.18.42.07.1a1.46 1.46 0 0 1 .05.2c0-.15 0-.15 0 0a1.31 1.31 0 1 0 2.62 0 3.45 3.45 0 0 0 -1.08-2.44 1.31 1.31 0 0 0 -1.89 1.82z" />
        <path
            d="m554.22 246.88 3.32 1.18a1.32 1.32 0 1 0 .72-2.53l-3.32-1.18a1.32 1.32 0 0 0 -1.62.9 1.34 1.34 0 0 0 .9 1.63z" />
        <path d="m553.7 224.6a1.31 1.31 0 0 0 1.89-1.82 1.31 1.31 0 0 0 -1.89 1.82z" />
        <path
            d="m553.73 224.38a11.72 11.72 0 0 0 2.49 4.36c1.15 1.25 3-.58 1.89-1.82a8.63 8.63 0 0 1 -1.82-3.16c-.53-1.6-3.08-1-2.56.62z" />
        <path
            d="m566.65 227.46a4.29 4.29 0 0 0 4.21 1.17 1.32 1.32 0 1 0 -.62-2.56 1.57 1.57 0 0 1 -1.7-.43c-1.2-1.19-3.1.62-1.89 1.82z" />
        <path d="m573.92 216.83a1.31 1.31 0 0 0 1.89-1.82 1.31 1.31 0 0 0 -1.89 1.82z" />
        <path
            d="m573.92 216.83a4.31 4.31 0 0 0 3.13 1.19 1.32 1.32 0 0 0 .05-2.63h-.42-.21c-.35 0 .25.06-.09 0l-.22-.06c.14.06.14.06 0 0l-.21-.12c.22.14-.12-.13-.14-.14a1.31 1.31 0 1 0 -1.89 1.82z" />
        <path
            d="m597.33 205.49a32.91 32.91 0 0 0 6.66 7.69c1.33 1 2.66-1.23 1.34-2.26a28.67 28.67 0 0 1 -5.68-6.68c-.95-1.38-3.27-.14-2.32 1.25z" />
        <path
            d="m625.3 218.56c1.73-.29 3.49-.34 5.22-.64s1-2.83-.62-2.55-3.48.34-5.21.64-1.05 2.83.61 2.55z" />
        <path
            d="m629.3 208.24a16.59 16.59 0 0 1 4.11 1.44c1.5.77 2.86-1.48 1.35-2.26a19.62 19.62 0 0 0 -4.74-1.71c-1.65-.37-2.38 2.15-.72 2.53z" />
        <path
            d="m654.27 232c.36 1.06 1.07 2 1.43 3a1.34 1.34 0 0 0 1.58 1 1.32 1.32 0 0 0 1-1.59c-.36-1.06-1.07-2-1.42-3a1.34 1.34 0 0 0 -1.59-1 1.32 1.32 0 0 0 -1 1.59z" />
        <path
            d="m664.36 227.54 2.55 2.65a1.31 1.31 0 0 0 1.89-1.82l-2.54-2.65a1.32 1.32 0 0 0 -1.9 1.82z" />
        <path
            d="m684.86 261.2c0 2.11.27 4.21.25 6.32a1.31 1.31 0 0 0 2.62.05c0-2.11-.27-4.21-.24-6.32a1.32 1.32 0 0 0 -2.63-.05z" />
        <path
            d="m672.14 255.16.24-.07s.42 0 .16 0h.35c.37 0-.24-.06.11 0l.3.08c.07 0 .36.15 0 0l.21.12c.23.14-.24-.22-.07-.05a1.34 1.34 0 0 0 1.86 0 1.32 1.32 0 0 0 0-1.85 4 4 0 0 0 -3.85-.79 1.31 1.31 0 1 0 .62 2.55z" />
        <path
            d="m679.49 247a12.25 12.25 0 0 1 3 2.45 1.32 1.32 0 0 0 1.9-1.82 14.85 14.85 0 0 0 -3.57-2.89c-1.48-.8-2.83 1.45-1.34 2.26z" />
        <path
            d="m702.8 295.33a51.77 51.77 0 0 0 2.23 6.3c.72 1.55 3 .28 2.31-1.25a47 47 0 0 1 -2-5.67c-.51-1.61-3.06-1-2.56.62z" />
        <path
            d="m689.54 306.81 3.28 3.41a1.31 1.31 0 0 0 1.89-1.82l-3.28-3.4a1.31 1.31 0 0 0 -1.89 1.82z" />
        <path
            d="m666.46 346.48 2.91 3a1.32 1.32 0 0 0 1.9-1.82l-2.92-3a1.31 1.31 0 0 0 -1.89 1.82z" />
        <path
            d="m689.71 337.13a14.74 14.74 0 0 0 -1.24 4.4c-.08 1.69 2.55 1.74 2.62.05a12.61 12.61 0 0 1 1.15-3.73c.58-1.59-2-2.3-2.53-.72z" />
        <path d="m668.72 374.79-7.82 1c-1.68.21-1 2.76.62 2.55l7.82-1c1.68-.2 1-2.75-.62-2.55z" />
        <path
            d="m660.35 366.08a21.71 21.71 0 0 0 -5.18 1.88c-1.54.73-.27 3 1.25 2.31a19.33 19.33 0 0 1 4.55-1.64c1.66-.32 1-2.87-.62-2.55z" />
        <path
            d="m632.81 375.35a8.72 8.72 0 0 1 -.65 3.79c-.75 1.51 1.5 2.87 2.26 1.35a11.42 11.42 0 0 0 1-5.09 1.31 1.31 0 0 0 -2.62 0z" />
        <path
            d="m622.51 390.79c-.39 1.1-.79 2.21-1.18 3.32a1.32 1.32 0 0 0 .91 1.62 1.34 1.34 0 0 0 1.62-.91c.39-1.1.78-2.21 1.18-3.32a1.32 1.32 0 0 0 -.91-1.62 1.34 1.34 0 0 0 -1.62.91z" />
        <path
            d="m533.73 324.87a27.33 27.33 0 0 1 5.2 2.57c1.44.9 2.78-1.36 1.35-2.26a30.9 30.9 0 0 0 -5.84-2.84c-1.59-.58-2.3 2-.71 2.53z" />
        <path
            d="m544.77 320.51a6.56 6.56 0 0 0 -.46 4 1.32 1.32 0 0 0 2.56-.62 4.43 4.43 0 0 1 .42-2.67 1.31 1.31 0 1 0 -2.52-.71z" />
        <path d="m545.06 340.91-.06 3a1.32 1.32 0 0 0 2.63.05l.06-3a1.32 1.32 0 0 0 -2.63 0z" />
        <path
            d="m558 366.25 3.64 3.78a1.31 1.31 0 0 0 1.89-1.82l-3.64-3.78a1.31 1.31 0 0 0 -1.89 1.82z" />
        <path
            d="m566.09 367.89c.71.8 1.08 1.84 1.8 2.64 1.14 1.26 3-.56 1.9-1.82-.71-.79-1.09-1.83-1.81-2.64-1.13-1.26-3 .57-1.89 1.82z" />
        <path
            d="m456 259.45 4.73 4.92a1.32 1.32 0 0 0 1.9-1.82l-4.73-4.92a1.32 1.32 0 0 0 -1.9 1.82z" />
        <path
            d="m470.1 273.07a16.41 16.41 0 0 0 6.23.5c1.68-.27 1.05-2.82-.61-2.56a12.9 12.9 0 0 1 -4.9-.47c-1.64-.36-2.37 2.17-.72 2.53z" />
        <path
            d="m486.42 271.29a14.89 14.89 0 0 0 2.74 3.68 1.32 1.32 0 0 0 1.9-1.82 12.41 12.41 0 0 1 -2.33-3.11c-.75-1.53-3.05-.27-2.31 1.25z" />
        <path d="m501.13 289.69a1.32 1.32 0 0 0 1.9-1.82 1.32 1.32 0 0 0 -1.9 1.82z" />
        <path
            d="m501.88 289.71a7.5 7.5 0 0 0 3.16 1.52 1.32 1.32 0 0 0 .72-2.53 5.21 5.21 0 0 1 -2-.81c-1.21-1.19-3.11.63-1.89 1.82z" />
        <path
            d="m544.85 285.08a16.79 16.79 0 0 1 1.28 4.17c.31 1.67 2.86 1 2.55-.62a19.3 19.3 0 0 0 -1.52-4.8c-.72-1.54-3-.28-2.31 1.25z" />
        <path d="m565.55 281.87-.06 3a1.32 1.32 0 0 0 2.63.05l.06-3a1.32 1.32 0 0 0 -2.63-.05z" />
        <path
            d="m586.67 259.41a16.54 16.54 0 0 0 4.78.88 1.32 1.32 0 0 0 0-2.63 13.72 13.72 0 0 1 -4.11-.78c-1.6-.55-2.32 2-.72 2.53z" />
        <path
            d="m606.74 257.25h.42.22c.35 0-.26-.06.09 0l.21.06c-.14-.06-.14-.06 0 0l.21.12c-.22-.14.13.13.14.14a1.32 1.32 0 0 0 1.9-1.82 4.35 4.35 0 0 0 -3.14-1.19 1.32 1.32 0 0 0 0 2.63z" />
        <path
            d="m591.71 274.21a9 9 0 0 1 -.38 3 1.31 1.31 0 0 0 .9 1.62 1.33 1.33 0 0 0 1.62-.91 11.93 11.93 0 0 0 .49-3.66 1.32 1.32 0 0 0 -2.63-.06z" />
        <path
            d="m600.6 240.62a5.74 5.74 0 0 0 -.08 3.64 1.33 1.33 0 0 0 1.59 1 1.31 1.31 0 0 0 1-1.58c-.07-.23-.13-.46-.18-.7 0-.05 0-.41 0-.09 0-.11 0-.21 0-.32a1.63 1.63 0 0 1 0-.31c0-.34 0 .27 0-.08a7.49 7.49 0 0 1 .23-.81 1.31 1.31 0 0 0 -.9-1.62 1.33 1.33 0 0 0 -1.62.91z" />
        <path
            d="m580.86 402.4a11.5 11.5 0 0 0 -4 2.86 1.31 1.31 0 0 0 1.81 1.9 9 9 0 0 1 2.8-2.21 1.34 1.34 0 0 0 1-1.58 1.32 1.32 0 0 0 -1.59-1z" />
        <path
            d="m604.54 410.11a23 23 0 0 1 4.11 3.59 1.31 1.31 0 0 0 1.89-1.82 25.89 25.89 0 0 0 -4.65-4c-1.43-.91-2.77 1.35-1.35 2.26z" />
    </g>
    <path
        d="m723.88 216.75c-40.54-68.22-110.88-113.65-183.6-145.37-11.49-5-23.56-9.83-36.1-9.41a113.91 113.91 0 0 1 17.45-38.51c1.44-2 3-4.18 3.21-6.68.33-4.15-3.4-7.74-7.44-8.73s-8.29 0-12.34.9c-8.82-12.93-31.76-11.58-39 2.3-9.06-5.42-21.06-4.25-29.81 1.46a19.17 19.17 0 0 1 5.1 5.06c4.06-.95 8.3-1.9 12.34-.91s7.78 4.59 7.44 8.74c-.2 2.49-1.76 4.63-3.2 6.68a113.7 113.7 0 0 0 -16.29 34.13 7 7 0 0 1 .06.93 9.31 9.31 0 0 1 -.81 3.44c12.39-.3 24.32 4.46 35.69 9.42 72.74 31.72 143.05 77.14 183.6 145.36 30.33 51 41.8 111.13 46.24 170.32-85.22 3.82-158 64-239.35 87.3a146.83 146.83 0 0 0 19.58-.42c100.05-8.58 183.16-91.2 283.47-95.69-4.43-59.2-15.9-119.29-46.24-170.32z"
        fill="#b2c1db" opacity=".59" />
    <path
        d="m0 86.72a148.51 148.51 0 0 0 22.56-17.22l141.56 134.6c9.17 8.72 18.77 18.16 21.69 30.48s-4.31 27.86-16.93 28.74c-10.8.76-19.23-8.74-25.81-17.34-20.52-26.87-36.52-55.48-59.61-80.06-7.46-7.99-76.86-83.3-83.46-79.2z"
        fill="#568e4c" />
    <path
        d="m99.6 73.66c-2.17-7.66-15.36-25.84-9.01-30.66 7.21-5.52 17.5-7 25-4.12l79.05 202.84c5.08 13 7.08 43.44-14.56 32.05-15.76-8.3-25-38.46-31.53-53.26-20.87-47.34-34.96-97.22-48.95-146.85z"
        fill="#73ba65" />
    <path
        d="m155.58 89 15.85-4.48a2164 2164 0 0 1 55.87 223.4c4.12 21.23 7.91 43.24 3 64.29-.69 2.91-1.69 6-4.15 7.7-17.54 12-50.67-72.11-54.37-87.58-9.2-38.48-12.63-80.55-15.24-119.9-.54-7.51-6.35-81.89-.96-83.43z"
        fill="#568e4c" />
    <path
        d="m34.39 142.52c2.07-6.55 10.33-9.39 17-7.82s12.13 6.3 17.26 10.89c16.21 14.49 32.44 29 47.49 44.68 33.67 35.14 61 75.79 88.06 116.22 12.61 18.81 33.32 46.92 28.33 71.29-5.44 26.6-21.69 6.29-29.36-6.06-31.74-51.07-64.78-100.83-101.68-148.39q-16.59-21.39-33.9-42.19c-3.8-4.57-34.48-34.58-33.2-38.62z"
        fill="#73ba65" />
    <path
        d="m80.7 221.19 32.21-13.09a754.31 754.31 0 0 1 108.23 154.63 478.8 478.8 0 0 1 -26.36-195.5l35.37-1.73c-2.35 34.05 4.84 68 12 101.33 14.42 67.37 29.1 135.47 58.85 197.61 7.69 16.07 16.48 32.06 19 49.69 4.79 33.22-29.47 72.17-60.24 41.08-9.39-9.49-10.37-25.84-14.59-37.88-7.21-20.52-17.26-40.39-26.55-60a1569.74 1569.74 0 0 0 -137.92-236.14z"
        fill="#568e4c" />
    <path
        d="m188.65 276.35a438.88 438.88 0 0 1 9.43-102.88c-3.3 52.15-6.36 106.11 11.84 155.1-6.12-7.57-12.78-16.18-17.17-24.91-4.08-8.1-3.86-18.43-4.1-27.31z"
        fill="#73ba65" />
    <path
        d="m386.53 619.88a72.29 72.29 0 0 1 12-7.59c9.77-5.1 20.13-9 30.45-12.85l59.6-22.33c6.37-2.38 12.83-4.79 19.6-5.38 1.22-.11 5 .46 5.46 1.6 1.36 3.48.38 1.69.15 3.46a11.36 11.36 0 0 1 -2.17 4.83c-9.54 14-25.45 21.93-40.51 29.66-13.26 6.81-26.51 13.94-40.88 17.89s-29.67 4.08-43.75-1.49c-1.83-.72-2.06-1.33-2.78-3.18-.47-1.21 1.3-3.4 2.83-4.62z"
        fill="#bcbcbb" />
    <path
        d="m503.39 406c-19-22.78-42.3-16.35-50.07-34.89-11.15-26.62 8.73-31.09 5.35-73.88-2.71-34.41-65-134.49-76.51-135.38-20.45-1.56-94.48 26.46-94.48 26.46s-73.5 29.4-87.51 44.38c-7.91 8.46 13.88 124.29 35.15 151.48 26.43 33.83 44.11 23.71 53.88 50.83 6.81 18.91-14.72 29.94-13.3 59.56.5 10.5 27.71 77.33 43.23 92.72s54.34 20.71 59.93 24.88 10.94 20.59 10.94 20.59l64.85-14.92 57.86-32.83s-7.13-15.69-5.83-22.55 26.31-37 27.34-58.85-24.1-89.48-30.83-97.6z"
        fill="#e03822" />
    <path
        d="m504.61 405.56c-19-22.78-42.3-16.35-50.06-34.89-11.16-26.62 8.72-31.09 5.35-73.88-2.72-34.41-65-134.49-76.51-135.38-5.34-.4-14.34 1.21-24.72 3.81 15.75 10.39 71.69 101.83 74.25 134.41 3.38 42.79-11.55 45.26-.39 71.87 7.76 18.54 26.13 14.12 45.11 36.9 6.73 8.08 31.86 75.72 30.83 97.55s-26 52-27.34 58.85 5.87 22.55 5.87 22.55l-57.9 32.85-39 9c.7 1.88 1.11 3.11 1.11 3.11l64.84-14.91 57.87-32.85s-7.12-15.73-5.82-22.55 26.31-37 27.34-58.85-24.1-89.51-30.83-97.59z"
        fill="#b7281d" />
    <path
        d="m484.54 594.87c-18.08 8.47-45 19.12-64.11 25-36.43 11.07-36.73 4.63-36.73 4.63s14 38.41 20.72 43.59 26.79 2.78 39.15-.23 45.26-15.82 56.4-22 27.52-17.92 29-26.3-15.33-46.28-15.33-46.28 3.15 6.46-29.1 21.59z"
        fill="#e6d8d4" />
    <path
        d="m422.87 381.35c-18.05-42.06 5.58-84.05-9.36-100.3-12-13-50 1.1-50 1.1s-4.3-16.89-22.61-20.21a48.28 48.28 0 0 0 -47.77 19.19c-11 15.12-2.5 30.33-2.5 30.33s-38.2 16.94-37.92 34.7c.34 22.13 47.23 35.34 63 78.31 15.59 42.4 10.71 86.14 10.71 86.14s26.59 6 50 3.23c17.92-2.1 51.09-15.75 65.49-26.69 18.84-14.3 32.25-37.64 32.25-37.64s-33.48-26.66-51.29-68.16z"
        fill="#e6d8d4" />
    <path
        d="m363.05 507.41a129.36 129.36 0 0 1 -26.68-2.67 2.13 2.13 0 0 1 -1.64-2.17c0-.43 1.81-43.48-12-80.64-7.59-20.48-24.71-34.68-38.46-46.09-12.45-10.32-22.28-18.47-22.86-28.28-.91-15.1 28.39-29.6 37-33.53-1.82-4.56-5.06-15.83 1.77-26.71s17.86-17.08 30.29-17.08a38.05 38.05 0 0 1 9.19 1.15c12.36 3.09 17.74 13.45 19.55 18 5.68-2.07 21.79-7.48 34.58-7.48 7.25 0 12.42 1.78 15.37 5.29 6.3 7.52 5.13 20.59 3.66 37.15-1.61 18.05-3.61 40.52 4.88 60.54 15.44 36.45 44.5 63.66 44.8 63.93a2.13 2.13 0 0 1 .37 2.66c-.49.81-12.24 20.05-30.11 33-12 8.7-39.86 19.94-54.17 21.88a116.69 116.69 0 0 1 -15.54 1.05zm-24-6.47a132.76 132.76 0 0 0 24 2.21 111.62 111.62 0 0 0 15-1c13.53-1.83 40.87-12.88 52.24-21.11 14.43-10.45 25-25.64 28.06-30.33-5.89-5.79-30.61-31.28-44.54-64.15-8.9-21-6.85-44-5.2-62.58 1.33-15 2.48-27.87-2.68-34-2.1-2.51-6.17-3.78-12.11-3.78-14.66 0-34.89 7.89-35.09 8a2.12 2.12 0 0 1 -2.84-1.42c0-.13-4-13.92-17.23-17.23a33.53 33.53 0 0 0 -8.16-1c-10.93 0-20.66 5.5-26.68 15.09-7.36 11.71-.75 24.38-.68 24.51a2.11 2.11 0 0 1 .13 1.7 2.14 2.14 0 0 1 -1.17 1.26c-10.37 4.47-37.12 18.62-36.43 30.25.48 8 10.14 16 21.33 25.26 14.15 11.73 31.76 26.33 39.74 47.88 12.46 33.55 12.47 71.74 12.26 80.44z"
        fill="#64995f" />
    <path d="m302.6 341.84 2.59 4.18-3.19 1.98 10.34 16.74-5.44 3.36-10.34-16.74-3.22 2-2.59-4.18z"
        fill="#b7281d" />
    <path
        d="m324.5 346.23q1.77 3.25 2.36 4.7a5.89 5.89 0 0 1 .38 3 5.81 5.81 0 0 1 -1.25 2.9 9.22 9.22 0 0 1 -2.87 2.35 9.39 9.39 0 0 1 -3.43 1.12 5.88 5.88 0 0 1 -5.49-2.42 52.38 52.38 0 0 1 -2.7-4.58l-2-3.7q-1.77-3.25-2.35-4.7a5.9 5.9 0 0 1 -.39-3 6 6 0 0 1 1.24-2.9 10 10 0 0 1 6.31-3.46 5.76 5.76 0 0 1 3.14.49 5.86 5.86 0 0 1 2.35 1.97 52.38 52.38 0 0 1 2.7 4.58zm-9.5-4.05a8 8 0 0 0 -1.22-1.84.76.76 0 0 0 -.92 0 .86.86 0 0 0 -.48.7 5.37 5.37 0 0 0 .85 2.14l5.49 10.09a11.29 11.29 0 0 0 1.41 2.24.76.76 0 0 0 1 0 .77.77 0 0 0 .45-.9 11.87 11.87 0 0 0 -1.15-2.51z"
        fill="#b7281d" />
    <path
        d="m339.26 323.76 9.86 22.54-5.12 2.24-6.66-15.22 4.66 16.11-3.69 1.57-8.65-13.93 6.5 14.87-5.16 2.26-9.85-22.54 7.58-3.31c.82 1.26 1.75 2.75 2.79 4.49l3.34 5.37-3.25-11.12z"
        fill="#b7281d" />
    <path
        d="m354 318.93 11 22.28-6.22 2-1.68-4.1-2.18.7 1 4.33-6.29 2-4.46-24.41zm1.67 16.07q-1.76-3.82-4.11-9.53 1.24 7 2 10.21z"
        fill="#b7281d" />
    <path d="m370.66 314.57 1.19 4.78-3.69.92 4.78 19.09-6.21 1.55-4.73-19.09-3.67.92-1.2-4.78z"
        fill="#b7281d" />
    <path
        d="m390.4 325.8c.39 2.44.61 4.17.67 5.21a5.9 5.9 0 0 1 -2.77 5.29 10.06 10.06 0 0 1 -7.1 1.19 5.95 5.95 0 0 1 -4.38-4.1q-.42-1.47-1-5.22l-.68-4.15c-.39-2.44-.61-4.18-.66-5.21a5.75 5.75 0 0 1 .62-3 5.82 5.82 0 0 1 2.14-2.33 9 9 0 0 1 3.49-1.26 9.25 9.25 0 0 1 3.61.07 5.91 5.91 0 0 1 4.38 4.09 51.06 51.06 0 0 1 1 5.22zm-7.61-6.95a8.09 8.09 0 0 0 -.54-2.14.76.76 0 0 0 -.85-.35.88.88 0 0 0 -.7.51 5.47 5.47 0 0 0 .11 2.3l1.84 11.33a11.45 11.45 0 0 0 .6 2.59.75.75 0 0 0 .88.36.78.78 0 0 0 .73-.7 12.22 12.22 0 0 0 -.26-2.75z"
        fill="#b7281d" />
    <path
        d="m333.11 368.34.32 6.14 4.54 5.84-3.24 1.26-3.28-4.67 2 5.17-3.13 1.22-4.69-12.05 3.14-1.22 1.82 4.68-.43-5.22z" />
    <path
        d="m333.82 368.07 5.22-2 .94 2.41-2.09.82.89 2.28 2-.76.89 2.29-2 .76 1 2.65 2.3-.89.94 2.41-5.43 2.11z" />
    <path d="m346.26 363.22.94 2.42-1.86.72 3.75 9.64-3.09 1.21-3.75-9.63-1.86.72-.93-2.41z" />
    <path
        d="m356.33 365.35-3.13 1.21-.82-2.09a3.79 3.79 0 0 0 -.54-1.1.47.47 0 0 0 -.53-.05c-.26.1-.39.25-.39.46a5.19 5.19 0 0 0 .36 1.23l2.18 5.6a4.23 4.23 0 0 0 .55 1.1.57.57 0 0 0 .93-.36 5.1 5.1 0 0 0 -.38-1.3l-.59-1.51 3.13-1.22.18.47a9.82 9.82 0 0 1 .77 2.75 2.86 2.86 0 0 1 -.64 1.83 4.18 4.18 0 0 1 -2 1.45 5 5 0 0 1 -2.47.39 2.61 2.61 0 0 1 -1.72-.92 9.78 9.78 0 0 1 -1.32-2.54l-1.37-3.52a16.42 16.42 0 0 1 -.67-2 2.91 2.91 0 0 1 0-1.46 3.25 3.25 0 0 1 .86-1.43 5.46 5.46 0 0 1 4.16-1.4 2.82 2.82 0 0 1 1.71.88 8.71 8.71 0 0 1 1.25 2.37z" />
    <path
        d="m362.62 356.86 4.68 12.05-3.13 1.21-2-5.06-.93.37 2 5.06-3.13 1.22-4.69-12 3.14-1.22 1.67 4.31.94-.36-1.68-4.31z" />
    <path
        d="m371 353.6 3.14 8a16.34 16.34 0 0 1 .66 2 2.86 2.86 0 0 1 -.09 1.34 3 3 0 0 1 -.81 1.34 4.93 4.93 0 0 1 -1.58 1 5.16 5.16 0 0 1 -2 .38 3 3 0 0 1 -1.6-.45 2.65 2.65 0 0 1 -.95-1c-.22-.4-.59-1.29-1.12-2.65l-2.77-7.12 3.13-1.22 3.52 9a4 4 0 0 0 .47 1 .37.37 0 0 0 .44.08.41.41 0 0 0 .29-.39 5.33 5.33 0 0 0 -.36-1.18l-3.46-8.87z" />
    <path
        d="m372.21 353.13 3.15-1.23a8.31 8.31 0 0 1 2.05-.57 2.44 2.44 0 0 1 1.26.18 2.17 2.17 0 0 1 .83.74 9.27 9.27 0 0 1 .77 1.62l.41 1.05a4.67 4.67 0 0 1 .41 1.77 1.72 1.72 0 0 1 -.56 1.15 4.27 4.27 0 0 1 -1.55.93l-.84.33 1.86 4.9-3.13 1.22zm3.93.84 1.19 3.06.24-.08a.75.75 0 0 0 .51-.44 1.67 1.67 0 0 0 -.17-.95l-.39-1c-.16-.41-.33-.66-.5-.73a1.33 1.33 0 0 0 -.88.17z" />
    <path
        d="m348.26 434c-1.9 7.85 1.72 16.43 8 21.55s14.66 7.07 22.74 6.45 15.79-3.47 23-7.1a42.4 42.4 0 0 0 7-4.24 26.89 26.89 0 0 0 10.29-20.19c.27-9-4.95-18.44-13.48-21.34-6.81-2.3-14.34-.27-20.89 2.72-7.18 3.28-13.13 6.08-20.77 7.8-7.31 1.68-14.08 6.86-15.89 14.35z"
        fill="#e03822" />
    <path
        d="m358.57 418.53a9 9 0 0 1 -4-6.17c.68 1.23 2.32 1.46 3.73 1.51 3.21.11 6.57 0 9.45 1.48a10.2 10.2 0 0 1 -2-10.51c.21.94 1.2 1.44 2.06 1.85 2.9 1.36 5.87 3.09 7.32 5.94a6.22 6.22 0 0 1 .88-5.2 49.65 49.65 0 0 1 3.37-4.29 8.17 8.17 0 0 0 2-4.95 12.53 12.53 0 0 1 4.68 9.74 5.51 5.51 0 0 1 2.05-4.37c1.23-1.12 2.73-1.92 4.05-2.93a6.76 6.76 0 0 0 2.8-4 12.79 12.79 0 0 1 0 5.3 13.26 13.26 0 0 1 -2.89 4.95 26.42 26.42 0 0 1 -4.63 4.46c-4.54 3.3-10.28 4.37-15.5 6.45-4.28 1.69-9.07 3.46-13.37.74z"
        fill="#63995f" />
    <path
        d="m354.52 430.2a15.7 15.7 0 0 0 -1.31 10.41 9.22 9.22 0 0 0 3.13 5.81c1.81 1.34 4.71 1.36 6.08-.43a5.43 5.43 0 0 0 .88-2.1c.87-3.79.08-8.23 2.59-11.2 1.4-1.65 3.53-2.46 5.17-3.86a2 2 0 0 0 -.19-3.74c-5.62-3.15-13.38-.38-16.35 5.11z"
        fill="#fff" opacity=".23" />
    <path
        d="m222 267.6c2.31 14.66 4.63 29.4 9.79 43.23 1.29 3.46 2.82 7 5.65 9.47a11.23 11.23 0 0 0 11.17 2.32 11.56 11.56 0 0 0 6.67-8c.84-3.34.42-6.74-.07-10-2.29-15.21-6.12-30.18-12.64-44-1.73-3.67-3.88-7.48-7.79-9.25-11.78-5.37-13.78 9.63-12.78 16.23z"
        fill="#fff" opacity=".23" />
    <path
        d="m219.08 233.82a8.21 8.21 0 0 0 -3.64 7.64 4.46 4.46 0 0 0 .85 2.1c1.47 1.85 4.56 1.8 7.13 1.25a17.66 17.66 0 0 0 7.32-3.19c2.07-1.67 3.52-4.13 3.35-6.53a5.06 5.06 0 0 0 -4.89-4.61c-2.48 0-4.73 1.6-7.13 2.39z"
        fill="#fff" opacity=".23" />
    <path
        d="m308.63 540.74a31.72 31.72 0 0 0 6.72 8.44c2.81 2.28 6.52 3.69 10.07 3a7.19 7.19 0 0 0 4.66-3c2.23-3.53.06-8.08-1.94-11.76a132.63 132.63 0 0 1 -14-40.16c-1.34-7.62-3.51-14.86-12.32-16.06-6.92-.93-11.41 4-11.76 10.78-.4 8.06 3.95 17.65 6.83 25a152 152 0 0 0 11.74 23.76z"
        fill="#fff" opacity=".23" />
    <path
        d="m401.14 634.16c-.81 2.28.13 4.77 1.09 7q3.78 8.65 8.39 16.9a11.32 11.32 0 0 0 2 2.89c2 1.95 5.12 2.26 7.94 2.25a58.45 58.45 0 0 0 7.36-.5 5.83 5.83 0 0 0 3-1c1.76-1.41 1.46-4.14.92-6.34a103.78 103.78 0 0 0 -7.57-20.85 16.18 16.18 0 0 0 -3.27-4.9c-4.44-4.13-17.74-1.46-19.86 4.55z"
        fill="#fff" opacity=".81" />
    <path
        d="m500.67 530.47s-2.52 11.61-26.05 28c-16.11 11.21-71.86 39.6-71.86 39.6l95.61-33.83 5.35-17.49z"
        fill="#b7281d" />
    <path
        d="m871.36 309.56c-3.73-7.48-8.56-15.27-12.84-22.43-5.76-9.64-9.76-20.57-16.16-29.76-7.62-11-19.13-16.52-27.72-25.82-1.66-1.8-4-4.71-4.55-6.68l-2.2-1.3c-.64-4.28-5.66-3.79-7.73-.66-1.74 2.63-.64 7.28-1.14 10.35-1.52 9.4.83 14.84 6.72 22.49 12.8 16.6 22 35.71 36.31 51 6.15 6.59 10.78 6.94 18.83 9.45 7 2.16 16.21 4.88 10.48-6.64z"
        fill="#d35a57" />
    <path
        d="m779.75 402.3c16-14.16 56-46.65 59.36-74.52 2.72-22.46 41.81-44.6 41.81-44.6s.52 2.38 6.51 3.16 23.54-17.25 26.18-22c2-3.53-16.38-25.22-25.89-36.09-8.1-12-24.41-35.23-28.31-34.23-5.25 1.35-27.15 13.74-27.92 19.73s1.39 7.1 1.39 7.1-31.35 32.15-53.77 29.15c-27.81-3.83-69.4 26.54-87.17 38.44s-183.66 132.31-186.55 141.13c-11.24 34.27 65.73 125.12 90.37 117.22 8.84-2.79 167.95-130.32 183.99-144.49z"
        fill="#a2e3ed" />
    <path
        d="m747 274.56s-214 150-217.45 160.67 10.15 35.31 23.87 50.78 32 42.7 40.83 41.3 218.75-167.08 218.75-167.08z"
        fill="#e5e5b7" />
    <path
        d="m790 311.35c-15.39-20.37-35.43-42-43-36.79s4.92 30.39 22 52.19 38.46 40.18 44 33.48-6.77-27.37-23-48.88z"
        fill="#fff" />
    <path
        d="m878.06 292.82c3.22 1.28 5.57 5 9.46 4.52 3.16-.38 7-4.23 9.5-6.33 5.79-4.93 10.77-11 16.12-16.39 14-14.22 1.55-24.07-6-36.52-8.07-13.32-15.31-25.65-26.76-36.27-9.73-9-16.21-21.74-30.5-15.43a31.25 31.25 0 0 0 -11.46 8.6 51.81 51.81 0 0 0 -9.47 7c-5 5-1.37 12.83-6.74 16.9-3.79 2.87-11.55 3.61-16 2-2 6.57.09 15.69 3 21.43 2.15 4.23 3.87 5.47 8.23 7.13 3.38 1.29 7 1.68 6.73 6-.16 3.26-3.53 4.93-3 8.58.48 3.17 4.57 7.13 6.62 9.53 2.35 2.77 5.47 5.82 9.08 6.93s6.28.07 8.45 4.14c2.31 4.36 1.3 4.85 5.94 7.53 4 2.34 5.22 3.73 6.29 8.31 2 8.4 9.24 10.62 15.41 16 2.29-7.6 1.48-16.48 5.1-23.66zm-46.66-86.93.22-.13c-.09.09-.17.14-.22.13z"
        fill="#ef6a60" />
    <path
        d="m888.75 218.12c-3.14-3.66-6.53-7-9.88-10.42-7.55-10.65-17.28-22.11-27.34-13-5.49 5-9.1 17.76 2.56 15 4.33-1 6.37-2.7 11.19-.85 3.74 1.44 7 4.33 9.74 7.2 3.72 3.93 8.06 10.69 13.32 12.64 8.98 3.31 3.46-7.02.41-10.57z"
        fill="#fff" opacity=".1" />
    <path
        d="m805 262.45c-2-3.52-5-4.21-8.82-4.53l2.91-.54c-8.05.67-18.22-.46-25.82 2.65s-9 14-1.82 18.66c6.38 4.12 17.06-1.26 23.56-3.09s14.49-5.26 9.99-13.15z"
        fill="#fff" opacity=".3" />
    <path
        d="m841.36 237.71c-3.23-1.73-12.28 2.09-15.92 2.78-2.36.44-4.83 1-7.19 1.56-3.18.75-4.94.93-2.77 3.94a9.58 9.58 0 0 0 12.42 3.27c2.78-1.26 5.29-3.06 8-4.55 1.61-.89 6.93-2.2 7.62-4.23.9-2.6-2.07-3.26-4.16-2.81z"
        fill="#fff" opacity=".1" />
    <path
        d="m834.94 278.6c6.83-7.61 9.84-19.74 18.44-25.74 3.84 3.75-4.63 15.08-6.4 18.56-2 3.93-7.46 11.59-12.68 6.87z"
        fill="#fff" opacity=".1" />
    <path
        d="m864 267.26c.11-2.91-1.48-4.3-4.17-1.9-1.62 1.44-2.39 5-3.32 7.07-1.92 4.19-6.36 10.29-6.84 14.84-.33 3.16 2.09 5.64 5.27 3.84 5.77-2.82 8.91-19.49 9.06-23.85z"
        fill="#fff" opacity=".1" />
    <path
        d="m842.56 243.53c9.67 12.57 21.33 22.71 29.08 36.89 2 3.6 4 8.32 6.62 12.38 3.15 1.33 5.48 4.91 9.32 4.45 3.16-.37 7-4.22 9.5-6.32a169.71 169.71 0 0 0 16.12-16.39 24.75 24.75 0 0 0 5.65-10.62l-.1-.07c-3-1.74-6.45 2-9 3.93-6.56 5.06-12.1 10.33-20.67 8.75-10.38-1.92-16.8-10.84-22.65-19.08-10.53-14.86-16.93-31.95-30.4-44.86-1.14-1.1-5.23-4.82-9.05-7.75-1.35 3.22-1 6.95-2.07 10 3.09 10.63 10.52 19.42 17.65 28.69z"
        fill="#d35a57" />
    <path
        d="m882.11 295.1c.17-1.85-1.83-4.71-2.83-6.13-4.51-6.47-9.61-12.48-14.12-18.94-3.55-5.09-6.56-10.5-10.39-15.43-7-9.08-13.87-18.56-20.37-28-2.42-3.5-4.74-7.64-8.2-10.1-1.43-1-3.21-2.32-5.15-1.49-2.18.94 0 4.2 0 4.2.19.49 4.51 4.77 6.49 7.29 5.18 6.59 10.44 13 15.57 19.68s10 13.32 14.46 20.32c3.47 5.5 8 10.33 11.71 15.7 3.05 4.41 4.78 10.81 8.46 14.59 1.83 1.9 4.06 1.6 4.37-1.69z"
        fill="#724c41" />
    <path
        d="m829 321.7a72.09 72.09 0 0 1 8.48-8c6.21-4.79 12.79-8.79 17.82-14.57 3-3.41 5.13-7.18 7.66-11.06 1.35-2.07 5.11-10.2 3.43-12.24l-5.17-7.09c-2.62 2.85-6.5 4.58-9.83 6.67a99.11 99.11 0 0 0 -18.6 14.59c-4.76 5-9.44 10.27-12.21 16.6-1.69 3.89-1 3.65 2.65 5.19 2.12-14.45 16.67-26.42 28.8-33.27a63.14 63.14 0 0 1 12-5c1.48 3.82-1.47 8.84-3.15 12.18a57.74 57.74 0 0 1 -10.14 13.66 111 111 0 0 1 -16.74 14.32 73.12 73.12 0 0 0 -8.12 6.26c-1.43 1.32-6 4.82-6.24 7 0 .24-.15.28-.25.47a10.33 10.33 0 0 0 3.8 3c.67-3.48 3.56-6.29 5.81-8.71z"
        fill="#724c41" />
    <path
        d="m752.74 369.94 8-19.72 6.26 18.54 6.57-13.55 4.7 13.6 10-12 6.59 12.52 4-13.15 7.82 12.59s5.95-13.53 5.95-12.27 4.44 13.88 4.44 13.88l6.51-12.63 5.46 13.34s-19.85 14.19-19.85 15.13-56.46-16.25-56.46-16.25z"
        fill="#e0bd9d" />
    <path d="m150.74 836.42 5.88 41.1 67.64 7.41 12.99-33.54z" fill="#e0bd9d" />
    <path
        d="m752.74 369.94c9.23-3.24 76.31 1.12 76.31 1.12l8.69 503.25 5.88 191.56h-105.45l-21.64-45.71-97.37-192.57 41.11-270.48z"
        fill="#e0bd9d" />
    <path
        d="m615.7 482c11.45-23.66-12.92-36.06-3.1-55.92 10.06-20.34 32-12.56 38-35.5 8.36-32-5-68.3-5-68.3l-36.9-18.85-36.93-18.83s-37.2 10.53-58.19 36.1c-15.05 18.33 4.13 31.51-6.42 51.6-10.29 19.62-34.65 7.18-47.07 30.34-13.09 24.36-55.52 94.66-50.73 105.69 3.43 7.92 14.49 17.19 28 25.43s70.88 37.48 85.51 43.6 28.68 9.64 37.13 7.75c11.71-2.61 43.66-78.26 55.7-103.11z"
        fill="#684f3e" />
    <path
        d="m616.87 482.56c11.45-23.65-12.92-36.06-3.1-55.91 10.06-20.34 32-12.56 38-35.51 8.37-32-5-68.29-5-68.29l-8.37-4.27c3.36 12.95 7.73 36.73 2 58.52-6 22.95-27.93 15.17-38 35.51-9.82 19.85 14.55 32.26 3.1 55.91-12 24.89-44 100.54-55.72 103.15-8.43 1.87-22.43-1.64-37.06-7.76s-72-35.34-85.52-43.59a129.53 129.53 0 0 1 -16.95-12.09 4.3 4.3 0 0 0 .22.69c3.43 7.93 14.5 17.19 28 25.44s70.88 37.48 85.52 43.6 28.63 9.62 37.06 7.75c11.83-2.61 43.78-78.26 55.82-103.15z"
        fill="#544032" />
    <path
        d="m651.69 328.8-88.79-45.26 14.27-28a9.57 9.57 0 0 1 12.83-4.17l71.74 36.57a9.57 9.57 0 0 1 4.26 12.87z"
        fill="#684f3e" />
    <path
        d="m661.78 287.94-9.78-4.94a9.56 9.56 0 0 1 4.18 12.86l-14.28 28 9.78 5 14.27-28a9.57 9.57 0 0 0 -4.17-12.92z"
        fill="#544032" />
    <path
        d="m662.51 232.7a7.91 7.91 0 0 0 -4.06-9l-7.22-3.7-7.23-3.69a7.9 7.9 0 0 0 -9.7 2l-32.24 39.18 23.83 12.15 23.83 12.14z"
        fill="#684f3e" />
    <path
        d="m662.21 232.55a7.89 7.89 0 0 0 -4.06-9l-6.92-3.55a7.9 7.9 0 0 1 4.06 9l-12.77 49.1 6.93 3.53z"
        fill="#544032" />
    <path d="m567.61 285.94 80.54 41.06.37 15-5.58 4s1.39-7.89-8.94-17-69.85-41.76-69.85-41.76z"
        fill="#544032" />
    <path
        d="m582.21 461.43c7.26-22 3.48-35.66 9.29-48.62s27.13-25.71 32.59-31.16-2.37-16.67-16.54-28c-9.22-7.38-32.18-21.42-46.41-24.69-15-3.45-31.12-4.51-32.44 3.1s1.19 32.28-6.06 44.48-21.25 17.08-35.07 35.68-35.72 61.78-34.9 63.78c.67 1.57 99.05 52.85 100.81 52.48 2.06-.48 21.52-45.04 28.73-67.05z"
        fill="#d35a57" />
    <path
        d="m544.92 333.9a79.72 79.72 0 0 1 16.35 2.1c11.7 2.55 31.93 14.59 40.72 21.76 9.3 7.58 15 14.82 15.26 19.37a3.32 3.32 0 0 1 -.92 2.68 86.32 86.32 0 0 1 -6.86 5.71c-8.3 6.52-19.66 15.45-23.89 24.83-2.85 6.31-3.5 12.54-4.26 19.76-.78 7.39-1.65 15.75-5.17 26.19-6.23 18.45-21.57 53.64-25.81 61-11.36-5.07-76.59-39.07-87-45.33 2.92-7.78 20.57-41.94 32.06-57.66 6.52-8.91 13-14.48 18.78-19.39s10.49-8.92 14-14.92c5.18-8.78 5.67-23 6-33.42a78.73 78.73 0 0 1 .6-9.22c.59-3.12 7.26-3.46 10.1-3.46zm0-2.63c-6.79 0-11.92 1.52-12.68 5.61-1.33 7.15.5 30.22-6.32 41.78s-19.66 16.34-32.59 34.06-33.64 58.54-32.92 60.34c.58 1.46 88.5 47.35 90.83 47.35 1.88-.45 20.37-42.55 27.38-63.31s3.81-33.47 9.33-45.71 25.17-24.58 30.24-29.78-1.86-15.57-14.56-25.93c-8.26-6.74-28.91-19.48-41.82-22.29a83.6 83.6 0 0 0 -16.91-2.12z"
        fill="#8c6b58" />
    <path
        d="m528.92 410.42-6 6.3-2.14 4.21-2.78-1.43 2.15-4.21 1.66-8.51 2.78 1.41c-.72 2.5-1.26 4.15-1.6 5 .8-1.15 1.86-2.54 3.18-4.15z"
        fill="#8c6b58" />
    <path
        d="m529.43 410.68 5.05 2.57-1.19 2.33-2-1-1.12 2.21 1.89 1-1.13 2.22-1.93-1.01-1.3 2.56 2.22 1.13-1.17 2.31-5.25-2.67z"
        fill="#8c6b58" />
    <path d="m538.58 415.34-4.75 9.31 1.84.94-1.18 2.33-4.87-2.48 5.93-11.64z" fill="#8c6b58" />
    <path d="m544.18 418.2-4.75 9.3 1.84.94-1.18 2.33-4.87-2.48 5.93-11.64z" fill="#8c6b58" />
    <path
        d="m550 429.73c-.6 1.17-1.05 2-1.35 2.44a3.13 3.13 0 0 1 -2.84 1.4 4.71 4.71 0 0 1 -1.89-.55 5 5 0 0 1 -1.53-1.16 3.2 3.2 0 0 1 -.73-1.53 3.13 3.13 0 0 1 .14-1.61c.19-.5.59-1.36 1.2-2.56l1-2c.6-1.17 1-2 1.35-2.44a3.18 3.18 0 0 1 1.2-1.07 3.22 3.22 0 0 1 1.65-.33 4.82 4.82 0 0 1 1.89.56 4.9 4.9 0 0 1 1.52 1.16 3.14 3.14 0 0 1 .59 3.13 25.6 25.6 0 0 1 -1.19 2.56zm-1.08-5.36a3.81 3.81 0 0 0 .44-1.09.38.38 0 0 0 -.25-.41.5.5 0 0 0 -.46 0 3.09 3.09 0 0 0 -.68 1l-2.77 5.44a5.63 5.63 0 0 0 -.55 1.29.39.39 0 0 0 .26.43.42.42 0 0 0 .54-.07 6.32 6.32 0 0 0 .75-1.26z"
        fill="#8c6b58" />
    <path
        d="m566 429.3-7.28 10.95-3.78-1.92q.84-3 2.19-6.57-.93 1.37-4 5.67l-3.76-1.92 4.63-12.32 2.94 1.49-1.75 4.23-1.72 4.09q1.71-3 4.9-7.56l3.15 1.6c-.13.37-.68 1.7-1.63 4l-1.92 4.6q2.41-4.09 5.06-7.84z"
        fill="#8c6b58" />
    <path
        d="m515.3 428.71-5.94 11.64-2.64-1.35 4-7.86-5.06 7.32-1.87-.95 2.8-8.25-3.92 7.68-2.67-1.35 6-11.59 3.92 2c-.25.76-.55 1.64-.91 2.66l-1.08 3.17 3.47-5.07z"
        fill="#8c6b58" />
    <path
        d="m523.39 432.84-4 7.78a15.13 15.13 0 0 1 -1 1.81 2.75 2.75 0 0 1 -1.07.84 3 3 0 0 1 -1.55.29 5 5 0 0 1 -1.77-.56 5.1 5.1 0 0 1 -1.66-1.28 3.18 3.18 0 0 1 -.74-1.51 2.84 2.84 0 0 1 .13-1.4c.16-.44.58-1.31 1.25-2.62l3.51-6.89 3 1.54-4.45 8.73a4.07 4.07 0 0 0 -.42 1 .38.38 0 0 0 .23.38.39.39 0 0 0 .49-.05 4.94 4.94 0 0 0 .64-1.06l4.38-8.57z"
        fill="#8c6b58" />
    <path
        d="m529.18 440.23-2.81-1.44.44-.86a1.89 1.89 0 0 0 .28-.82.41.41 0 0 0 -.27-.35.53.53 0 0 0 -.53 0 1.38 1.38 0 0 0 -.48.61 2 2 0 0 0 -.29.95 2.54 2.54 0 0 0 .49 1.15 9.74 9.74 0 0 1 1.54 3.27 5 5 0 0 1 -.74 2.74 4.76 4.76 0 0 1 -1.23 1.69 2.54 2.54 0 0 1 -1.62.41 5.54 5.54 0 0 1 -4-2.1 2.53 2.53 0 0 1 -.52-1.75 6.48 6.48 0 0 1 .76-2.15l.39-.77 2.81 1.44-.72 1.41a2 2 0 0 0 -.31.9.51.51 0 0 0 .32.41.55.55 0 0 0 .57 0 1.55 1.55 0 0 0 .51-.63 2.44 2.44 0 0 0 .4-1.49 9.61 9.61 0 0 0 -.87-1.78 15.7 15.7 0 0 1 -.95-1.85 2.84 2.84 0 0 1 -.13-1.24 4.52 4.52 0 0 1 .54-1.65 4.72 4.72 0 0 1 1.34-1.78 2.57 2.57 0 0 1 1.59-.4 4.94 4.94 0 0 1 2 .59 5.49 5.49 0 0 1 1.82 1.4 2.44 2.44 0 0 1 .61 1.52 5.68 5.68 0 0 1 -.74 2.11z"
        fill="#8c6b58" />
    <path d="m538.27 440.42-1.19 2.33-1.79-.91-4.75 9.31-3-1.55 4.75-9.31-1.79-.91 1.19-2.33z"
        fill="#8c6b58" />
    <path
        d="m543.6 443.14-4.2 12.52-3.09-1.57.9-2.18-1.08-.55-1.25 2-3.13-1.6 7.48-10.85zm-5.42 6.67q.78-2.1 2-5.13c-1.45 2.08-2.47 3.61-3.08 4.6z"
        fill="#8c6b58" />
    <path
        d="m545.85 444.29 2.14 1.09a18.49 18.49 0 0 1 2.82 1.64 2.29 2.29 0 0 1 .8 1.48 4.32 4.32 0 0 1 -.62 2.41 3.87 3.87 0 0 1 -1.27 1.65 2 2 0 0 1 -1.62-.12 2.58 2.58 0 0 1 .9 1.22 2.08 2.08 0 0 1 0 .88 12.67 12.67 0 0 1 -.8 1.76l-1.57 3.07-2.81-1.43 2-3.87a3 3 0 0 0 .45-1.23c0-.2-.25-.41-.66-.62l-2.68 5.25-3-1.55zm2 3.53-1.32 2.59a1.45 1.45 0 0 0 .79.22c.18 0 .4-.29.67-.8l.32-.64a1.06 1.06 0 0 0 .17-.83 1.25 1.25 0 0 0 -.62-.54z"
        fill="#8c6b58" />
    <path
        d="m553.78 448.33 2.26 1.15a15.57 15.57 0 0 1 2.86 1.72 2.47 2.47 0 0 1 .84 1.26 2.32 2.32 0 0 1 0 1.28 17.48 17.48 0 0 1 -1 2.27l-2.08 4.07a10.19 10.19 0 0 1 -1.21 2 1.83 1.83 0 0 1 -.94.57 2.35 2.35 0 0 1 -1.11-.05 8.75 8.75 0 0 1 -1.69-.71l-3.87-1.89zm2 3.53-3.91 7.66c.44.22.75.27.94.15a4.37 4.37 0 0 0 .88-1.35l2.31-4.52a6.54 6.54 0 0 0 .46-1 .5.5 0 0 0 -.06-.45 1.65 1.65 0 0 0 -.61-.49z"
        fill="#8c6b58" />
    <path
        d="m554.74 482.37-68.65-35a4.78 4.78 0 0 1 -2.09-6.43 4.78 4.78 0 0 1 6.44-2.09l68.65 35a4.78 4.78 0 0 1 2.09 6.43 4.79 4.79 0 0 1 -6.44 2.09z"
        fill="#f6dc4b" />
    <path
        d="m571.48 347.35-5.93 11.65-2.9-1.48 3.18-6.24a11.61 11.61 0 0 0 .76-1.66.66.66 0 0 0 -.15-.59 3.83 3.83 0 0 0 -1.22-.8l-.29-.15.69-1.36a5.89 5.89 0 0 0 4.15-.23z"
        fill="#8c6b58" />
    <path
        d="m577.45 355.36-2 3.88a10.33 10.33 0 0 1 -1.12 1.85 3 3 0 0 1 -1.17.83 3 3 0 0 1 -1.48.2 4.83 4.83 0 0 1 -1.55-.5 6.11 6.11 0 0 1 -1.61-1.13 2.54 2.54 0 0 1 -.71-1.31 3.35 3.35 0 0 1 0-1.37 7.47 7.47 0 0 1 .74-1.88l2.07-4.06a8.88 8.88 0 0 1 1.5-2.26 2.66 2.66 0 0 1 1.76-.72 4.37 4.37 0 0 1 2.24.53 4.85 4.85 0 0 1 1.54 1.21 3.23 3.23 0 0 1 .71 1.39 3 3 0 0 1 -.05 1.34 10.54 10.54 0 0 1 -.87 2zm-2.4-2.46a5.06 5.06 0 0 0 .5-1.21.44.44 0 0 0 -.3-.44.46.46 0 0 0 -.56 0 4.42 4.42 0 0 0 -.69 1.09l-2.89 5.68a5.08 5.08 0 0 0 -.53 1.27.47.47 0 0 0 .32.42.46.46 0 0 0 .55 0 4 4 0 0 0 .66-1z"
        fill="#8c6b58" />
    <path
        d="m585.35 359.38-2 3.88a10.8 10.8 0 0 1 -1.13 1.86 3 3 0 0 1 -1.17.82 2.89 2.89 0 0 1 -1.48.2 4.91 4.91 0 0 1 -1.55-.5 6.1 6.1 0 0 1 -1.61-1.12 2.77 2.77 0 0 1 -.71-1.32 3.74 3.74 0 0 1 0-1.37 8.05 8.05 0 0 1 .74-1.88l2.08-4.06a8.55 8.55 0 0 1 1.5-2.26 2.63 2.63 0 0 1 1.75-.72 4.37 4.37 0 0 1 2.24.54 4.59 4.59 0 0 1 1.54 1.2 3.18 3.18 0 0 1 .71 1.39 3.08 3.08 0 0 1 0 1.35 11.24 11.24 0 0 1 -.91 1.99zm-2.41-2.46a5.23 5.23 0 0 0 .5-1.2.44.44 0 0 0 -.3-.45.46.46 0 0 0 -.55 0 3.88 3.88 0 0 0 -.69 1.09l-2.9 5.68a4.64 4.64 0 0 0 -.52 1.27.45.45 0 0 0 .31.42.45.45 0 0 0 .55 0 4.14 4.14 0 0 0 .66-1.05z"
        fill="#8c6b58" />
    <path
        d="m591.41 360-1 2a3.89 3.89 0 0 1 -.74 1.1 1.61 1.61 0 0 1 -1 .36 2.77 2.77 0 0 1 -1.43-.36 3.32 3.32 0 0 1 -1.26-1 1.66 1.66 0 0 1 -.31-1 3.16 3.16 0 0 1 .4-1.2l1.07-2.09a3.81 3.81 0 0 1 .82-1.19 1.58 1.58 0 0 1 1-.33 3.06 3.06 0 0 1 1.38.38 3.13 3.13 0 0 1 1.19 1 1.7 1.7 0 0 1 .33 1 3.83 3.83 0 0 1 -.45 1.33zm-1.58-1.45a1.8 1.8 0 0 0 .24-.59c0-.09-.06-.17-.2-.24s-.23-.07-.31 0a2 2 0 0 0 -.34.53l-1.5 2.93a2.2 2.2 0 0 0 -.25.63c0 .09.07.16.21.24a.29.29 0 0 0 .3 0 1.83 1.83 0 0 0 .33-.52zm6.09 1-10.71 9.76-1.11-.56 10.73-9.75zm-2 8.85-1 2a4 4 0 0 1 -.74 1.1 1.61 1.61 0 0 1 -1 .36 2.77 2.77 0 0 1 -1.43-.36 3.1 3.1 0 0 1 -1.25-1 1.64 1.64 0 0 1 -.32-1 3.18 3.18 0 0 1 .4-1.19l1.07-2.1a3.87 3.87 0 0 1 .82-1.18 1.53 1.53 0 0 1 1-.33 3 3 0 0 1 1.37.37 3.07 3.07 0 0 1 1.19 1 1.65 1.65 0 0 1 .33 1 3.73 3.73 0 0 1 -.42 1.31zm-1.58-1.44a1.8 1.8 0 0 0 .24-.59c0-.09-.06-.17-.19-.24a.29.29 0 0 0 -.31 0 1.83 1.83 0 0 0 -.34.54l-1.5 2.94a2 2 0 0 0 -.25.62c0 .08.07.16.2.23a.27.27 0 0 0 .31 0 1.63 1.63 0 0 0 .32-.51z"
        fill="#8c6b58" />
    <path
        d="m549.92 406.69q7.35-14.34 15.2-28.43c.68-1.22-1.2-2.32-1.88-1.09q-7.85 14.07-15.2 28.42c-.64 1.25 1.24 2.35 1.88 1.1z"
        fill="#8c6b58" />
    <path
        d="m563.13 380.05c-1.47-1.6-.94-4.14-.16-6.16a15.85 15.85 0 0 1 1.58-3.23 10 10 0 0 1 5.3-4c.79 3.1-.1 6.49-1.62 9.31-1.1 2.05-3.17 4.1-5.46 4.53z"
        fill="#8c6b58" />
    <path
        d="m567.29 382a23.66 23.66 0 0 1 7.12 2.48 5.24 5.24 0 0 1 -3.1 2.14 13.8 13.8 0 0 1 -5.76.79c-1.42-.13-4-.58-4.61-2.1-1.52-3.67 4.5-3.61 6.35-3.31z"
        fill="#8c6b58" />
    <path
        d="m564.09 388.67a23.64 23.64 0 0 1 7.12 2.47 5.26 5.26 0 0 1 -3.1 2.15 14.13 14.13 0 0 1 -5.76.79c-1.42-.14-4-.58-4.61-2.1-1.52-3.66 4.5-3.6 6.35-3.31z"
        fill="#8c6b58" />
    <path
        d="m560 396.74a23.47 23.47 0 0 1 7.12 2.48 5.27 5.27 0 0 1 -3.1 2.15 13.93 13.93 0 0 1 -5.76.78c-1.42-.13-4-.58-4.61-2.1-1.55-3.65 4.47-3.6 6.35-3.31z"
        fill="#8c6b58" />
    <path
        d="m559.28 377.74a23.9 23.9 0 0 0 -6-4.54 5.29 5.29 0 0 0 -.06 3.78 14.2 14.2 0 0 0 2.55 5.22c.91 1.1 2.7 3 4.32 2.66 3.91-.77.46-5.74-.81-7.12z"
        fill="#8c6b58" />
    <path
        d="m555.52 384.11a24.1 24.1 0 0 0 -6-4.53 5.21 5.21 0 0 0 -.06 3.77 13.9 13.9 0 0 0 2.55 5.22c.9 1.11 2.7 3 4.31 2.67 3.86-.78.47-5.75-.8-7.13z"
        fill="#8c6b58" />
    <path
        d="m551.1 392a23.9 23.9 0 0 0 -6-4.54 5.24 5.24 0 0 0 -.06 3.78 14 14 0 0 0 2.55 5.22c.91 1.1 2.7 3 4.31 2.66 3.87-.74.47-5.71-.8-7.12z"
        fill="#8c6b58" />
    <path
        d="m636.2 223.44a13.86 13.86 0 0 0 -3.36 3.93c-6.57 9.64-16.38 16.87-22 27.08a3 3 0 0 0 -.52 1.84c.12.87.92 1.45 1.66 1.91 2 1.26 4.64 2.41 6.72 1.2a7.08 7.08 0 0 0 1.75-1.62 203.18 203.18 0 0 0 20.3-28.35c2.25-3.79.64-9.43-4.55-5.99z"
        fill="#fff" opacity=".16" />
    <path
        d="m544.36 308.06a13.89 13.89 0 0 0 -4.54 3.93 5.15 5.15 0 0 0 -.18 5.69c1.27 1.7 3.7 2.05 5.79 1.7a24.58 24.58 0 0 0 6.59-2.49l16.78-8.27c7-3.45 3.33-11.58-3.8-10.5-6.93 1.06-14.79 6.29-20.64 9.94z"
        fill="#fff" opacity=".16" />
    <path
        d="m463.33 412.66a385 385 0 0 1 -34.28 68.28c-2.75 4.35-5.7 9-5.56 14.15s5.06 10.43 10 8.83c4.68-1.54 5.77-7.51 6.49-12.38 3-20.65 13.26-39.2 23.39-57.11 3.71-6.55 13.61-18.33 13.21-26.1-.17-3.21-2.17-5.87-5.66-5.39-4.3.59-6.31 6.37-7.59 9.72z"
        fill="#fff" opacity=".55" />
    <path
        d="m582.41 254.24a2.9 2.9 0 0 0 -2.13 3.29 3.89 3.89 0 0 0 1.75 2c2.91 2 6.37 3 9.7 4.12 14.53 5 27.69 13.15 40.95 20.87 1.63.95 3.91 1.82 5.19.44a2.89 2.89 0 0 0 -.09-3.6 8.5 8.5 0 0 0 -3.18-2.25l-27.45-13.59-13.72-6.8c-2.77-1.34-7.78-5.44-11.02-4.48z"
        fill="#684f3e" />
    <path
        d="m154.53 769.86c1.71 21.49-3.79 66.56-3.79 66.56s46.68 31.22 68.24 31.44c-13.49-7.48-62.36 9.66-62.36 9.66s-3.57 31.09 1.24 56c2.93 15.13 15.52 26 14.9 31.8-4 37.63-13.81 62.86-16.69 100.6 265.1-6.76 371 4.14 582.1 0 14.05-48.72 34.49-131.4 34.49-131.4l-11.79-46.14s-34.86-3.2-64.65-5.26c31.84-10.78 43.56-17.69 53.83-22.83l-3.54-32-108.69-5.87a442.7 442.7 0 0 1 108.18-13.54 1634.3 1634.3 0 0 1 6.7-438.94c.14-.93-358.11-8.12-391-7.37-36.39.84-211 15.15-211 15.15s21.89 65.1 18.26 85.83q-8 45.43-12.44 91.38a1217.77 1217.77 0 0 0 -1.99 214.93z"
        fill="#ebcfa8" />
    <path d="m157.86 933.47c.65-7.27 180.72-14.28 176.4-12.84s-161.5 44.64-161.5 44.64z"
        fill="#e0bd9d" />
    <path
        d="m436.77 145c.3 25.08 6.38 50.81 21.69 70.67 6.7 8.69 17.84 16.65 27.89 12.26 6.87-3 10.41-11.05 10.32-18.55s-3.08-14.62-6.07-21.49c-5.84-13.45-11.92-27.1-13.41-41.68-1-9.89.09-20.21-3.49-29.49-4.05-10.52-17.82-18.94-27.1-10.41s-9.96 27.26-9.83 38.69z"
        fill="#fff" opacity=".55" />
    <path d="m436 62.19s71.68-14 72.13-14.16 5.87 14.6 5.87 14.6l-78 16.17z" fill="#e03822" />
    <path
        d="m210 463c8.72 63.26-25.9 126.55-17.14 189.81 1.33 9.64 4.39 20.17 12.75 25.17 8.18 4.89 18.54 2.83 27.86.86a553.87 553.87 0 0 1 152.03-10.68c14 1 28.86 2.31 41.42-4s20.7-23.61 12.25-34.84c-3-4-7.45-6.5-11.93-8.6-29.71-13.94-66.82-14.48-89.79-37.91a42.4 42.4 0 0 1 -10.8-17.45c-4.4-15 2.56-31.35 12.92-43.1 44.76-50.74 136.76-32.23 181.25-83.21 3.11-3.57 6-8.53 4-12.79-1.36-2.79-4.44-4.24-7.34-5.35-22.79-8.71-47.72-9.43-72.11-10.05-55-1.4-111.57.86-166.09-6.49-17.3-2.33-33.45-5.46-50.29 2.44-27.24 12.78-18.99 31.46-18.99 56.19z"
        fill="#fff" opacity=".21" />
    <path
        d="m335.75 823.27c48.61 2.56 95.08-17.58 141.25-33a773.12 773.12 0 0 1 151-34.27c11.6-1.42 23.86-2.84 33.15-9.92 14.66-11.17 16.79-32 17.71-50.43 2.55-51.51 5.1-103.18 1.48-154.63-1-13.88-2.58-28.28-9.93-40.1s-22.06-20.19-35.3-15.9c-11.46 3.7-18.46 15.5-21.35 27.19-7.83 31.67 6.2 68.76-12.09 95.79-13.39 19.78-39 26.09-60.86 35.63-23.07 10-43.64 25-65.83 36.82-42.79 22.88-95.15 24.19-136.33 47.17-37.53 20.9-66.13 92.32-2.9 95.65z"
        fill="#fff" opacity=".21" />
    <path
        d="m548 1033.41c39.47 2.77 79.28 6.44 118.48 1 13.58-1.89 27.88-5.34 37.34-15.27s11.13-28.22.1-36.37c-7.88-5.81-18.65-4.59-28.41-5.42s-21.22-6.42-21.13-16.21c0-4.08 2.22-7.87 5-10.84 16.83-17.93 50.12-8.14 67.88-25.17-46.94-20.9-99.89-25.31-151.06-20.69s-101.12 17.85-150.78 31c-48.2 12.8-96.26 27.22-144.84 38.46-24.35 5.64-68.08-.93-88.8 13.22-9.58 6.55-13.5 14-10.94 26.09 4.87 23.11 25.44 18.3 44.35 17.41 51.11-2.41 102.2-3.93 153.36-3.65 56.45.33 113.06 6.44 169.45 6.44z"
        fill="#fff" opacity=".21" />
    <path
        d="m185.09 397.29-34.35-19.57 15.07-18.73 22.92 16.73 13.29-13.2 19.45 10.32 23.3-17.28 14.09 13.18 19.43-16.58 14.19 14.83 25.06-14.83 17.18 11.78 26.65-11.78 24.3 11.78 24.29-11.78 21.37 11.78 37.9-13.72 15.08 13.84 27.68-11.41 17 12.21 23.81-14.64 21.39 15.5 18.93-12.59 29.64 15.61 17-16.58 11.66 16.58 17.01-15.12 17.46 14.43 19.95-14.92 9.23 15.61 17.49-15.12 20.18 16.32-511.86 47.33-52.15-41.55z"
        fill="#ebcfa8" />
</svg>