<svg viewBox="0 0 685.04 1051.48" xmlns="http://www.w3.org/2000/svg">
    <path d="m368.62 256.33 70.1 56.13-27.37 83.39-98.29-11.39z" fill="#473834" />
    <path d="m194.48 344.51c-2.72-7.06 57.5-142.3 57.5-142.3l116.64 54.12-52.25 140.85z"
        fill="#725a52" />
    <path
        d="m297.32 453.69c1.12-1 71.28-48.69 95-82.54 38.29-54.73 46.88-142 46.88-142l18-8s41.69 41.21 32.95 99.09-26.15 86.04-74.69 122.76c-53 40.12-113 28.57-113 28.57z"
        fill="#e5ca2e" />
    <path
        d="m456.37 221.86c11.65 16.75 27.42 47.42 21.72 85.19-8.74 57.89-26.12 86.05-74.65 122.8-40.78 30.88-85.75 31.15-104.3 29.64l3.52 12.38s60.06 11.54 113-28.58c48.53-36.75 65.91-64.91 74.65-122.8s-33-99.09-33-99.09z"
        fill="#e0a32b" />
    <path d="m439.16 229.14-13.44-32.72 10.83-9.87 20.61 34.59z" fill="#e5ca2e" />
    <path d="m415.9 187c-.52 6.74 3.48 15.25 3.48 15.25l27.68-13.88-7.91-13.17z" fill="#e5ca2e" />
    <path d="m302.42 471.61-5.1-17.92 15.74-3.07-3.18 15.71z" fill="#60443e" />
    <path
        d="m421.75 194a11.75 11.75 0 0 0 4-1.06c3.05-1.21 6.11-2.43 9.1-3.8 2-.9 4.22-2.48 3.82-4.61a3.39 3.39 0 0 0 -3.11-2.46 9.3 9.3 0 0 0 -4.13.84c-3.35 1.26-9.33 2.77-12 5.19-2.43 2.23-1.73 5.96 2.32 5.9z"
        fill="#fff431" />
    <path
        d="m324.39 446c18.94-11.26 37.74-23 54.66-37.08s32-30.85 42-50.46a12.4 12.4 0 0 0 1.76-5.51c0-1.94-1.13-4-3-4.49s-3.9.87-5.39 2.26c-5.43 5.05-9.42 11.42-13.69 17.48-17.62 25-40.72 45.55-64.89 64-3.18 2.42-6.77 4.6-9.78 7.18-1 .87-1.89 1-2.45 2.39-.16.41-.26 4.82.78 4.23z"
        fill="#fff431" />
    <path
        d="m425 336.74a5.36 5.36 0 0 0 4.72-2.27 15.29 15.29 0 0 0 2.23-5 313.12 313.12 0 0 0 8.66-35.61c.49-2.74.95-5.57.36-8.29a4 4 0 0 0 -1-2c-1.23-1.25-3.39-.85-4.82.17-2.89 2-4 5.75-4.86 9.17q-4.77 18.28-9.52 36.56a4.46 4.46 0 0 0 -.18 2.31c.52 1.57 2.65 4.72 4.41 4.96z"
        fill="#fff431" />
    <path
        d="m432.19 195.78s-1.26-4 6.78 7.43 13.6 18.62 13.6 18.62.61-.81 5 3.09 5.8 3.94 5.8 3.94l-6.25-7.72-17.34-29.14z"
        fill="#e0a32b" />
    <path d="m447.06 188.33-4.91-.59-7.3-10.4 4.3-2.18z" fill="#e0a32b" />
    <path
        d="m156.06 413.81c1.49-.29 86.19-4.79 124-21.51 61.08-27 113.59-97.27 113.59-97.27l19.54 2.47s14.36 56.83-23.07 101.84-66.87 60.12-127.41 66.47c-66.1 6.92-111.52-34-111.52-34z"
        fill="#e5ca2e" />
    <path
        d="m412.12 297.71c1.3 20.36-1.07 54.76-25.5 84.14-37.42 45-66.87 60.12-127.41 66.46-50.88 5.33-89.5-17.71-104.59-28.59l-3.39 12.41s45.42 40.95 111.52 34c60.54-6.34 90-21.44 127.41-66.46s23.07-101.84 23.07-101.84z"
        fill="#e0a32b" />
    <path d="m393.62 295.03 5.43-34.95 14.37-2.85-.26 40.27z" fill="#e5ca2e" />
    <path d="m395.54 246.9c-3.94 5.5-4.92 14.85-4.92 14.85l30.87 2.44v-15.36z" fill="#e5ca2e" />
    <path d="m151.16 431.78 4.9-17.97 15.06 5.52-10.85 11.79z" fill="#60443e" />
    <path
        d="m396.92 255.92a11.75 11.75 0 0 0 4 1.16c3.24.54 6.48 1.08 9.75 1.45 2.15.25 4.9.07 5.66-2a3.4 3.4 0 0 0 -1.39-3.72 9.33 9.33 0 0 0 -4-1.42c-3.51-.65-9.42-2.45-12.92-1.75-3.3.71-4.62 4.27-1.1 6.28z"
        fill="#fff431" />
    <path
        d="m183.22 421.21c22 .16 44.17-.11 66-3.45s43.32-9.86 62.07-21.45a12.31 12.31 0 0 0 4.35-3.8c1-1.67 1.12-4-.25-5.41s-3.79-1.27-5.79-.85c-7.26 1.51-14 4.9-20.76 7.88-28 12.28-58.41 17.91-88.66 21.22-4 .44-8.17.44-12.09 1.09-1.32.22-2.13-.13-3.32.78-.39.26-2.77 3.98-1.55 3.99z"
        fill="#fff431" />
    <path
        d="m325.86 379.8a5.36 5.36 0 0 0 5.21.51 15.15 15.15 0 0 0 4.48-3.11 310.66 310.66 0 0 0 25.83-26 21.29 21.29 0 0 0 4.6-6.9 4 4 0 0 0 .24-2.24c-.41-1.71-2.47-2.48-4.22-2.36-3.52.26-6.37 2.87-8.9 5.34l-27.1 26.37a4.44 4.44 0 0 0 -1.35 1.87c-.39 1.59-.2 5.39 1.21 6.52z"
        fill="#fff431" />
    <path
        d="m404.91 262.88s1-4 2 9.86 2 23 2 23 .94-.38 2.71 5.26 2.93 6.37 2.93 6.37l-1.36-9.84.22-33.95z"
        fill="#e0a32b" />
    <path d="m421.49 264.19-3.9-3.04-.86-12.68 4.8.36z" fill="#e0a32b" />
    <path
        d="m534.92 0a146.5 146.5 0 0 0 27.84 1.52q9.94 95.43 19.9 190.84c1.29 12.37 2.44 25.54-3.23 36.61s-21 18.06-31 10.67c-8.55-6.33-8.79-18.8-8.21-29.42 1.8-33.15 8.1-64.74 6.53-97.82-.51-10.76-4.28-111.26-11.83-112.4z"
        fill="#568e4c" />
    <path
        d="m617.65 53.77c3.29-7.14 5-29.11 12.86-28.68 8.9.47 17.55 5.91 21.26 12.83q-35.16 101-70.31 202c-4.52 13-22.42 37-31.32 14.66-6.48-16.25 5.84-44.7 10.41-59.91 14.62-48.67 35.91-94.9 57.1-140.9z"
        fill="#73ba65" />
    <path
        d="m649.69 100.94 14.69 6.76a2122.45 2122.45 0 0 1 -100.74 202.52c-10.46 18.48-21.66 37.34-38.78 49.92-2.36 1.74-5.09 3.41-8 3.11-20.79-2.18 8.13-86.18 15.24-100.1 17.67-34.62 41.93-68.23 65.08-99.3 4.42-5.93 47.5-65.21 52.51-62.91z"
        fill="#568e4c" />
    <path
        d="m525 63.62c5.72-3.57 13.71-.43 17.7 5s5 12.44 5.94 19.13c2.87 21.16 5.75 42.35 7 63.67 2.74 47.73-2.8 95.5-8.34 143-2.57 22.09-5 56.3-24.3 71.32-21 16.4-20.21-9.13-18.07-23.25 8.86-58.4 15.91-116.64 18.68-175.71q1.25-26.55 1.58-53.13c.08-5.85-3.7-47.83-.19-50.03z"
        fill="#73ba65" />
    <path
        d="m509.44 151.93 32.42 10.76a741.12 741.12 0 0 1 -17.78 184.55 470.4 470.4 0 0 1 105-162.87l27.53 21.27c-23.47 23.94-39.73 53.85-55.67 83.35-32.19 59.53-64.66 119.76-82.07 185.16-4.5 16.91-8.13 34.46-17.47 49.25-17.61 27.88-68 35.12-71.21-7.72-1-13.08 8.74-25.92 13.26-37.61 7.71-19.92 12.87-41.18 18.46-61.78a1540.82 1540.82 0 0 0 47.53-264.36z"
        fill="#568e4c" />
    <path
        d="m554.91 262a431.06 431.06 0 0 1 72.66-70.84c-35.73 36.85-72.43 75.22-90.09 123.42.27-9.56.79-20.24 3.07-29.56 2.12-8.68 8.87-16.25 14.36-23.02z"
        fill="#73ba65" />
    <path
        d="m399.18 388.85c9.81-6.31 16.65-3.47 29.75-10.3 1.54-.8 1.93 3.31 3.21 4.49 1.82 1.68-3.15 5.24-3.94 7.58a17.84 17.84 0 0 1 -4.13 6.08c-9.17 9.92-23.29 24.32-37.31 26.38-3.5.51-25.55 5.43-24.09 1.11 4.14-12.3 19.61-15.74 22.5-18.7 6.3-6.43 3.92-10.15 14.01-16.64z"
        fill="#ad3e3b" />
    <path
        d="m400 411.52c-13.18 10.08-45.85 2.63-50 32.92s29.75 75.91 56.15 87.34 60.68-5.8 80.62-20.31c23.23-16.94 49.38-53.47 25.23-94.13-21.14-35.57-51.16-58.9-81.69-39.66-18.62 11.72-8.72 17.32-30.31 33.84z"
        fill="#d34d46" />
    <path
        d="m450.42 370.83c14.31 7.75 27.43 22.72 38.22 40.88 24.17 40.66-2 77.19-25.25 94.13-15.31 11.14-39.05 23.86-61.19 24 1.32.72 2.62 1.36 3.91 1.92 26.41 11.42 60.68-5.8 80.62-20.31 23.27-16.92 49.42-53.45 25.27-94.11-16.47-27.69-38.31-47.96-61.58-46.51z"
        fill="#ad3e3b" />
    <path
        d="m368.34 452.83a37.12 37.12 0 0 0 5.4 21.87c2.27 3.82 5.26 7.41 9.3 9.28s9.26 1.64 12.47-1.44a6 6 0 0 0 1.77-2.87 9.06 9.06 0 0 0 -.57-4.72c-2.2-7.21-4.4-14.79-2.93-22.18.71-3.53 2.23-6.87 2.82-10.42s0-7.64-2.78-9.94c-4.28-3.55-12.28-1.5-16.3 1.54-5.52 4.18-8.6 12.21-9.18 18.88z"
        fill="#fff" opacity=".27" />
    <path
        d="m397.56 490.91c-2.69 1.87-3.1 6.07-1.23 8.76a9 9 0 0 0 8.67 3.33 5.46 5.46 0 0 0 4.24-2.63 5.52 5.52 0 0 0 .14-3.68 9.75 9.75 0 0 0 -3.7-5.72 7 7 0 0 0 -6.6-.86z"
        fill="#fff" opacity=".27" />
    <path d="m150.53 247.45-.39-.71c-.24.27-1.54-.55-.54.34z" fill="#ed9254" />
    <path
        d="m124.94 370.78c21.57-.1 37.84-31.46 46.76-48.48 8.25-15.74 20.92-47.33-.24-64.07-6.22-4.92-15-8-22-10.73l2.39 4.32c-6-8.84-20.12-22.69-28.62-20.52-8.94 2.28-21 4.57-29 9-29.78 16.47-37.8 33.81-34.9 64.72 3.78 41.09 38.47 65.88 65.61 65.76z"
        fill="#ed9254" />
    <path
        d="m124.76 370.2a26.06 26.06 0 0 0 13.66-4.2c-25-4.94-52.47-28.51-55.87-64.78-2.9-30.91 5.12-48.24 34.9-64.72a61.19 61.19 0 0 1 12.43-4.82 11.12 11.12 0 0 0 -6.87-.9c-8.94 2.28-21 4.57-29 9-29.77 16.48-37.8 33.82-34.9 64.73 3.83 41.02 38.51 65.82 65.65 65.69z"
        fill="#d8864e" />
    <path
        d="m120.3 371a24 24 0 0 0 8.46-1.65c-26.37-2.35-57.68-26.65-61.33-65.57-2.9-30.91 5.12-48.24 34.9-64.72 5.93-3.28 14.1-5.38 21.57-7.18a9.87 9.87 0 0 0 -5.35-.36c-8.94 2.28-21 4.57-29 9-29.78 16.47-37.8 33.81-34.9 64.72 3.83 41.07 38.51 65.86 65.65 65.76z"
        fill="#b77446" />
    <path d="m219.15 359.63-.17-.25z" fill="#d8864e" />
    <path
        d="m144.16 445.2c19.88-.7 28-27.79 45.57-37.32 10.1-5.48 19.08-12.95 25.59-23 2.8-4.31 4.84-14.71 1.68-20.47l-7.41-3.41c-6.69-3.38-5.86 8.3-10.31.66 4.33-9.63 5.06-28 9.65-38 6.6-14.45 5.8-36.06-.2-52.8-13.23-36.92-46.16-57.13-70.16-50.92-7.66 2-26.56 13.55-3.76 19.32 7.36 1.86 15.33 13.58 20.68 22.39 19.12 31.48-34.92 70.93-41.74 82.26-7.85 13-18.11 29.2-17.32 45.25.97 19.53 20.24 57.01 47.73 56.04z"
        fill="#d8864e" />
    <path d="m219.15 359.63a8.23 8.23 0 0 1 .66 1 4.8 4.8 0 0 0 -.66-1z" fill="#d8864e" />
    <path
        d="m142.43 445.47a21 21 0 0 0 5.57-.94c-24.3-4.06-40.9-37.56-41.8-55.65-.79-16.05 9.47-32.21 17.31-45.25 6.83-11.32 60.87-50.78 41.75-82.25-5.35-8.82-13.32-20.53-20.68-22.4-22.8-5.77-3.9-17.34 3.76-19.32.51-.13 1-.25 1.54-.36a37.2 37.2 0 0 0 -13 .91c-7.66 2-26.56 13.55-3.76 19.32 7.36 1.86 15.33 13.58 20.68 22.4 19.12 31.47-34.93 70.92-41.75 82.25-7.84 13-18.11 29.2-17.31 45.25.93 19.57 20.19 57.01 47.69 56.04z"
        fill="#b77446" />
    <path
        d="m218.41 495.38c18.87 8 20.53 16.5 35.27 9l16.09-11.17c13.06-14.24 17.94-45.72 9.69-67.27-6.4-16.71-22.84-33.19-39-37.19-10.57-2.61-16.14 5.28-23.48 10.87-8.47 6.46-16.75 13.46-21.07 24.18-9.19 22.63-5.15 59.85 22.5 71.58z"
        fill="#b77446" />
    <path
        d="m224.78 537.63c16.16-2.39 36.87-20 46.36-39.82 12-25-6.9 6.87-43.37-12.54-9.92-5.28-16.06-11.16-19.91-21.42-5.62-15 .71-27.12 8.91-37 11.17-13.41 28.44-35.27 30.22-56.5 1.93-22.93-11.74-38.3-24.68-49.05-14.17-11.76-14.58 14.3-36.09 46.63-13.08 19.66-27.05 36.06-37.08 49.4-16.44 21.85-19.15 39.83-9.21 62.8 7.42 17.19 32.57 65.21 84.85 57.5z"
        fill="#ed9254" />
    <path
        d="m211.32 539.17c-29.77-10.92-45.44-41.39-51-54.31-9.94-23-7.22-40.95 9.21-62.8 10-13.34 24-29.75 37.08-49.41 12.54-18.85 17.91-35.57 23-43.9-2.4-2.4-4.89-4.61-7.36-6.66-14.16-11.76-14.58 14.29-36.09 46.63-13.08 19.65-27 36.06-37.08 49.4-16.43 21.85-19.15 39.83-9.21 62.8 6.74 15.61 28.2 56.82 71.45 58.25z"
        fill="#d8864e" />
    <path
        d="m203.56 538.18c-34.75-8.07-52.61-42.6-58.66-56.58-9.94-23-7.22-41 9.21-62.8 10-13.34 24-29.75 37.08-49.41 16.89-25.39 20.81-46.89 28.52-49.27-12-7.08-13.51 17.81-33.78 48.28-13.08 19.66-27 36.06-37.08 49.4-16.43 21.85-19.15 39.83-9.21 62.8 6.36 14.68 25.69 51.97 63.92 57.58z"
        fill="#b77446" />
    <path
        d="m135.93 408.58c1.89-1 4.77-7.16 6-9.17 2.24-3.74 2.81-7.82 5.74-11 6.29-6.75 12.75-10.2 17.15-19 4.92-9.86 8.37-19.73 14.58-28.74s13-18.46 17.06-29.05c5.84-15.34 3.5-38.93-8.73-53.34l-5.08-7.62c-1.63-1.38-7.62-3.2-9.56-2.28-3.69 1.74-1.33 5.75-.27 9.08 2.48 7.79 5.21 15.9 5.11 23.78a74.16 74.16 0 0 1 -5.47 25.8c-3.82 9.72-13 16.86-19.48 24.12-7.23 8.1-14.93 16.15-20.68 25.62s-10.18 18.11-8.57 30.87c.69 5.73 4.45 24.84 12.2 20.93z"
        fill="#ed9254" />
    <path
        d="m245.11 484.57c5.9 1.26 12.9 1.1 18.72 2.8 3.62 1.06 7.65-1.69 11-.93 3.58-4.7 5-11.43 7.26-17.18 4.33-10.92 7.37-23.14 4.07-35.79-2.39-9.14-5.45-19.41-12.54-26.25-5.07-4.89-11.6-8.17-17.69-10.49-8.34-3.17-14.11 2.28-18.35 10-4.55 8.23-6.91 14.11-11.49 22.37-5.26 9.46-11.88 14.87-7.72 28.46 4.29 14.06 14.94 24.49 26.74 27.01z"
        fill="#d8864e" />
    <path d="m275.59 486.64-.78-.2c-.16.21-.31.41-.48.61z" fill="#d8864e" />
    <path
        d="m265.56 479.72 2.87.82c5.66 2.64 14-8.65 15.94-14.38a69.76 69.76 0 0 0 3.45-26.1c-1.82-22.93-19.82-33.72-34.82-30.06-14.86 3.59-20.14 17.83-18.21 37.93 2.29 24.29 17.02 25.14 30.77 31.79z"
        fill="#ed9254" />
    <g fill="#fecc84">
        <path
            d="m224.09 395.29c-2.07 1.1-3.05-.36-4.19-3.59s-2-6.38-.42-7.14 3.76 3 4.54 4.9 1.98 4.84.07 5.83z" />
        <path
            d="m214.08 416.92c-2.47-.43-2.64-2.11-2-5.21s1.44-6 3.25-5.6 2 4.48 1.7 6.4-.7 4.8-2.95 4.41z" />
        <path
            d="m182.63 420c-.94-2.61.42-3.17 3.41-3.28s5.91.1 6.55 2-2.82 3-4.61 3.21-4.49.43-5.35-1.93z" />
        <path
            d="m195.38 410.15c.59-2.47 2.13-2 4.89-.11s5.27 3.9 4.8 5.69-4.22.33-5.94-.72-4.29-2.61-3.75-4.86z" />
        <path
            d="m211.65 397.06c.87 2.63-.51 3.14-3.53 3.14s-5.92-.32-6.52-2.25 2.93-2.92 4.74-3 4.52-.29 5.31 2.11z" />
        <path
            d="m202.57 435.81c-1.4 1.93-2.76.91-4.89-1.81s-4-5.48-2.89-6.86 4.3 1.35 5.66 2.93 3.39 3.93 2.12 5.74z" />
        <path
            d="m192.56 272.77c-1.35 2-2.73 1-4.9-1.7s-4-5.41-3-6.83 4.31 1.27 5.69 2.82 3.45 3.94 2.21 5.71z" />
        <path
            d="m192.06 298.38c-2.26.67-3-.91-3.68-4.22s-1-6.48.7-6.92 3.34 3.54 3.83 5.54 1.22 4.99-.85 5.6z" />
        <path
            d="m166.38 315.16c-1.77-2.15-.82-3.29 1.69-4.71s5.07-2.49 6.34-.88-1.28 4.22-2.74 5.17-3.67 2.39-5.29.42z" />
        <path
            d="m173.6 299.92c-.41-2.68 1.08-2.87 4.13-2.24s5.94 1.52 6.2 3.48-3.47 2.17-5.32 1.9-4.61-.69-5.01-3.14z" />
        <path
            d="m177.78 329.06c2.47.46 2.61 2.14 2 5.23s-1.52 5.92-3.33 5.53-1.91-4.5-1.62-6.41.69-4.77 2.95-4.35z" />
        <path
            d="m156.92 334.79c-1.77-2.15-.82-3.29 1.69-4.72s5.06-2.5 6.33-.9-1.27 4.23-2.73 5.19-3.66 2.39-5.29.43z" />
        <path
            d="m171.52 351c2.45.12 2.79 1.8 2.54 5s-.78 6.2-2.58 6.07-2.4-4.29-2.34-6.27.13-4.96 2.38-4.8z" />
        <path
            d="m154.52 347.06c-.42-2.68 1.07-2.88 4.12-2.25s6 1.53 6.21 3.49-3.48 2.17-5.33 1.9-4.63-.69-5-3.14z" />
        <path
            d="m164.36 365.77c2.47.46 2.62 2.14 2 5.23s-1.52 5.91-3.33 5.53-1.92-4.51-1.63-6.41.71-4.78 2.96-4.35z" />
        <path
            d="m143.51 371.49c-1.78-2.14-.83-3.29 1.68-4.72s5.07-2.5 6.34-.89-1.27 4.22-2.74 5.18-3.66 2.39-5.28.43z" />
        <path
            d="m141.1 383.76c-.41-2.68 1.08-2.87 4.13-2.25s5.94 1.53 6.2 3.49-3.47 2.17-5.32 1.9-4.63-.69-5.01-3.14z" />
        <path
            d="m158.15 387.56c-2.39.27-3-1.37-3.14-4.67s-.1-6.41 1.66-6.57 2.9 4 3.12 6 .54 4.99-1.64 5.24z" />
        <path
            d="m135.57 388.32c2.38-.29 3 1.35 3.17 4.66s.15 6.41-1.61 6.58-2.92-3.94-3.15-5.95-.58-5.02 1.59-5.29z" />
        <path
            d="m157.21 400.05c1.26 2.49 0 3.27-2.86 3.85s-5.72.83-6.6-1 2.32-3.52 4-4 4.31-1.13 5.46 1.15z" />
        <path
            d="m138.27 414.12c1.26 2.49 0 3.27-2.87 3.85s-5.71.83-6.6-1 2.32-3.52 4-4 4.32-1.13 5.47 1.15z" />
        <path
            d="m159.06 357.07c2.44.78 2.4 2.44 1.4 5.35s-2.22 5.55-4 4.93-1.43-4.63-.92-6.45 1.28-4.54 3.52-3.83z" />
        <path
            d="m113.21 289.5c2.45.79 2.4 2.44 1.4 5.36s-2.21 5.55-4 4.93-1.43-4.64-.92-6.46 1.31-4.54 3.52-3.83z" />
        <path
            d="m119.22 320.68c.18 2.67-1.34 2.7-4.37 1.76s-5.88-2.12-6-4.07 3.71-1.76 5.55-1.29 4.66 1.16 4.82 3.6z" />
        <path
            d="m102.79 321.87c.17 2.67-1.35 2.7-4.38 1.76s-5.87-2.12-6-4.08 3.71-1.75 5.56-1.29 4.65 1.17 4.82 3.61z" />
        <path
            d="m104.64 333.88c2 1.92 1.21 3.22-1.06 5s-4.6 3.27-6 1.83.71-4.46 2-5.64 3.25-2.94 5.06-1.19z" />
        <path
            d="m147.54 282.4c2.46.54 2.56 2.21 1.83 5.26s-1.7 5.84-3.5 5.39-1.8-4.54-1.45-6.43.86-4.72 3.12-4.22z" />
        <path
            d="m108.39 283.91c-2.42-1-2.27-2.58-1.07-5.39s2.59-5.3 4.36-4.55 1.14 4.68.5 6.43-1.58 4.39-3.79 3.51z" />
        <path
            d="m179.79 351.8c-1.87-2.06-1-3.27 1.44-4.85s4.88-2.81 6.22-1.27-1 4.33-2.45 5.38-3.51 2.63-5.21.74z" />
        <path
            d="m194 321.06c-2.42-1-2.26-2.6-1.05-5.39s2.63-5.29 4.39-4.53 1.12 4.69.47 6.43-1.58 4.43-3.81 3.49z" />
        <path
            d="m182.62 280c1.72 2.2.72 3.3-1.85 4.62s-5.17 2.29-6.39.65 1.41-4.15 2.91-5 3.76-2.33 5.33-.27z" />
        <path
            d="m189.26 322c-.47 2.52-2 2.11-4.84.37s-5.4-3.65-5-5.48 4.16-.55 5.91.41 4.36 2.37 3.93 4.7z" />
        <path
            d="m185.16 445.81c-2.39-1.08-2.16-2.69-.81-5.39s2.87-5.11 4.61-4.27.92 4.7.19 6.41-1.81 4.25-3.99 3.25z" />
        <path
            d="m169 438.08c-.84-2.63.56-3.12 3.58-3.07s5.93.4 6.5 2.34-3 2.87-4.78 2.95-4.51.19-5.3-2.22z" />
        <path
            d="m174 453.2c-.83-2.63.56-3.12 3.58-3.07s5.93.4 6.5 2.34-3 2.87-4.78 2.95-4.53.19-5.3-2.22z" />
        <path
            d="m199.69 468.1c.21 2.67-1.31 2.73-4.34 1.83s-5.89-2.06-6-4 3.69-1.81 5.54-1.37 4.61 1.1 4.8 3.54z" />
        <path
            d="m181 460.58c2.1 1.77 1.42 3.14-.68 5.15s-4.29 3.69-5.8 2.36.38-4.56 1.58-5.87 3.03-3.22 4.9-1.64z" />
        <path
            d="m192 478.49c.58 2.67-.87 3-3.92 2.59s-6-1.08-6.35-3 3.28-2.46 5.12-2.33 4.56.25 5.15 2.74z" />
        <path
            d="m170.83 471.21c2.47.36 2.68 2.05 2.15 5.18s-1.31 6-3.12 5.69-2.06-4.44-1.84-6.38.56-4.82 2.81-4.49z" />
        <path
            d="m143.1 347.76c-2.39-1.08-2.16-2.69-.82-5.39s2.87-5.11 4.61-4.27.92 4.7.2 6.4-1.81 4.26-3.99 3.26z" />
        <path
            d="m132 355.15c-.84-2.63.55-3.12 3.57-3.07s5.94.4 6.51 2.34-3 2.87-4.79 2.95-4.58.19-5.29-2.22z" />
        <path
            d="m139 362.53c2.09 1.76 1.42 3.14-.68 5.16s-4.3 3.68-5.81 2.35.38-4.56 1.58-5.87 2.98-3.26 4.91-1.64z" />
        <path
            d="m128.77 373.16c2.47.36 2.67 2 2.14 5.18s-1.31 6-3.12 5.69-2.06-4.44-1.83-6.38.55-4.82 2.81-4.49z" />
        <path
            d="m95.52 296.12c-1.78-2.14-.83-3.29 1.69-4.71s5.06-2.5 6.33-.9-1.27 4.22-2.73 5.18-3.67 2.4-5.29.43z" />
        <path
            d="m93.11 308.39c-.41-2.68 1.08-2.87 4.13-2.24s6 1.52 6.21 3.49-3.48 2.17-5.33 1.89-4.63-.69-5.01-3.14z" />
        <path
            d="m95.11 272.39c-2.39-1.08-2.16-2.69-.82-5.39s2.88-5.11 4.62-4.27.92 4.71.19 6.41-1.81 4.25-3.99 3.25z" />
        <path
            d="m84 279.78c-.84-2.63.56-3.12 3.58-3.07s5.93.4 6.5 2.34-3 2.87-4.78 2.95-4.58.19-5.3-2.22z" />
        <path
            d="m91 287.16c2.09 1.77 1.42 3.14-.68 5.16s-4.32 3.68-5.82 2.35.38-4.56 1.58-5.87 3-3.26 4.92-1.64z" />
        <path
            d="m80.78 297.79c2.47.37 2.67 2 2.14 5.18s-1.31 6-3.12 5.7-2.06-4.45-1.83-6.38.56-4.83 2.81-4.5z" />
        <path
            d="m123.89 275.33c1.91 2 1.06 3.26-1.3 4.92s-4.79 3-6.16 1.48.93-4.38 2.3-5.48 3.41-2.75 5.16-.92z" />
        <path
            d="m125.32 262.73c.62 2.67-.83 3-3.88 2.64s-6-1-6.37-3 3.25-2.5 5.09-2.39 4.61.31 5.16 2.75z" />
        <path
            d="m113.79 310.14c-1.51 1.83-2.83.73-4.83-2.09s-3.68-5.67-2.54-7 4.26 1.62 5.54 3.27 3.21 4.15 1.83 5.82z" />
        <path
            d="m126.1 299.26c2.43.89 2.33 2.53 1.21 5.38s-2.43 5.41-4.21 4.72-1.26-4.67-.68-6.45 1.46-4.46 3.68-3.65z" />
        <path
            d="m136.51 290.8c1 2.59-.32 3.2-3.29 3.42s-5.87.13-6.58-1.78 2.71-3.16 4.49-3.4 4.44-.61 5.38 1.76z" />
        <path
            d="m129 284c-2.2-1.6-1.64-3.05.27-5.27s3.95-4.11 5.54-2.9 0 4.65-1.11 6.07-2.7 3.54-4.7 2.1z" />
        <path
            d="m138.26 272.33c-2.46-.15-2.78-1.83-2.5-5s.83-6.19 2.63-6 2.37 4.3 2.29 6.27-.18 4.86-2.42 4.73z" />
        <path
            d="m199.73 481.81c2.47.37 2.67 2.05 2.14 5.18s-1.31 6-3.12 5.7-2.06-4.45-1.84-6.38.56-4.83 2.82-4.5z" />
        <path
            d="m213.29 499.56c2.47.37 2.68 2.05 2.15 5.18s-1.31 6-3.12 5.7-2.06-4.45-1.84-6.38.52-4.83 2.81-4.5z" />
        <path
            d="m237.65 504.1c.51 2.68-1 2.94-4 2.43s-6-1.29-6.29-3.26 3.38-2.32 5.23-2.12 4.6.5 5.06 2.95z" />
        <path
            d="m179.76 490.72c0-2.65 1.54-2.56 4.53-1.4s5.79 2.55 5.75 4.48-3.86 1.45-5.69.85-4.58-1.51-4.59-3.93z" />
        <path
            d="m197.32 501.57c2.27-.63 3 .95 3.64 4.26s.92 6.48-.77 6.9-3.31-3.57-3.78-5.57-1.17-5 .91-5.59z" />
        <path
            d="m192.15 455.52c-2.39-1.09-2.16-2.69-.82-5.4s2.88-5.1 4.61-4.26.92 4.7.2 6.4-1.81 4.25-3.99 3.26z" />
        <path
            d="m239.77 450.3c-.83-2.64.56-3.12 3.58-3.07s5.94.4 6.5 2.34-3 2.87-4.78 2.95-4.54.19-5.3-2.22z" />
        <path
            d="m274 457.85c-2.47-.34-2.69-2-2.2-5.16s1.24-6 3.05-5.75 2.11 4.42 1.91 6.36-.49 4.85-2.76 4.55z" />
        <path
            d="m244.75 465.42c-.83-2.64.56-3.12 3.58-3.07s5.94.4 6.51 2.34-3 2.86-4.79 2.94-4.53.2-5.3-2.21z" />
        <path
            d="m260.62 432.86c-2.45-.13-2.79-1.81-2.52-5s.79-6.2 2.6-6.06 2.38 4.3 2.32 6.27-.16 4.93-2.4 4.79z" />
        <path
            d="m262.89 467.73c-2.39-1.08-2.16-2.69-.81-5.39s2.87-5.11 4.61-4.27.92 4.71.19 6.41-1.81 4.25-3.99 3.25z" />
        <path
            d="m269.53 441.54c-2.39-1.09-2.16-2.69-.81-5.4s2.87-5.1 4.61-4.26.92 4.7.19 6.4-1.81 4.25-3.99 3.26z" />
        <path
            d="m255.12 463.84c-2.46-.19-2.77-1.88-2.43-5.07s.93-6.16 2.73-6 2.31 4.34 2.2 6.3-.26 4.93-2.5 4.77z" />
        <path
            d="m267.36 451.94c-1.52 1.83-2.84.73-4.83-2.1s-3.68-5.68-2.53-7 4.26 1.62 5.54 3.28 3.2 4.15 1.82 5.82z" />
        <path
            d="m257 434.16c.75 2.66-.66 3.08-3.7 2.91s-5.95-.64-6.46-2.59 3.09-2.73 4.91-2.73 4.55-.01 5.25 2.41z" />
    </g>
    <path
        d="m337.5 369.58c9.22 7.13 8.85 14.53 19.66 24.58 1.28 1.18-2.47 2.93-3.15 4.53-1 2.27-6-1.21-8.46-1.17a17.87 17.87 0 0 1 -7.11-1.86c-12.42-5.32-30.72-13.8-37.36-26.31-1.65-3.13-13.68-22.26-9.12-22.33 13-.22 21.41 13.2 25.16 14.94 8.18 3.78 10.88.29 20.38 7.62z"
        fill="#ad3e3b" />
    <path
        d="m316.41 377.94c-13.91-9-17.83-42.32-47.78-36.11s-61.56 53.46-63.48 82.17 25.79 55.22 46.14 69.15c23.77 16.26 66.94 28.65 97.15-7.74 26.43-31.84 38.36-68 10-90.26-17.27-13.59-19.23-2.39-42.03-17.21z"
        fill="#d34d46" />
    <path
        d="m371.64 411.82c-2.5 16.08-12.21 33.45-25.71 49.71-30.21 36.4-73.39 24-97.15 7.74-15.62-10.69-35.57-28.79-43.14-49.61-.23 1.49-.39 2.93-.49 4.34-1.91 28.7 25.79 55.22 46.14 69.15 23.77 16.26 66.94 28.65 97.15-7.74 20.56-24.78 32.36-52.15 23.2-73.59z"
        fill="#ad3e3b" />
    <path
        d="m266.88 362a37.06 37.06 0 0 0 -18.79 12.41c-2.85 3.42-5.22 7.44-5.63 11.87s1.55 9.28 5.53 11.27a6 6 0 0 0 3.3.71 9.1 9.1 0 0 0 4.25-2.12c6.06-4.49 12.46-9.1 19.92-10.19 3.57-.52 7.22-.2 10.77-.84s7.19-2.57 8.43-5.95c1.91-5.22-2.71-12.07-6.91-14.84-5.75-3.85-14.39-4.06-20.87-2.32z"
        fill="#fff" opacity=".27" />
    <path
        d="m240.79 402.24c-2.66-1.9-6.75-.88-8.67 1.78a9 9 0 0 0 -.24 9.31 5.46 5.46 0 0 0 3.9 3.12 5.54 5.54 0 0 0 3.52-1.1 9.89 9.89 0 0 0 4.15-5.41 7 7 0 0 0 -1.41-6.51z"
        fill="#fff" opacity=".27" />
    <path
        d="m312.92 375s14-15.42 22.83-21.48 27.25-12.15 27.25-12.15l3.69 7.67s-14.18 1.34-25.84 8.75c-8.15 5.18-24.43 20.15-24.43 20.15z"
        fill="#60443e" />
    <path
        d="m340.84 357.79s25.28-3.44 39.9 7.07a131.75 131.75 0 0 1 30.61 31s-26.22 9.07-43.57-.13-32.57-33.88-32.57-33.88z"
        fill="#436b49" />
    <path
        d="m369 368.79a1.75 1.75 0 0 0 -1 .48 1.85 1.85 0 0 0 -.22 1.51 8.06 8.06 0 0 0 3.13 4.59 32 32 0 0 0 4.83 2.81 49.85 49.85 0 0 1 10.67 7.66 14.91 14.91 0 0 0 3.66 2.87c4.29 2 5-2.83 4.2-6.12-.77-3.06-2.82-4.5-5.31-6.2-5.85-3.98-13.18-9.16-19.96-7.6z"
        fill="#fff" opacity=".27" />
    <path
        d="m624.46 383.58c-4.83-9-10.1-16.34-9.9-24.28.41-16.35 16-57.32 16-57.32l-44.94-17.4s-16.11 40.74-26.81 53.11c-5.21 6-14 7.86-23.68 11.27-18.38 5.98-180.37 346.04-180.37 346.04l-14.76 38s-10.18 26.28 13.67 34.7c21 7.4 24.06-13.14 34.91-8.38s4.54 10.54 9.37 19.53c5.65 10.52 27 18.78 38.23 14.81 9.63-3.39 8.85-11.91 20.08-8.13s-.3 21.07 20.16 29.71c23.3 9.84 33.48-16.44 33.48-16.44l14.73-38s109.37-360.46 99.83-377.22z"
        fill="#9ed2f2" />
    <path
        d="m481.18 803.1c-20.47-8.65-8.93-25.93-20.16-29.71s-10.46 4.73-20.08 8.13c-11.25 4-32.59-4.29-38.23-14.81-4.83-9 1.48-14.76-9.37-19.53s-14 15.77-34.91 8.38c-23.85-8.42-13.68-34.7-13.68-34.7l-4.75 12.14s-10.18 26.28 13.67 34.7c21 7.4 24.06-13.14 34.91-8.38s4.54 10.54 9.37 19.53c5.65 10.52 27 18.78 38.23 14.81 9.63-3.39 8.85-11.91 20.08-8.13s-.3 21.07 20.16 29.71c23.3 9.84 33.48-16.44 33.48-16.44l4.72-12.18s-10.14 26.32-33.44 16.48z"
        fill="#88b4d3" />
    <path
        d="m624.46 383.58c-4.83-9-10.1-16.34-9.9-24.28.41-16.35 16-57.32 16-57.32l-19.76-7.65s-15.53 41-16 57.32c-.2 7.94 5.08 15.26 9.91 24.28 9.52 16.76-99.8 377.24-99.8 377.24l-14.72 38s-6.83 17.62-22.1 18.6a24.58 24.58 0 0 0 8.37 5.49c23.3 9.84 33.48-16.44 33.48-16.44l14.73-38s109.33-360.48 99.79-377.24z"
        fill="#88b4d3" />
    <path
        d="m625.92 316.69-46.86-18.15a7.18 7.18 0 0 1 -4.1-9.29l9.22-23.81a7.18 7.18 0 0 1 9.29-4.1l46.85 18.14a7.19 7.19 0 0 1 4.11 9.29l-9.23 23.81a7.18 7.18 0 0 1 -9.28 4.11z"
        fill="#304298" />
    <path
        d="m625.37 326.3-51.83-20.08a2.53 2.53 0 0 1 -1.45-3.27l.31-.8a2.53 2.53 0 0 1 3.27-1.44l51.83 20.07a2.53 2.53 0 0 1 1.45 3.27l-.31.8a2.54 2.54 0 0 1 -3.27 1.45z"
        fill="#304298" />
    <path d="m583.65 265.79h4.41v34.14h-4.41z" fill="#223466"
        transform="matrix(.93257604 .3609736 -.3609736 .93257604 141.6 -192.4)" />
    <path d="m592.54 269.24h4.41v34.14h-4.41z" fill="#223466"
        transform="matrix(.93251302 .36113636 -.36113636 .93251302 143.56 -195.49)" />
    <path d="m602.74 273.19h4.41v34.14h-4.41z" fill="#223466"
        transform="matrix(.93251302 .36113636 -.36113636 .93251302 145.66 -198.89)" />
    <path d="m612.62 277.01h4.41v34.14h-4.41z" fill="#223466"
        transform="matrix(.93251302 .36113636 -.36113636 .93251302 147.7 -202.19)" />
    <path d="m621.67 280.52h4.41v34.14h-4.41z" fill="#223466"
        transform="matrix(.93251302 .36113636 -.36113636 .93251302 149.58 -205.23)" />
    <path d="m628.92 283.33h4.41v34.14h-4.41z" fill="#223466"
        transform="matrix(.93251302 .36113636 -.36113636 .93251302 151.08 -207.65)" />
    <path
        d="m640.08 283.46-49.46-19.15a1.29 1.29 0 0 1 -.73-1.67 1.29 1.29 0 0 1 1.66-.74l49.45 19.16a1.29 1.29 0 0 1 .74 1.66 1.31 1.31 0 0 1 -1.66.74z"
        fill="#405cc6" />
    <path
        d="m570.87 334.4c-2.64 5.36-6.09 10.55-11.09 13.83-2.26 1.48-4.78 2.54-6.93 4.18s-3.93 4.08-3.83 6.77c.16 4.41 5.48 7.16 9.79 6.21s7.59-4.38 10.32-7.83a110 110 0 0 0 14.75-25.64c1.3-3.08 5.2-16.41-2.21-16.59-4.92-.13-8.97 15.35-10.8 19.07z"
        fill="#fff" opacity=".58" />
    <path
        d="m409.62 760.24c-.44 3.81-.46 8.41 2 9.13 1.47.43 3.36-.86 4.74-2.67a29.58 29.58 0 0 0 3.34-6.25c3.53-8.07 12.43-24.5 2.37-25-9.07-.37-11.41 15.91-12.45 24.79z"
        fill="#fff" opacity=".58" />
    <path d="m468.49 462.87-59.32 119.77 150.97 58.47 36.67-130.36z" fill="#304298" />
    <path d="m461.29 477.39 130.93 50.71-3.21 11.6-133.05-51.53z" fill="#5974aa" />
    <path d="m420.97 558.8 146.57 56.76-4.61 15.65-149.04-57.72z" fill="#5974aa" />
    <path
        d="m538.75 379.92c-5.09-.9-8.6.06-17.5 19.95s-131.84 269-134.65 274.74c-4 8.2-5.39 21.7 2.64 26.08 7.5 4.1 15.24 5.85 24.69-13.21s120.28-272.84 124.07-281.26 9.58-24.74.75-26.3z"
        fill="#fff" opacity=".58" />
    <path
        d="m351.88 737.88c-.25 3.88.05 8.61 3 9.52 1.78.55 3.91-.65 5.42-2.4a25.2 25.2 0 0 0 3.51-6.19c3.6-8 13-24.3 1-25.48-10.68-1.06-12.33 15.5-12.93 24.55z"
        fill="#fff" opacity=".58" />
    <path
        d="m2.89 737.48c-8.41 81.07 3.11 162.74 14.56 243.44 2.65 18.65 5.93 38.64 19 52.19 17.17 17.75 44.93 18.42 69.62 17.91l534.93-11.12c16.54-.34 36.85-3.21 42.63-18.71 4.42-11.87-2.5-24.6-8.06-36a183 183 0 0 1 -17.58-62c-4.19-42.13 6.31-84.12 11.86-126.1a542.94 542.94 0 0 0 -4.11-168.2c-13.74-75.33-43.59-149.22-38.36-225.62-28.07 14.93-59.59 22-90.91 27.45a1012 1012 0 0 1 -284.42 8.77c-32.18-3.57-64.55-8.78-94.43-21.26-16-6.68-31.34-15.54-44.53-26.85-11.34-9.73-20.4-30.15-33-13.76-7.73 10.05-5.21 46.76-7.52 60.13-3.38 19.68-7.76 39.18-12.57 58.55-19.89 80.15-48.55 158.6-57.11 241.18z"
        fill="#e3d8c6" />
    <path
        d="m675.52 985.19a183 183 0 0 1 -17.58-62c-4.19-42.13 6.31-84.12 11.86-126.1a542.94 542.94 0 0 0 -4.11-168.2c-13.69-75.33-43.54-149.22-38.31-225.62-23.63 12.56-49.7 19.57-76 24.72 6.86 56.42 26.14 112 36.42 168.37a543.3 543.3 0 0 1 4.1 168.21c-5.55 42-16 84-11.86 126.1a183.14 183.14 0 0 0 17.59 62c5.55 11.39 12.48 24.12 8 36-5.77 15.5-26.08 18.36-42.62 18.71l-534.84 11.11h-1.49a52.42 52.42 0 0 0 9.8 14.6c17.17 17.75 44.93 18.42 69.62 17.91l534.9-11.1c16.54-.34 36.85-3.21 42.63-18.71 4.37-11.87-2.55-24.6-8.11-36z"
        fill="#c9c0b1" />
    <path
        d="m657.87 922.76a217.3 217.3 0 0 1 -.76-31.13c-1 0-2 .09-3 .19-10.7 1-20.88 5-31.45 7-16.31 3.06-33.08 1.21-49.63 0-130.03-9.19-258.88 24.24-388.76 35.18-36.27 3.07-73.27 4-109.27-2-20.75-3.46-44.23-14.9-66.21-13.5 2.66 21 5.66 42 8.66 62.87 2.68 18.65 6 38.63 19.11 52.16 17.2 17.72 44.95 18.36 69.65 17.81l534.83-11.87c16.53-.37 36.84-3.27 42.6-18.77 4.41-11.89-2.54-24.61-8.11-36a183.09 183.09 0 0 1 -17.66-61.94z"
        fill="#f7a037" />
    <path
        d="m675.52 985.37a183.13 183.13 0 0 1 -16.79-55.37q-.5-3.53-.86-7a217.33 217.33 0 0 1 -.75-31.13q-1.5 0-3 .18c-10.7 1-20.88 5-31.45 7-13.66 2.56-27.65 1.67-41.57.63a183.42 183.42 0 0 0 16.49 53.22c5.56 11.39 12.48 24.12 8.06 36-5.78 15.5-26.09 18.36-42.63 18.71l-534.85 11.05h-1.48a52.2 52.2 0 0 0 9.79 14.59c17.18 17.75 44.93 18.43 69.63 17.92l242.45-5 292.49-6.5c16.54-.36 36.85-3.26 42.6-18.77a21.81 21.81 0 0 0 1.13-4.39c1.37-10.44-4.45-21.29-9.26-31.14z"
        fill="#dd8c33" />
    <path
        d="m201.4 662.13c13.2 26.86 18.06 56.54 23.18 85.73s10.81 58.84 25.43 85 39.76 48.84 70.76 54.13c18 3.07 36.43.18 54.57-1.87a590.12 590.12 0 0 1 69.45-3.72c22.64.12 49 0 62.86-16.86 7.77-9.48 9.37-22.09 10.08-34a349.48 349.48 0 0 0 -2-63.45l-26.48 19.8a20.2 20.2 0 0 0 -4.79 4.46c-1.74 2.53-2.14 5.65-2.46 8.64-1.6 15-2.8 31.22-13.07 42.83-9.18 10.37-23.79 14.86-37.82 17.8a289.81 289.81 0 0 1 -98.56 3.45c-12.82-1.76-25.76-4.47-36.91-10.66-20.13-11.16-31.9-32.32-37.16-53.71s-5-43.57-6.93-65.44c-.94-10.7-2.59-21.82-9.11-30.63s-19.34-14.41-29.74-10z"
        fill="#c9c0b1" />
    <path
        d="m233 601.49c2.62-18.49 6.22-36.93 6.53-55.6.61-37.53-12-73.85-24.47-109.25 8.21.22 17.07.68 23.45 5.86 7.17 5.81 9 15.8 10.45 24.93 9.58 62.3 19.07 126.73 3 187.68-6.14 23.26-16 47.44-9.32 70.55-2.58-8.94-13-17.92-16.42-27.65-3.23-9.24-4.49-17.76-2.45-27.28 4.92-22.89 5.95-45.95 9.23-69.24z"
        fill="#c9c0b1" />
    <path
        d="m491.91 625.82a330.9 330.9 0 0 1 17.59 202.73c-.41 1.77-.9 3.64-2.22 4.87-3 2.82-8 .59-10.95-2.28-12.19-11.79-13.17-30.74-12.67-47.69q.81-28.23 4.1-56.32c1.9-16.21 4.41-32.68 1.46-48.72-2.25-12.29-7.6-23.74-11.75-35.52-10.86-30.83-13.5-63.85-16-96.44-.4-5-.27-10 4-12.73 6.85 9.61 3.18 28.95 6.11 40.6 4.47 17.94 13.13 34.56 20.33 51.5z"
        fill="#c9c0b1" />
    <path
        d="m248.78 764.12c12.27 16.68 26.94 31.84 44.52 42.77 15.56 9.67 33.05 15.82 50.78 20.42 26.69 6.94 54.76 10.52 81.9 5.59s53.35-19.14 68.68-42.07c19.35-29 18.86-67 11.08-100.93s-22.06-66.22-28.28-100.48c-9.09-50-.6-101.13 9.69-151.14q-17.23 2.12-34.51 3.65a400.5 400.5 0 0 0 3.68 194.53c8 29.52 19.5 58.23 24.09 88.47 1.87 12.26 2.5 25.23-2.37 36.63-7.64 17.85-26.83 27.72-45.36 33.54-27.6 8.67-57.43 11.51-85.61 5s-54.53-23-70.27-47.21c-7.83-12.08-12.9-25.7-19.23-38.63-5.65-11.54-12.33-22.56-17.69-34.24-8.92-19.4-14.08-40.34-17.28-61.45-9.75-64.16 2.28-120.32 20.53-179.86-9.67-1.17-19.33-2.55-28.92-4.27-5.58 14.85-7.29 34.9-9.15 45.38-6.77 38.07-10.93 76.75-9.63 115.46 2.02 59.88 17.82 120.58 53.35 168.84z"
        fill="#f7a037" />
    <path
        d="m90.88 524.51c.29 23.41-6.06 46.6-16.2 67.7-10.84 22.55-26.15 43.45-31.25 67.94s4.64 54.93 28.68 61.85c16.84 4.85 35.54-3.89 46.12-17.86s14.21-32.1 14.43-49.63c.17-14-1.61-28.24 1.73-41.84 3.72-15.12 13.38-28 20.64-41.73 19.05-36.1 22.71-92.7-14.66-119.41-14-10-29.72-10.31-41.21 3.43-16.1 19.28-8.56 46.87-8.28 69.55z"
        fill="#fff" opacity=".37" />
    <path
        d="m35.43 756.56c-5.87 7.58-5.82 18.06-5.26 27.64a562.14 562.14 0 0 0 24.66 135.34c4.06 12.93 8.74 26 17.11 36.63s21.06 18.72 34.63 18.33c1.89 0 4-.36 5.23-1.79s1.29-3.42 1.24-5.27c-.44-18.72-5.75-37.11-5.8-55.83-.06-20.8 6.34-41 11.36-61.18s8.67-41.56 3.17-61.62c-8.03-29.3-60.77-65.21-86.34-32.25z"
        fill="#fff" opacity=".37" />
    <path
        d="m544.18 830.94c-3.78 5-7.78 10-9.61 16s-1 13.26 3.85 17.27c2.7 2.25 6.22 3.18 9.63 4.06l38.14 9.73c4.35 1.12 9 2.22 13.23.58a18.79 18.79 0 0 0 6.19-4.53c19.66-19.72 25.82-49.34 25.76-77.19 0-13.94 7.6-97.53-21.68-76-10.2 7.49-29.89 51.67-35.78 63a326.58 326.58 0 0 1 -29.73 47.08z"
        fill="#c9c0b1" />
    <path
        d="m323.29 265.42a24.88 24.88 0 0 1 3.61 3.64c1.14 1.4 2.2 2.77 3.2 4.11a6.56 6.56 0 0 1 1.16-1.06 6.2 6.2 0 0 1 1.33-.76 3.23 3.23 0 0 1 1.33-.27 1.83 1.83 0 0 1 1.18.42 2.23 2.23 0 0 1 .45.52 3.76 3.76 0 0 1 .41.77 2.09 2.09 0 0 1 .16.86 1.19 1.19 0 0 1 -.28.79l-2.47 3a.76.76 0 0 0 -.1.89 5.89 5.89 0 0 0 .54.85c.71.91 1.32 1.71 1.83 2.41l1.27 1.77c.35.48.63.87.86 1.17a3.48 3.48 0 0 0 .59.64c.19.16.39.31.58.44s.45.33.77.58l.23.19q.18.15.45.42a5.84 5.84 0 0 1 .66.9 2.76 2.76 0 0 1 .41 1.16 1.81 1.81 0 0 1 -.48 1.38 2.64 2.64 0 0 1 -1.09.84 2.73 2.73 0 0 1 -1.23.17 4 4 0 0 1 -1.27-.35 5.39 5.39 0 0 1 -1.15-.71 5.48 5.48 0 0 1 -.93-.94l-5-6.81q-.8 1.38-1.38 2.49l-1.19 2.2c-.42.8-.78 1.51-1.07 2.12l-.76 1.55-.54 1.08a3.63 3.63 0 0 1 -.43.69 6 6 0 0 1 -.65.69 3 3 0 0 1 -.73.51 1.67 1.67 0 0 1 -.76.15 1.42 1.42 0 0 1 -.81-.36 2.73 2.73 0 0 1 -.79-1 3.33 3.33 0 0 1 -.27-1.15 3.69 3.69 0 0 1 .13-1.18 5.45 5.45 0 0 1 .41-1.09c.15-.28.34-.65.56-1.1s.47-1 .74-1.52.54-1.12.83-1.71l.81-1.75 1-2.15c.28-.59.53-1.08.75-1.48s.41-.72.56-1a4.5 4.5 0 0 1 .39-.57c-.63-1-1.28-1.93-1.94-2.81s-1.29-1.7-1.89-2.43-1.16-1.35-1.67-1.88a14.66 14.66 0 0 0 -1.25-1.18 7.39 7.39 0 0 0 -1.26-.83 3.39 3.39 0 0 0 -1.28-.4 2.45 2.45 0 0 0 -1.24.21 3.29 3.29 0 0 0 -1.19 1 6.08 6.08 0 0 0 -1.26 2.89 15 15 0 0 0 -.12 3.57 26.81 26.81 0 0 0 .59 3.79c.29 1.28.59 2.48.88 3.6a1 1 0 0 1 -.16 1 2.25 2.25 0 0 1 -.31.3 1.73 1.73 0 0 1 -.47.24 1.39 1.39 0 0 1 -.54.07 1 1 0 0 1 -.53-.23 1.46 1.46 0 0 1 -.25-.24 16.06 16.06 0 0 1 -1.92-3.42c-.53-1.27-1.06-2.56-1.59-3.86a6.67 6.67 0 0 1 -.39-1.51 15.57 15.57 0 0 1 -.14-1.71 17.44 17.44 0 0 1 0-1.77q.06-.89.15-1.65a7 7 0 0 1 .78-2.49 12.54 12.54 0 0 1 1.4-2.14 7.89 7.89 0 0 1 2.66-2.19 7.35 7.35 0 0 1 3-.75 8.27 8.27 0 0 1 3.11.55 10.71 10.71 0 0 1 3.01 1.83z"
        fill="#93746c" />
    <path
        d="m308 287.77a3.41 3.41 0 0 1 1.24 1.87 3.19 3.19 0 0 1 -.22 2.12c.2.43.44 1.06.73 1.87a28.64 28.64 0 0 1 .8 2.79 31.4 31.4 0 0 1 .58 3.39 19.51 19.51 0 0 1 .07 3.67 15.43 15.43 0 0 1 -.73 3.66 10.49 10.49 0 0 1 -1.85 3.34 9.47 9.47 0 0 1 -2.18 2 5.79 5.79 0 0 1 -2.19.9 4.61 4.61 0 0 1 -2.12-.15 5.62 5.62 0 0 1 -2-1.05 6.65 6.65 0 0 1 -1.31-1.4 6.57 6.57 0 0 1 -1.27-3 11.94 11.94 0 0 1 0-3.38 17.32 17.32 0 0 1 .87-3.51 36.69 36.69 0 0 1 1.44-3.39 34.55 34.55 0 0 1 1.66-3c.57-.94 1.08-1.74 1.52-2.41a6.08 6.08 0 0 0 -.74-1.19 6.57 6.57 0 0 0 -1.1-1.13 3 3 0 0 0 -2.89-.62 6.39 6.39 0 0 0 -3.06 2.29 11 11 0 0 0 -1.42 2.24 14.66 14.66 0 0 0 -.89 2.35 20.4 20.4 0 0 0 -.52 2.3c-.12.76-.21 1.46-.27 2.12a19.74 19.74 0 0 1 -.34 2.3 3.76 3.76 0 0 1 -.69 1.61c-.3.38-.59.54-.87.49a1.51 1.51 0 0 1 -.73-.32l-.34-.3a3.12 3.12 0 0 1 -.26-.27 4.82 4.82 0 0 1 -.81-1.41 4.65 4.65 0 0 1 -.32-1.69 19.87 19.87 0 0 1 1.28-7 22.18 22.18 0 0 1 3.5-5.94q.45-.54 1.11-1.23a13.29 13.29 0 0 1 1.52-1.31 10 10 0 0 1 1.86-1.09 6.43 6.43 0 0 1 2.13-.54 6.35 6.35 0 0 1 2.36.29 8 8 0 0 1 2.55 1.45 13.93 13.93 0 0 1 2.14 2.23 1.38 1.38 0 0 1 .76-.31 1.33 1.33 0 0 1 1 .36zm-5.24 19.31a.74.74 0 0 0 .17.21 2.61 2.61 0 0 1 .2.17 1.36 1.36 0 0 0 1.29.29 2.47 2.47 0 0 0 1.19-.84 5.28 5.28 0 0 0 1.07-2.39 11.38 11.38 0 0 0 .17-2.87 15 15 0 0 0 -.45-2.88 15.25 15.25 0 0 0 -.8-2.33 29.94 29.94 0 0 0 -2 3.35 15.59 15.59 0 0 0 -1.15 3 7.8 7.8 0 0 0 -.28 2.48 3.47 3.47 0 0 0 .56 1.81z"
        fill="#93746c" />
    <path
        d="m272.34 315.77a10.81 10.81 0 0 1 1.45 1.44 19.06 19.06 0 0 0 2.15 2c.05-.8.06-1.7.06-2.71s0-2 .09-3a19 19 0 0 1 .43-2.87 5.42 5.42 0 0 1 1-2.19 5.13 5.13 0 0 1 1.26-1.12 4.44 4.44 0 0 1 1.39-.61 8.77 8.77 0 0 1 3.31-.19 5.76 5.76 0 0 1 2.66 1.28 9.07 9.07 0 0 1 1.1 1.06c.35.4.74.88 1.16 1.44a25.62 25.62 0 0 1 4.23 8.35 26 26 0 0 1 1 9.44 8.26 8.26 0 0 1 -.87 3.28 15.77 15.77 0 0 1 -1.7 2.58c-.28.34-.62.71-1 1.11l-1.09 1.06c-.21.4-.38.73-.53 1a7.67 7.67 0 0 1 -.52.73 3.88 3.88 0 0 1 -1.1 1 2.29 2.29 0 0 1 -1.08.33 2.38 2.38 0 0 1 -1-.17 3.26 3.26 0 0 1 -.93-.55 4.39 4.39 0 0 1 -1-1.09l-.78-1.24-9.53-12.7-1.66-1.61a9.41 9.41 0 0 1 -1.3-1.51l-.38-.58a2.92 2.92 0 0 1 -.32-.81 2.62 2.62 0 0 1 0-1 2.24 2.24 0 0 1 .52-1.05 6.9 6.9 0 0 1 1-1.05 2.15 2.15 0 0 1 .79-.43.93.93 0 0 1 .64 0 2.43 2.43 0 0 1 .55.38zm13-2a8.94 8.94 0 0 0 -.75-.93 8.47 8.47 0 0 0 -1.1-1.06 3.92 3.92 0 0 0 -1.24-.71 1 1 0 0 0 -1.14.39 5.15 5.15 0 0 0 -1 2.12 11.19 11.19 0 0 0 -.25 2.38c0 1.08.05 2.22.17 3.43a31.07 31.07 0 0 0 .53 3.59 24.39 24.39 0 0 0 .94 3.41 12.39 12.39 0 0 0 1.46 2.86 18.25 18.25 0 0 0 1.27 1.54 14.83 14.83 0 0 0 1.45 1.37 1.72 1.72 0 0 0 .69.34.67.67 0 0 0 .7-.3 8 8 0 0 0 1.39-2.58 13.08 13.08 0 0 0 .6-3.11 17.43 17.43 0 0 0 -.1-3.37 22 22 0 0 0 -.72-3.43 22.46 22.46 0 0 0 -1.24-3.21 16.72 16.72 0 0 0 -1.69-2.7z"
        fill="#93746c" />
    <path
        d="m244.34 319.47c6.69-7.89 12-17.41 12.7-27.74.32-5-5.43-29.76-14-23.33-3.77 2.81-5.11 11.3-5.82 15.61a51.87 51.87 0 0 0 .07 17.18 48.68 48.68 0 0 0 7.05 18.28z"
        fill="#846861" />
    <path
        d="m255.77 276.44c5.79 5.59 13 9.5 20.6 12.24a31.21 31.21 0 0 0 -8.05-23.68 30.84 30.84 0 0 0 -10-7.13c-2.45-1.1-9.54-4.18-12.13-2.52-5.4 3.47 6.75 18.35 9.58 21.09z"
        fill="#846861" />
</svg>