<svg viewBox="0 0 750.69 691.87" xmlns="http://www.w3.org/2000/svg">
    <path
        d="m206.58 654.31c-37.45-1.42-75.58-12.31-104.65-37.22-36.26-31.09-54.21-80.18-63.79-128.39-15.58-78.39-10.34-167.7 40.08-227.7 28.16-33.49 68-54.54 109.32-64.81s84.46-10.42 126.79-7.19c17.62 1.34 35.54 3.33 51.7 10.82 27.28 12.63 46.16 39.16 62.41 65.46 13 21.07 25.34 43 32 67.16 9.27 33.54 7.13 69.34 3.14 104-4.66 40.52-12.24 82.08-34.07 115.82-48.34 74.74-141 105.16-222.93 102.05z"
        fill="#568e4c" />
    <path
        d="m460.35 332.16c-6.67-24.14-19-46.09-32-67.17-16.25-26.29-35.13-52.82-62.41-65.46-16.16-7.48-34.08-9.48-51.69-10.81-7.48-.56-15-1-22.49-1.33 15.43 13.68 27.77 31.78 38.9 49.76 13 21.08 25.34 43 32 67.17 9.27 33.54 7.13 69.34 3.15 104-4.66 40.52-12.25 82.08-34.07 115.82-47.26 73.05-136.84 103.76-217.36 102.21 27 18.21 59.83 26.46 92.11 27.69 81.92 3.11 174.59-27.32 223-102.06 21.82-33.74 29.41-75.3 34.07-115.82 3.92-34.67 6.06-70.46-3.21-104z"
        fill="#45703d" />
    <path
        d="m104 428.16c2.53-15-7-32.27 1.86-44.59 6.79-9.43 21.41-10.65 27.84-20.33 5-7.55 3.32-17.56 5.51-26.35 5.44-21.92 32.9-31.54 41.42-52.45 4.77-11.73 3.13-26.09 11-36 3.63-4.57 8.83-7.55 13.66-10.83a106 106 0 0 0 32.81-35.81c2.41-4.31 4.55-8.83 6.83-13.23a322.32 322.32 0 0 0 -49.32 6.37c-15.46 10.91-29.53 21.79-37.27 42.78-3.3 9-5.21 18.59-10.39 26.63-9.09 14.13-26.23 20.49-39.1 31.3a68.72 68.72 0 0 0 -23.45 41.59c-2 13-.39 27-6.13 38.89-4.81 9.93-14 16.81-21.86 24.61s-14.72 18.26-12.86 29.09c1.39 8.09 7.35 14.54 10.68 22 7 15.73 1.8 34-4.61 50-2.16 5.38-4.46 10.84-6.49 16.36 9 32.33 22.73 63.33 44.28 87.21-11.25-25.41-22-55-9.16-79.47 3.7-7 9.24-13.26 11.11-21 3.09-12.79-4.67-26.08-2.77-39.1 2-13.61 14.16-24.06 16.41-37.67z"
        fill="#45703d" />
    <path
        d="m236.43 410.48c19.44-25.09 20.17-60 35.32-87.92 4.79-8.82 11.18-17.43 11.6-27.46.25-5.94-1.67-11.88-.86-17.77s4.13-10.86 7.37-15.72l40.95-61.25c1.76-2.63 3.53-5.36 5.19-8.18-7.44-1.17-15-1.87-22.48-2.43q-9.7-.74-19.45-1.2a27.47 27.47 0 0 1 -.89 3.52c-2.94 8.89-9.52 16-16.19 22.61-10.11 10-20.9 19.36-29.35 30.76s-14.49 25.3-13.39 39.44c.69 8.83 4.11 17.34 4.13 26.2.05 16.15-11 30-21.91 41.92-14.33 15.6-29.74 30.78-39.19 49.74-13.23 26.52-13.43 57.62-23.07 85.64-5.44 15.81-13.92 30.76-16.32 47.31-2.1 14.54.64 29.28 1.48 43.95 1.2 21.16-.89 44.52 5.72 63.79a184.65 184.65 0 0 0 38.58 9.68 49.35 49.35 0 0 0 1-9.78c.54-29.69-11.92-58.93-8.33-88.4 2.66-21.78 13.91-41.76 16.91-63.49 1.64-11.95.8-24.41 5.06-35.69 7.04-18.59 25.96-29.56 38.12-45.27z"
        fill="#45703d" />
    <path
        d="m308.81 270.79c-13.62 14.82-29.33 41.66-34.91 53.22s-23.9 179.66-23.9 179.66l6 2.17 112.31 47.37 5 2.22s115.45-213.53 122.8-247.33c3.11-14.29-43.73-34.91-79.56-49-43.1-16.95-68.41-31.1-107.74 11.69z"
        fill="#f37745" />
    <path
        d="m368.32 553.21 5 2.22s115.44-213.53 122.79-247.33c3.11-14.29-43.73-34.91-79.56-49-26.31-10.35-46-19.64-66.29-15.58-23 41.2-100.3 260.15-100.3 260.15l6 2.17z"
        fill="#bc5937" />
    <path
        d="m254.75 505.28 113.57 47.93s129.32-234.93 120.48-247.83c-10.15-14.8-127.87-63.21-133.92-54.7-7.88 11.14-100.13 254.6-100.13 254.6z"
        fill="#f5c740" />
    <g fill="#f4aa34">
        <path
            d="m353.05 482.06c-13.41.64-30.25 15.35-22.13 29.81a14.47 14.47 0 0 0 4 4.43c4.94 11.16 27.35 3.57 32.77-4 3.88-5.42 6.39-15 4.53-21.43-2.22-7.87-12.13-9.14-19.17-8.81z" />
        <path
            d="m317.12 395.57a33.74 33.74 0 0 0 3.49 21.18c2.11 4.14 7.25 11.18 12.53 11.07 2.91.57 6.12-.25 9.46-3 12.08-10 12.79-36.09 1.72-46.92-12.48-12.24-25.38 5.82-27.2 17.67z" />
        <path
            d="m417.8 341.36c.65 7 9.19 12 15.37 13.14 3 .57 11.32-.84 14.9-4.09 3.5-2.77 4.77-7.23 1.26-13.33-6.91-12.01-33.25-14.32-31.53 4.28z" />
        <path
            d="m388.27 268.8c-13.5-3.49-27 6.39-30.08 19.7a33.88 33.88 0 0 0 .12 13.41 23.22 23.22 0 0 0 2.75 10c6.48 11.73 20.76 12 31.05 5 9.66-6.57 18.39-17.82 15.75-30.05-1.93-8.92-10.8-15.79-19.59-18.06z" />
        <path
            d="m365.19 469.27c5.33 1.32 8.15-.38 9.32-3.35 5.6-5.72 1.53-19.84-3.1-24.47-11.29-11.31-25.93 22.93-6.22 27.82z" />
        <path
            d="m292.94 474.55c5.33 15.37 36.74 2.22 25.58-14.69-9.71-14.71-35.71 2.67-25.58 14.69z" />
    </g>
    <path
        d="m353.05 482.06c-13.41.64-30.25 15.35-22.13 29.81a14.1 14.1 0 0 0 3.53 4c-1.13-12.1 12.76-22.85 24.18-23.39 4.49-.21 10.11.23 14.19 2.61a17.07 17.07 0 0 0 -.61-4.28c-2.21-7.81-12.12-9.08-19.16-8.75z"
        fill="#d69230" />
    <path
        d="m317.12 395.57a33.74 33.74 0 0 0 3.49 21.18 31.36 31.36 0 0 0 3.35 5.16 33.43 33.43 0 0 1 -1.26-15.91c1.82-11.85 14.72-29.91 27.2-17.7.26.25.5.52.74.79a25.49 25.49 0 0 0 -6.32-11.25c-12.48-12.18-25.38 5.88-27.2 17.73z"
        fill="#d69230" />
    <path
        d="m418.06 341.83c.32 3.48 2.57 6.44 5.5 8.68.08-14.44 18.78-14.44 28.1-6.6a13.91 13.91 0 0 0 -2.07-6.35c-6.91-12.02-33.25-14.32-31.53 4.27z"
        fill="#d69230" />
    <path
        d="m388 269.33c-13.49-3.48-27 6.4-30.07 19.7a33.74 33.74 0 0 0 .12 13.42 23.25 23.25 0 0 0 2.74 10 19.34 19.34 0 0 0 3.37 4.47 25.35 25.35 0 0 1 -.54-4 33.91 33.91 0 0 1 -.11-13.42c3.06-13.3 16.58-23.18 30.07-19.7a30.59 30.59 0 0 1 14.17 8.2l-.12-.64c-1.93-8.89-10.81-15.76-19.63-18.03z"
        fill="#d69230" />
    <path
        d="m361.07 467.63c-.49-10.4 7.94-22.44 15.27-16.23-1.06-4.11-3-7.88-5-9.89-10.34-10.41-23.56 17.75-10.27 26.12z"
        fill="#d69230" />
    <path
        d="m293.33 474.87a9.68 9.68 0 0 0 3.28 4.62c-.13-9.57 15.43-18.88 24.68-12.23a13.09 13.09 0 0 0 -2.38-7.08c-9.71-14.7-35.7 2.67-25.58 14.69z"
        fill="#d69230" />
    <path
        d="m421 401.23c-7.52.65-15.7 5.56-18.83 12.34-2.58 5.58-1.27 8.71 1.69 10.14 1.36 2.12 4.08 3.63 7.94 3.53 7.32-.2 17.52-4.44 20.89-11.18 4.39-8.82-2.97-15.6-11.69-14.83z"
        fill="#f4aa34" />
    <path
        d="m421.31 401.65c-7.52.66-15.7 5.56-18.84 12.35-2.57 5.58-1.26 8.71 1.7 10.13a6.4 6.4 0 0 0 .87 1.09 14.65 14.65 0 0 1 1.28-4c3.13-6.78 11.31-11.68 18.83-12.34a13.53 13.53 0 0 1 9.16 2.35c-.09-6.1-6.12-10.18-13-9.58z"
        fill="#d69230" />
    <path
        d="m636 174.14c-8.11-6-15.89-10.23-19.08-17.37-6.57-14.7-10.12-57.68-10.12-57.68l-47.29 3.59s2.95 43-1.32 58.53c-2.08 7.55-9.13 12.94-16.25 20-13.75 13.07-13.55 383.82-13.55 383.82l3 40s2.09 27.66 26.85 25c21.74-2.31 15.8-21.88 27.46-22.24s8.5 7.44 16.6 13.38c9.47 7 31.92 5.25 40.24-3 7.11-7.09 2.81-14.32 14.39-15.72s8.65 18.84 30.49 17.84c24.88-1.13 22.78-28.79 22.78-28.79l-3-40s-55.68-366.5-71.2-377.36z"
        fill="#9ed2f2" />
    <path
        d="m686.43 607.52c-21.84 1-18.91-19.24-30.49-17.84s-7.28 8.63-14.4 15.72c-8.31 8.3-30.76 10-40.23 3.05-8.1-5.94-4.94-13.74-16.6-13.38s-5.71 19.93-27.46 22.24c-24.76 2.62-26.85-25-26.85-25l1 12.83s2.09 27.66 26.85 25c21.74-2.31 15.8-21.88 27.46-22.24s8.5 7.44 16.6 13.38c9.47 7 31.92 5.25 40.24-3 7.11-7.09 2.81-14.32 14.39-15.72s8.65 18.84 30.49 17.84c24.88-1.13 22.78-28.79 22.78-28.79l-1-12.82s2.09 27.6-22.78 28.73z"
        fill="#88b4d3" />
    <path
        d="m636 174.14c-8.11-6-15.89-10.23-19.08-17.37-6.57-14.7-10.12-57.68-10.12-57.68l-20.8 1.58s3.56 43 10.12 57.67c3.19 7.14 11 11.41 19.08 17.37 15.57 10.85 71.2 377.4 71.2 377.4l3 40s1.4 18.54-11.74 25.88a23.93 23.93 0 0 0 9.75 1.33c24.88-1.13 22.78-28.79 22.78-28.79l-3-40s-55.67-366.53-71.19-377.39z"
        fill="#88b4d3" />
    <path
        d="m608.9 114.1-49.31 3.73a7.06 7.06 0 0 1 -7.58-6.51l-1.9-25.06a7.07 7.07 0 0 1 6.51-7.58l49.32-3.68a7.07 7.07 0 0 1 7.58 6.51l1.89 25.06a7.07 7.07 0 0 1 -6.51 7.53z"
        fill="#304298" />
    <path
        d="m612.48 122.87-54.54 4.13a2.49 2.49 0 0 1 -2.67-2.3l-.06-.84a2.49 2.49 0 0 1 2.29-2.67l54.55-4.13a2.49 2.49 0 0 1 2.66 2.3l.07.84a2.49 2.49 0 0 1 -2.3 2.67z"
        fill="#304298" />
    <path d="m556.81 84.23h4.34v33.6h-4.34z" fill="#223466"
        transform="matrix(.99714574 -.07550084 .07550084 .99714574 -6.04 42.52)" />
    <path d="m566.17 83.52h4.34v33.6h-4.34z" fill="#223466"
        transform="matrix(.99714574 -.07550084 .07550084 .99714574 -5.95 43.15)" />
    <path d="m576.91 82.71h4.34v33.6h-4.34z" fill="#223466"
        transform="matrix(.99714574 -.07550084 .07550084 .99714574 -5.86 44.03)" />
    <path d="m587.3 81.92h4.34v33.6h-4.34z" fill="#223466"
        transform="matrix(.99714574 -.07550084 .07550084 .99714574 -5.77 44.74)" />
    <path d="m596.83 81.2h4.34v33.6h-4.34z" fill="#223466"
        transform="matrix(.99714574 -.07550084 .07550084 .99714574 -5.69 45.53)" />
    <path d="m604.45 80.62h4.34v33.6h-4.34z" fill="#223466"
        transform="matrix(.99714574 -.07550084 .07550084 .99714574 -5.62 46.03)" />
    <path
        d="m607.4 78.58-52 3.94a1.26 1.26 0 0 1 -1.4-1.17 1.27 1.27 0 0 1 1.16-1.35l52.05-3.94a1.27 1.27 0 0 1 1.36 1.17 1.27 1.27 0 0 1 -1.17 1.35z"
        fill="#405cc6" />
    <path
        d="m567.51 153.16c-.08 5.88-.94 12-4 17-1.38 2.27-3.17 4.28-4.38 6.64s-1.78 5.29-.55 7.64c2 3.85 7.91 4 11.33 1.37s4.89-7.1 5.86-11.33a107.86 107.86 0 0 0 2.23-29c-.15-3.29-2.33-16.79-9-13.81-4.4 1.94-1.44 17.41-1.49 21.49z"
        fill="#fff" opacity=".58" />
    <path
        d="m604.71 599.77c1.22 3.58 3.15 7.67 5.65 7.26 1.49-.24 2.62-2.19 3.08-4.38a29.22 29.22 0 0 0 .32-7c-.28-8.66.66-27-8.47-23.17-8.23 3.52-3.43 18.97-.58 27.29z"
        fill="#fff" opacity=".58" />
    <path d="m530.99 310.67-1.94 131.53 158.89-12.03-22.66-131.34z" fill="#304298" />
    <path d="m530.76 326.62 137.78-10.44 2.08 11.67-140.04 10.6z" fill="#5974aa" />
    <path d="m529.44 416.02 154.24-11.68 2.54 15.85-156.86 11.88z" fill="#5974aa" />
    <path
        d="m558.26 207.2c-4.9 1.36-7.62 3.7-7.09 25.14s-3.17 294.83-3.17 301.12c-.1 9 4.41 21.56 13.4 22 8.4.46 16-1.26 16.33-22.19s-8.76-293.35-9-302.41-1.96-26.01-10.47-23.66z"
        fill="#fff" opacity=".58" />
    <path
        d="m543.94 604.37c1.42 3.56 3.69 7.63 6.72 7.18 1.8-.26 3.2-2.23 3.79-4.43a24.5 24.5 0 0 0 .49-7c-.2-8.67 1.22-27.08-9.86-23.07-10 3.62-4.44 19.03-1.14 27.32z"
        fill="#fff" opacity=".58" />
    <path
        d="m254.8 436.81c-12.57 3-15.57 10.61-31.07 15.81-1.83.62 1.16 4.09 1.11 6-.06 2.73 6.6 1.51 9.08 2.67a19.44 19.44 0 0 0 8 1.37c15 .31 37.3.11 49.71-9.49 3.1-2.39 24-16.2 19.4-18.36-13-6.15-27.63 3.55-32.21 3.59-9.96.1-11.09-4.66-24.02-1.59z"
        fill="#9ab240" />
    <path
        d="m272.25 454.87c18.17-2.77 37.33-34.56 64.71-14.62s37.7 82 26.53 111.89-51.24 44-78.13 48.71c-31.41 5.56-80.63-1.65-94.5-52.17-12.13-44.2-7.68-86.08 31.14-95.68 23.63-5.79 20.49 6.41 50.25 1.87z"
        fill="#9ab240" />
    <path
        d="m336.89 440c-9.08-6.61-17.25-7.53-24.78-5.71 23.44 23.53 31.75 79.52 21.31 107.38-11.17 29.84-51.24 44-78.13 48.71a105.8 105.8 0 0 1 -33.15.52c20 11.81 44.66 13 63.15 9.7 26.89-4.76 66.95-18.87 78.13-48.71s.85-91.98-26.53-111.89z"
        fill="#9ab240" />
    <path
        d="m204.85 481.23c-3.42 7.57-4 16.22-2.65 24.41.64 3.88 1.74 7.8 4.16 10.91s6.36 5.25 10.25 4.63c5.1-.81 8.43-5.89 9.94-10.84 2.65-8.64 2.19-18.91 8.58-25.3 2.22-2.21 5.07-3.7 7.38-5.82s4.11-5.29 3.26-8.31c-2-7.21-16.08-8-22-6.73-8.22 1.82-15.58 9.67-18.92 17.05z"
        fill="#fff" opacity=".27" />
    <path
        d="m223 553.75c2.1.48 4.51.44 6.13-1a7 7 0 0 0 1.81-3c3.22-9-2.31-22.36-13.39-17.31s-4.15 19.1 5.45 21.31z"
        fill="#fff" opacity=".27" />
    <path
        d="m474 409.62c-11.67-5.52-18.78-1.43-34.13-7.06-1.82-.66-1.66 3.92-2.9 5.4-1.75 2.1 4.22 5.3 5.42 7.75s3.31 4.33 5.41 6.09c11.49 9.58 29.06 23.38 44.75 23.63 3.91.06 28.83 2.31 26.62-2.22-6.31-12.93-23.8-14.49-27.4-17.32-7.86-6.17-5.77-10.59-17.77-16.27z"
        fill="#9ab240" />
    <path
        d="m476.33 434.62c15.92 9.19 50.73-3.67 59.66 29s-21.8 87.63-49.16 104-67.46 2.32-91.44-10.76c-28-15.27-61.93-51.64-41.21-99.76 18.13-42.09 47.76-72 84.05-55.25 22.09 10.15 12.03 17.73 38.1 32.77z"
        fill="#9ab240" />
    <path
        d="m536.12 463.36c-3-10.83-8.77-16.65-15.79-19.94 3.61 33-24.87 81.94-50.42 97.18-27.37 16.32-67.47 2.32-91.44-10.76a105.56 105.56 0 0 1 -26.21-20.3c8.23 21.71 26.77 38 43.25 47 24 13.08 64.07 27.09 91.44 10.76s58.1-71.3 49.17-103.94z"
        fill="#9ab240" />
    <path
        d="m407.23 413.12c-7.4 3.77-13.25 10.16-17.32 17.4-1.92 3.43-3.51 7.19-3.56 11.12s1.69 8.07 5.11 10c4.5 2.55 10.26.66 14.54-2.25 7.46-5.1 13.52-13.41 22.5-14.41 3.12-.34 6.27.28 9.39.06s6.52-1.56 7.74-4.45c2.91-6.9-7.53-16.32-13-19-7.52-3.69-18.18-2.15-25.4 1.53z"
        fill="#fff" opacity=".27" />
    <path
        d="m376.12 481.09c1.34 1.69 3.25 3.16 5.4 3.06a7 7 0 0 0 3.29-1.2c8.15-5.06 12.16-18.91.35-21.89s-15.16 12.3-9.04 20.03z"
        fill="#fff" opacity=".27" />
    <path
        d="m610.18 493.21c-10-8.16-17.89-5.89-31.45-15-1.6-1.08-2.54 3.41-4.1 4.55-2.21 1.61 2.82 6.15 3.4 8.82s2.18 5 3.79 7.21c8.86 12.05 22.62 29.66 37.78 33.66 3.79 1 27.45 9.16 26.38 4.22-3-14.06-19.63-19.76-22.44-23.37-6.14-7.9-3.06-11.7-13.36-20.09z"
        fill="#9ab240" />
    <path
        d="m606.47 518.05c13.26 12.73 50.14 8.59 51 42.45s-42.16 79.85-72.64 89.14-66-13.91-86.2-32.35c-23.52-21.54-47.75-65-16.11-106.73 27.69-36.52 63.63-58.48 94.84-33.5 18.99 15.21 7.4 20.14 29.11 40.99z"
        fill="#add14a" />
    <path
        d="m657.63 560.28c-.28-11.23-4.52-18.27-10.55-23.15-4.4 32.92-43.78 73.59-72.24 82.27-30.48 9.29-66.05-13.91-86.19-32.35a105.82 105.82 0 0 1 -20.59-26c2.79 23.05 16.89 43.32 30.73 56 20.15 18.45 55.72 41.65 86.2 32.36s73.48-55.27 72.64-89.13z"
        fill="#9ab240" />
    <path
        d="m544.53 480.61c-8.08 1.89-15.29 6.7-21 12.75-2.69 2.87-5.13 6.14-6.12 9.94s-.29 8.25 2.56 10.95c3.75 3.56 9.8 3.11 14.65 1.3 8.47-3.16 16.34-9.78 25.3-8.59 3.11.41 6 1.77 9.11 2.31s6.7 0 8.57-2.47c4.49-6-3.4-17.65-8-21.55-6.46-5.42-17.18-6.48-25.07-4.64z"
        fill="#fff" opacity=".27" />
    <path
        d="m498.05 539.16c.89 2 2.39 3.84 4.5 4.26a7 7 0 0 0 3.45-.42c9.13-2.95 16.34-15.45 5.59-21.17s-17.59 8.35-13.54 17.33z"
        fill="#fff" opacity=".27" />
    <path
        d="m437.83 497.17c-12.56 3-15.56 10.61-31.06 15.81-1.84.62 1.15 4.09 1.11 6-.06 2.73 6.6 1.51 9.07 2.67a19.61 19.61 0 0 0 8 1.38c15 .31 37.3.11 49.71-9.49 3.1-2.4 24-16.21 19.4-18.37-13-6.15-27.63 3.55-32.21 3.59-9.95.1-11.09-4.66-24.02-1.59z"
        fill="#add14a" />
    <path
        d="m455.28 515.23c18.17-2.77 37.33-34.55 64.71-14.61s37.7 82 26.53 111.88-51.24 44-78.13 48.71c-31.39 5.56-80.63-1.65-94.49-52.21-12.13-44.15-7.68-86 31.1-95.6 23.66-5.83 20.52 6.37 50.28 1.83z"
        fill="#add14a" />
    <path
        d="m519.92 500.34c-9.07-6.61-17.25-7.54-24.78-5.72 23.44 23.53 31.75 79.52 21.32 107.39-11.18 29.84-51.24 43.94-78.13 48.7a105.8 105.8 0 0 1 -33.15.52c20 11.81 44.65 13 63.14 9.7 26.89-4.76 66.95-18.86 78.13-48.71s.85-91.95-26.53-111.88z"
        fill="#9ab240" />
    <path
        d="m387.88 541.6c-3.42 7.56-4 16.21-2.65 24.4.64 3.88 1.75 7.81 4.16 10.91s6.36 5.25 10.25 4.63c5.11-.81 8.43-5.89 9.95-10.83 2.64-8.64 2.18-18.92 8.58-25.31 2.21-2.21 5.06-3.7 7.37-5.82s4.11-5.29 3.26-8.31c-2-7.2-16.08-8-22-6.73-8.22 1.81-15.58 9.68-18.92 17.06z"
        fill="#fff" opacity=".27" />
    <path
        d="m406.05 614.11c2.09.48 4.51.44 6.12-1a7 7 0 0 0 1.82-3c3.21-9-2.31-22.36-13.4-17.31s-4.16 19.1 5.46 21.31z"
        fill="#fff" opacity=".27" />
    <path
        d="m387.89 397.68c-10.61-19.7-38.78-20.84-56.44-25.21l20 71.12c-.61.39-.91.84-1.67 1 5.55 4.77 11.56 4.52 18.58 3.63 10.65-1.35 21-4.45 24.29-16.65 3.03-10.93.47-24.19-4.76-33.89z"
        fill="#f5892f" />
    <path
        d="m346.15 392.15c-13.86-17.55-36.92-29.17-58.61-33.56-17.22-3.48-48.67-2.69-59.14 15l58.39 88.3c.82-.74 6.6-4 8.2-1.86 6.25 8.35 40.61 4 61-10.87 17.36-12.62 1.58-42.54-9.84-57.01z"
        fill="#f5892f" />
    <path
        d="m187.74 557.52c-11-15.23-33.42-23.95-48.21-7.89-3.22 3.5-10.68 23-6.32 26.34 1.59 3.93 1.07 8.84 2.81 12.81a30.94 30.94 0 0 0 8.74 11.85c9.36 7.37 23.94 10.54 35.19 4.45 22.92-12.42 19.05-32.08 7.79-47.56z"
        fill="#f5892f" />
    <path
        d="m130.19 449.5c11.91-7.52 47.57-16.36 67-12s45.67 26.73 50 43.07 6.34 26.91 6.34 26.91 18.05-1.35 32.41-12.15c16.86-12.68 20.88-21.95 20.88-21.95s-2-54.68-27.33-72.91-43.71-24.5-67.35-22c-17.82 1.89-40.4 9.22-66.57 32.19-7.75 6.81-13.67 16.52-17.66 24.54s2.28 14.3 2.28 14.3z"
        fill="#f5892f" />
    <path
        d="m126.39 439.31c12-14.08 49.25-25.1 76-18.29 23.12 5.89 44.82 31 51.44 46.53a79.84 79.84 0 0 1 6.19 38.89s15.95.57 33.86-13.85c16.47-13.24 19.98-28.59 19.98-28.59s-2.39-58.27-27.71-76.5-43.7-24.5-67.35-22c-17.81 1.89-40.39 9.22-66.56 32.19-15.5 13.56-25.85 41.62-25.85 41.62z"
        fill="#f7a037" />
    <path
        d="m130.19 449.5c-6.77 4.72-15 28.63-15 28.63-2 12.68-.75 20.33-.75 20.33s35.84-21.37 70.82-1.54 32.26 50.84 32.26 50.84.09-4.56 10.39-17.31 25.57-22.93 25.57-22.93 4.17-37.47-23.72-57.73c-27.58-20-54.47-24.79-75.76-15.33s-23.81 15.04-23.81 15.04z"
        fill="#f7a037" />
    <path
        d="m212.44 504.9c-10-20.68-34.42-30-60.44-27.38-16 1.62-47.62 7.55-34.12 32l1.14-.69c-1.32 8.21-1.6 14 3.38 21.19 4 5.86 8.79 8.85 15.54 11.88 8.84 4 17.2 10 26.5 12.9 7.56 2.36 16.53 2.48 24.34 2.65a64.16 64.16 0 0 0 18.59-2.68c22.39-6.67 11.25-37.1 5.07-49.87z"
        fill="#f5892f" />
    <path
        d="m117.87 507.83c-4.16 7.49 4.73 47.2 4.73 47.2 5.43 15.66 13.08 32.45 13.08 32.45s-1.47-22.43 31.27-19.75c28.14 2.31 29.49 15.93 29.49 15.93s2-5.38 7.63-18.92c4.12-9.82 10.57-14.14 10.57-14.14s4.45-22.12-9.92-40.23-38.18-22.83-57.19-19.24c-26.89 5.08-29.66 16.7-29.66 16.7z"
        fill="#f7a037" />
    <path d="m140.48 584.59-.06-.59z" fill="#f7a037" />
    <path
        d="m186.78 589.39c-1.88-9.32-15-13.61-22.88-13.46-9.83.18-20.5 5.36-21.76 16.06 1.65 17.26 10.26 33.66 28.41 38.38 10.43 2.72 18.06-.81 19.31-11.75.91-7.94-1.45-21.09-3.08-29.23z"
        fill="#f7a037" />
    <path
        d="m309.62 360.54c-10.75-1.64-22.76-4.31-33.87-4.54-6-.13-22.9 1.84-33.2 5.59 8.83-1.64 24.6 2.55 32 7 7.7 4.63 14.69 9.42 20.76 15.91 13.29 14.23 22.14 29.52 25.53 48.45 1.63 9.1 2.5 20.18-2.53 30.12 11.46-2.51 15.36-2.54 22.41-4.72a112.53 112.53 0 0 1 16.62-4.25c16.35-27.03-1.83-86.6-47.72-93.56z"
        fill="#f7a037" />
    <path
        d="m415.48 431.28c-2.69-20.49-21.54-36.37-38.88-45.62-5.45-2.91-25.65-10.55-34.44-11.17l1.14 1c10.63 5.3 19.32 16.2 22.78 32.88 2.41 11.59 3.07 29.1-.44 40.57 10.19-2.74 26.35-1.45 36.41.59 13.08 2.62 14.95-7.02 13.43-18.25z"
        fill="#f7a037" />
    <path
        d="m130.05 448.55c.24 3 3.61-.85 4.64-1.62 2.06-1.55 4.41-2.7 6.62-4.05a62 62 0 0 1 14-6.1 70.81 70.81 0 0 1 34-2.07 91.52 91.52 0 0 1 26.23 9.29c8.4 4.48 14.24 9.85 20.65 17a68.54 68.54 0 0 1 13.06 22.52c2.79 7.95 2.64 16.07 3.82 24.56 3-1 1.73-9.16 1.39-11.74-.56-4.3-2.33-8.17-3.11-12.46-1.46-8-5.87-15.72-9.85-22.73-4.14-7.29-13-12.53-19.62-17.35a103.49 103.49 0 0 0 -22.5-12.11 65 65 0 0 0 -25.2-4.39c-8.63.28-16.73 3.28-24.08 7.17-3.73 2-7.39 4.21-11.15 6.19s-5.93 5-8.94 7.42z"
        fill="#db772c" />
    <path
        d="m214.39 528.41c-1.35-7.47-6-13.59-10.66-19.75-9.23-12.14-28.26-20.4-43.15-19.9-8.83.29-16.55 2.54-24.51 4.89-6.28 1.85-15.94 4.85-19.42 11.37-.62 1.17-1.42 2.17-.58 3.49l.79-.07c.92 2.05 6.67-5.25 8.18-6.29a56.33 56.33 0 0 1 11.47-6.15 69.87 69.87 0 0 1 25.38-4.15c8.23.13 16.57 2.9 24.1 6.33 7.23 3.29 14.45 7.47 19 14.3a69.46 69.46 0 0 1 8.6 19.51 33.57 33.57 0 0 1 .69 11c-.2 3.28-1.63 6.09-1.05 9.57 5.36-.93 1.83-20.41 1.16-24.15z"
        fill="#db772c" />
    <path
        d="m186.48 587.37c-1.86-2.8-4-5.76-6.9-7.73-7.33-5-16.23-5.58-24.36-2.75-4.4 1.53-11.13 3.85-13.63 8.26-1.54 2.71-3.54 13.7 1.12 14l.77-.33a12.86 12.86 0 0 1 1.44-11.82c2.33-3.48 6-4.55 9.57-6.14 7.74-3.47 16.09-2.58 23.71.74 3.36 1.46 5.84 2.95 7.39 6.3 1.31 2.84 3.1 7.05 3.22 10.37 2.57-2.44-.81-8.7-2.33-10.9z"
        fill="#db772c" />
    <path
        d="m154.2 585.46c-15.41 6.57 3.65 23.78 10.26 29 4.23 3.32 14 8.78 12.24-1.39-1.13-6.42-4.38-10.72-3.53-18 .54-4.68 1.49-9.31-3.88-10.91-4-1.19-10.66.87-13.15.75z"
        fill="#fff3ae" opacity=".2" />
    <path
        d="m161.52 503.37c-2.67-5.73-11.79-3.95-16.63-3.81-3.68.11-7.38 2.21-10.14 2.41l-1.51.91c-16.75-.35-2.93 27.25-.76 33.85 2.12 6.45 4.4 12.89 6.73 19.33 2.72 7.52 6.43 9.38 13.51 6.06 2.63-1.23 5.72-1.35 7.34-3.77 1.74-2.58 1.32-6.68 1.12-9.63-.6-8.62-2-17.34-.87-25.76.69-5.4 3.74-14.14 1.21-19.59z"
        fill="#fff3ae" opacity=".2" />
    <path
        d="m199.23 443.91c-.9-3.28-4.54-2.37-7.28-2.68-6.2-.72-12.18-4-18.6-2.81-5 .89-9.85 2.81-14.9 3.52-4.67.65-10.16 1-14.36 3.23l-.79.07c-5.78 4.21-10 7.83-12.62 14.61-1.76 4.51-5.75 14.22.34 16.68 4.61 1.86 12.86-4 18-4.73a66.36 66.36 0 0 1 19.85 0c7.91 1.41 12.56 4.28 16.63-4.94 1.36-3.07 2.09-6.53 4.1-9.38 1.74-2.47 4.29-4 6.27-6.15 1.53-1.66 4-5.11 3.36-7.42z"
        fill="#fff3ae" opacity=".2" />
    <path
        d="m249.63 373.88c-13-2.27-30.32-5.85-43.09-2.1-15 4.38-26.13 18.38-38.86 26.88-7 4.65-23.8 12.29-24.38 21.93l1.68 1.06c3.57.09 7.45-2.35 10.84-3.36 4.89-1.45 9.82-2.66 14.71-4 7.79-2.06 17.14-4.08 25.24-3.55 7.68.5 13.69 4 21.69 1.75 10.72-3 13.72-11.28 21.52-17.94a36.33 36.33 0 0 1 11-6.36c3.25-1.2 6.72-1 9.69-2.86 8.91-5.56-5-10.57-10.04-11.45z"
        fill="#fff3ae" opacity=".2" />
    <path
        d="m333.92 375.14c-2-1.67-6.34-1.9-8.91-3.07-2.81-1.27-5.33-2.77-8.26-3.61-6.11-1.75-12.82-1.36-18.94-3.64-5.55-2.07-11.41-4.31-17.39-4.65-2.59-.15-16.44.36-8.09 4.32l1.61.27c5.65 0 12.72 3.5 16.88 7.37 3.94 3.67 7.53 9.84 13.2 10.78 3.27.55 7-.81 10.29-.76s6.81 1 10.05 1.69c2.9.6 7.15 1.54 9.81-.58a5.21 5.21 0 0 0 -.25-8.12z"
        fill="#fff3ae" opacity=".2" />
    <path
        d="m403.22 415.13c-1.07-3.44-4.44-5-7-7.28-5.74-5.14-11.52-10.5-17.16-15.89-4.84-4.64-16-11.14-23-9.92-.07.4.07.75 0 1.13l.85.73c5.31 3.22 7.81 8.91 10 14.21 1.58 3.87 2.89 3.68 7 4.61a24.72 24.72 0 0 1 8.65 3.66c5.54 3.59 10.23 8.39 15.66 12 3.61 2.28 6.5 1.62 5-3.25z"
        fill="#fff3ae" opacity=".2" />
    <path
        d="m369.75 524.12c-10.19-7.94-18-5.5-31.78-14.34-1.62-1-2.46 3.46-4 4.64-2.17 1.66 3 6.09 3.6 8.75a19.67 19.67 0 0 0 3.95 7.11c9.12 11.86 23.26 29.16 38.51 32.83 3.81.92 27.63 8.55 26.46 3.64-3.34-14-20.05-19.33-22.95-22.88-6.31-7.73-3.31-11.59-13.79-19.75z"
        fill="#9ab240" />
    <path
        d="m366.58 549c13.54 12.44 50.31 7.49 51.9 41.33s-40.4 80.75-70.67 90.71-66.34-12.46-86.88-30.46c-24-21-49.17-63.92-18.45-106.35 26.88-37.12 62.33-59.86 94.08-35.57 19.33 14.81 7.86 20 30.02 40.34z"
        fill="#add14a" />
    <path
        d="m418.65 590.13c-.52-11.22-4.92-18.17-11-22.91-3.68 33-42.15 74.53-70.42 83.83-30.26 10-66.34-12.46-86.88-30.46a105.72 105.72 0 0 1 -21.15-25.53c3.3 23 17.83 43 32 55.32 20.54 18 56.62 40.42 86.88 30.46s72.16-56.84 70.57-90.71z"
        fill="#9ab240" />
    <path
        d="m370.7 552s12.7-19.21 16.76-30.41 5.54-32.59 5.54-32.59l-9.23-1.84s2.46 15.58-2.28 30.13c-3.31 10.17-14.9 31.74-14.9 31.74z"
        fill="#60443e" />
    <path
        d="m381.48 517.29s-3.27-28.07-18.57-40.86a145.9 145.9 0 0 0 -41.67-24.31s-2.51 30.63 12.13 46.71 45.31 25.6 45.31 25.6z"
        fill="#436b49" />
    <path
        d="m361.92 490.09a2 2 0 0 1 -.24 1.18 2 2 0 0 1 -1.56.65 8.88 8.88 0 0 1 -5.79-2.09 36.07 36.07 0 0 1 -4.34-4.4 55.58 55.58 0 0 0 -11.15-9.34 16.36 16.36 0 0 1 -4.09-3.14c-3.33-4.05 1.65-6.17 5.4-6.19 3.5 0 5.61 1.78 8.12 4 5.89 5.24 13.46 11.64 13.65 19.33z"
        fill="#fff" opacity=".27" />
    <path
        d="m303.84 513c-8 2.07-15.15 7-20.7 13.21-2.62 2.92-5 6.24-5.9 10.07s-.11 8.25 2.8 10.89c3.83 3.48 9.87 2.89 14.68 1 8.39-3.34 16.12-10.14 25.1-9.15 3.12.35 6.06 1.64 9.16 2.11s6.7-.1 8.52-2.65c4.35-6.1-3.79-17.57-8.52-21.38-6.55-5.33-17.29-6.1-25.14-4.1z"
        fill="#fff" opacity=".27" />
    <path
        d="m258.65 572.51c.93 1.94 2.48 3.79 4.59 4.16a6.94 6.94 0 0 0 3.48-.46c9.06-3.15 16-15.79 5.12-21.28s-17.49 8.7-13.19 17.58z"
        fill="#fff" opacity=".27" />
    <path
        d="m705.91 381.7c-4.49-10.34-9.24-20.66-14.28-30.88-27.38-88.1-38.2-187.34 4.4-268.75a174.63 174.63 0 0 0 8.2-17.14 51.51 51.51 0 0 0 3.2-7.58c4-13.8 1.64-30.43-9.36-39.57-6.76-5.62-15.71-7.67-24.35-9.18-27.06-4.73-55.07-5.9-81.85.21s-52.33 19.93-69.6 41.43c-22.64 28.18-28.87 65.76-33.17 101.9-10.15-8.27-17.64-18.35-19.44-31.55-2-14.49 4-29 3.06-43.64-2.12-31.33-34.35-51.08-64.05-60.67-35.67-11.51-81.73-22.04-118.93-12.67-38.25 9.64-69.9 36.4-102.91 56.7-42.35 26-91 43.94-124.56 80.77-48.43 53.2-53.53 132-56.07 204.1l-5.67 161.14c-1.26 35.8-1.86 74.13 17.4 104.25 15.75 24.61 42.53 39.79 69.53 50.64 83.78 33.69 177 34.36 266.84 26.61s179.48-23.45 269.7-20.76c38 1.13 82.08 3.17 107.1-25.67 14.81-17.07 18.7-41 19.46-63.69 2.25-67.55-17.77-134.06-44.65-196zm-166.54-312.18c24.63-35.87 75.84-50.27 115.4-32.52 20.25 9.11 18.51 18.6 15.33 29.64-1.35 2.39-2.62 4.82-3.8 7.25-8.1 16.78-13.59 35.08-24.84 49.9-12.45 16.39-30.93 27.08-49.9 34.86-25.73 10.55-47.74 12.58-72.15 10.1-1.9-35.19.42-70.83 19.96-99.23zm-164.26 50.36c-23.24 3.39-46.45-4.38-69.57-8.54a228.39 228.39 0 0 0 -73.42-1.22c-8.26 1.2-16.73 2.86-24.87 1s-15.89-8.57-16-17c0-4 1.64-7.82 3.76-11.19 7.11-11.3 19-18.51 30.77-24.75 19.09-11.41 41.81-21 63.09-27.32s41.27-.92 63.42 1.79c13.79 1.68 27.86 3.45 40.39 9.48s23.46 17.22 25.51 31.05c3.5 23.38-19.83 43.32-43.08 46.7z"
        fill="#b2c1db" opacity=".47" />
    <path
        d="m90.34 155.31c-21.17 13-34.52 36.18-40.91 60.21s-6.62 49.19-6.8 74q-.63 93.48-1.36 186.89c-.07 8.76.55 18.93 7.67 24 7.39 5.28 18.42 1.74 24.13-5.32s7.37-16.49 8.41-25.51c6.75-58.17-3.63-118.12 10.18-175 6.17-25.4 18.11-50.84 39.76-65.48 38.66-26.16 93.28-9.62 135.41-29.75 12.08-5.78 24-18 20.06-30.84-2-6.57-7.72-11.28-13.47-15.06-42.91-28.24-139.33-25.09-183.08 1.86z"
        fill="#fff" opacity=".54" />
    <path
        d="m308.28 202.12c.33 4.29.76 8.87 3.48 12.21 3.12 3.83 8.39 5 13.24 5.93l52.07 10c8.51 1.63 17.84 3.15 25.42-1.06 9.23-5.12 12.36-16.64 14.63-26.94.92-4.21 1.83-8.72.23-12.72-1.32-3.32-4.19-5.77-7.11-7.84-31.05-21.95-106-33.23-101.96 20.42z"
        fill="#fff" opacity=".54" />
</svg>