<svg viewBox="0 0 82.5 80.58" xmlns="http://www.w3.org/2000/svg">
    <path
        d="m31.06 17.34s-4-7.69-6.19-9.48a46.45 46.45 0 0 0 -6.95-4.57c-.27 0 3.81 2.91 6.57 5.61s4.97 9.1 6.57 8.44z"
        fill="#318b00" />
    <path
        d="m38 17.34s-4-7.69-6.19-9.48a46.51 46.51 0 0 0 -6.94-4.57c-.27 0 3.81 2.91 6.56 5.61s4.96 9.1 6.57 8.44z"
        fill="#318b00" />
    <path
        d="m30.38 17.87s-1.91-8.48-3.52-10.77a46.86 46.86 0 0 0 -5.52-6.21c-.26-.07 2.93 3.8 4.89 7.11s2.45 10 4.15 9.87z"
        fill="#318b00" />
    <path
        d="m34.19 18.26s-1.9-8.48-3.51-10.77a46.86 46.86 0 0 0 -5.52-6.21c-.26-.07 2.92 3.8 4.88 7.13s2.46 10.02 4.15 9.85z"
        fill="#316600" />
    <path
        d="m34.19 20.9s-1.9-8.48-3.51-10.77a46.86 46.86 0 0 0 -5.52-6.21c-.26-.07 2.92 3.8 4.84 7.08s2.5 10.07 4.19 9.9z"
        fill="#318b00" />
    <path
        d="m31.76 18.26s-1.91-8.48-3.52-10.77a46.86 46.86 0 0 0 -5.52-6.21c-.26-.07 2.93 3.8 4.89 7.13s2.45 10.02 4.15 9.85z"
        fill="#316600" />
    <path
        d="m35.11 3.6a2.81 2.81 0 0 0 -2.76 2.85l.17 11.34a2.82 2.82 0 0 0 2.85 2.76 2.82 2.82 0 0 0 2.76-2.85l-.13-11.34a2.82 2.82 0 0 0 -2.89-2.76z"
        fill="#880e00" />
    <path
        d="m32.74 7.24c0 1.74 1.13 3.14 2.46 3.11s2.4-1.44 2.37-3.19-1.13-3.16-2.46-3.11-2.4 1.45-2.37 3.19z"
        fill="#d10000" />
    <path d="m34.68 8.84a.33.33 0 0 0 -.65 0 .33.33 0 0 0 .65 0z" fill="#ffd8a9" />
    <path d="m35.48 6.83a.32.32 0 0 0 -.64 0 .3.3 0 0 0 .32.29.3.3 0 0 0 .32-.29z" fill="#ffd8a9" />
    <path
        d="m36.78 8.12a.39.39 0 0 0 -.42-.37.4.4 0 0 0 -.42.38.4.4 0 0 0 .43.37.39.39 0 0 0 .41-.38z"
        fill="#ffd8a9" />
    <path d="m34.33 7.34a.46.46 0 0 0 -.49-.43.44.44 0 1 0 0 .87.45.45 0 0 0 .49-.44z"
        fill="#ffd8a9" />
    <path d="m35.62 9.35a.21.21 0 0 0 -.42 0 .21.21 0 0 0 .42 0z" fill="#ffd8a9" />
    <path d="m36.63 6.31a.21.21 0 0 0 -.42 0 .21.21 0 0 0 .42 0z" fill="#ffd8a9" />
    <path d="m36.19 5.18a.42.42 0 0 0 -.83 0 .42.42 0 0 0 .83 0z" fill="#ffd8a9" />
    <path d="m34.4 5.2a.21.21 0 0 0 -.22-.2.2.2 0 0 0 -.2.19.2.2 0 0 0 .21.19.2.2 0 0 0 .21-.18z"
        fill="#ffd8a9" />
    <path
        d="m35.28 18.31c-2.33 0-2.86-2.63-2.87-2.66a.09.09 0 0 1 .07-.1.08.08 0 0 1 .09.07s.52 2.52 2.71 2.52c2.23 0 2.69-2.58 2.7-2.61a.08.08 0 0 1 .16 0s-.49 2.71-2.85 2.75z"
        fill="#c97200" />
    <path
        d="m35.21 14c-2.33 0-2.86-2.63-2.87-2.66a.08.08 0 0 1 .07-.1.07.07 0 0 1 .09.07s.5 2.49 2.71 2.49c2.23 0 2.69-2.58 2.69-2.61a.08.08 0 0 1 .1-.06.07.07 0 0 1 .06.09s-.48 2.71-2.85 2.75z"
        fill="#c97200" />
    <path
        d="m44 34.58a2.38 2.38 0 0 0 2.62-2.09l3.38-29.76a2.38 2.38 0 0 0 -2.07-2.62 2.38 2.38 0 0 0 -2.62 2.08l-3.41 29.81a2.38 2.38 0 0 0 2.1 2.58z"
        fill="#ec771d" />
    <path
        d="m45.93 32.37 3.41-29.76a2.38 2.38 0 0 0 -1.57-2.5h.16a2.38 2.38 0 0 1 2.07 2.62l-3.39 29.76a2.38 2.38 0 0 1 -2.61 2.09 2.2 2.2 0 0 1 -.52-.13 2.36 2.36 0 0 0 2.45-2.08z"
        fill="#e0dbc2" />
    <path
        d="m47.38 1.92.38 1.21-.62 2.08.54 4.07-.94 2.72.39 2.14-.85 4-.28-3.55-.67-2.59s1.73-2.67 1.74-2.85-.61-3.85-.61-3.85l.89-2.22z"
        fill="#d3c2a9" />
    <path
        d="m47.38 1.92.62 1.24-.62 2.07.54 4.08-.92 2.69.39 2.14-1.09 4v-3.52l-.73-2.62s1.73-2.67 1.74-2.86-.61-3.84-.61-3.84l.89-2.22z"
        fill="#f19533" />
    <path
        d="m42.32 34.69a2.39 2.39 0 0 0 2.31-2.43l-.75-29.95a2.38 2.38 0 0 0 -2.43-2.31 2.38 2.38 0 0 0 -2.31 2.43l.75 30a2.38 2.38 0 0 0 2.43 2.26z"
        fill="#ec771d" />
    <path
        d="m43.94 32.23-.75-29.95a2.38 2.38 0 0 0 -1.9-2.28h.16a2.38 2.38 0 0 1 2.43 2.31l.75 30a2.39 2.39 0 0 1 -2.31 2.43 3 3 0 0 1 -.53 0 2.39 2.39 0 0 0 2.15-2.51z"
        fill="#e0dbc2" />
    <path
        d="m41.15 1.88.55 1.12-.33 2.14 1.11 4-.56 2.81.68 2.05-.28 4.12-.75-3.5-1-2.47s1.35-2.89 1.33-3.07-1.14-3.72-1.14-3.72l.53-2.36z"
        fill="#d3c2a9" />
    <path
        d="m41.15 1.88.79 1.12-.33 2.14 1.11 4-.56 2.81.68 2.05-.52 4.12-.5-3.51-1-2.46s1.34-2.89 1.32-3.07-1.14-3.74-1.14-3.74l.53-2.34z"
        fill="#f19533" />
    <path d="m25.85 51.12 24.54-1.86 1.02-10.47-2.02-19.15 1.34-7.23h-24.77l.71 8.34-1.62 21.82z"
        fill="#9a7247" />
    <path
        d="m50.73 12.41-1.34 7.23 2 19.7-1 9.92-24.54 1.86-.8-8.55s1.76 5 3 5.3 16-.65 18.58-3.17-1-25.06-1-25.06l3.79-7.23z"
        fill="#e1d6a9" />
    <path d="m27.62 13.27 4.48 6.76-7.05 22.54 4.19-21.68z" fill="#eae2c2" />
    <path d="m36.57 15.8 2.58 3.89-.92 11.22-1.94-10.36z" fill="#eae2c2" />
    <path d="m30.87 50.55-1.19-14.55a3.7 3.7 0 0 0 -4-3.37 3.7 3.7 0 0 0 -3.38 4l1.19 14.57z"
        fill="#40101d" />
    <path d="m24.31 27.58h2.42v5.54h-2.42z" fill="#40101d"
        transform="matrix(-.99668015 .08141666 -.08141666 -.99668015 53.42 58.52)" />
    <rect fill="#95101d" height="1.38" rx=".34"
        transform="matrix(-.99668015 .08141666 -.08141666 -.99668015 52.74 53.03)" width="3.02"
        x="23.78" y="26.9" />
    <path d="m24.28 28.27h2.44v3.56h-2.44z" fill="#95101d"
        transform="matrix(-.99668015 .08141666 -.08141666 -.99668015 53.36 57.92)" />
    <path d="m22.76 37.12h7.38v9.3h-7.38z" fill="#95101d"
        transform="matrix(-.99668015 .08141666 -.08141666 -.99668015 56.21 81.25)" />
    <rect fill="#ce591d" height="7.26" rx="1.99"
        transform="matrix(-.99668015 .08141666 -.08141666 -.99668015 56.22 81.36)" width="4.42"
        x="24.24" y="38.2" />
    <path
        d="m25.19 50.43a.9.9 0 0 1 -1-.82l-1.16-14.1a.91.91 0 0 1 .83-1 .9.9 0 0 1 1 .82l1.14 14.13a.91.91 0 0 1 -.81.97z"
        fill="#fff" />
    <path d="m24.84 26.89h1.1v3.49h-1.1z" fill="#ffc77e"
        transform="matrix(-.99668015 .08141666 -.08141666 -.99668015 53.02 55.11)" />
    <path
        d="m33.44 50.26 1.17-.58a36.08 36.08 0 0 0 4.47.28 32.85 32.85 0 0 0 3.85-1l1.37.41-.3-1.49s.19-4 .09-5.27a46.06 46.06 0 0 0 -1-5.91v-1.7l-1.33.72a34.61 34.61 0 0 0 -4-.28 35.51 35.51 0 0 0 -4.07.95l-1.48-.49.38 1.41s-.24 4.37-.12 5.82a22.67 22.67 0 0 0 1 5.19z"
        fill="#1f7700" />
    <path d="m34.08 40.74a1.48 1.48 0 1 0 1.34-1.69 1.54 1.54 0 0 0 -1.34 1.69z" fill="#ffa460" />
    <rect fill="#c90000" height="5.15" rx=".59"
        transform="matrix(-.99655103 .08298214 -.08298214 -.99655103 79.94 82.83)" width="9.65"
        x="33.42" y="40.5" />
    <path
        d="m40.14 42.26c.24 2.88-1 5.34-2.79 5.49s-3.42-2.07-3.66-5 1-5.34 2.79-5.49 3.42 2.12 3.66 5z"
        fill="#9eb0de" />
    <ellipse cx="38.71" cy="46.38" fill="#ffa460" rx="2.54" ry="2.4"
        transform="matrix(.99655103 -.08298214 .08298214 .99655103 -3.72 3.38)" />
    <path d="m34.72 47.54a1.49 1.49 0 1 0 1.35-1.7 1.54 1.54 0 0 0 -1.35 1.7z" fill="#ffa460" />
    <path
        d="m59.77 44.31c-2.33 4.24-8.65 5.82-13.06 3.4a8.94 8.94 0 0 1 -3.78-12.07c.35-.63 1.17-.72 1.75-1.39.92-1 1.69-2.6 2.64-2.93 1.45-.51 2.5.52 4 1.07 1.14.41 2.68-.65 3.81 0 .56.31 1 1.4 1.45 1.79.81.68 1.57.73 2.09 1.6a8.83 8.83 0 0 1 .77 4c.13 1.61 1.15 3.04.33 4.53z"
        fill="#972773" />
    <path
        d="m59.47 44.37c-2.33 4.24-8.52 5.89-12.8 3.54a8.79 8.79 0 0 1 -3.53-11.91c.35-.63 1.16-.73 1.73-1.4.9-1 1.68-2.61 2.61-2.95 1.43-.52 2.43.49 3.9 1 1.11.39 2.63-.68 3.73-.08.53.29.93 1.38 1.38 1.76.79.66 1.52.7 2 1.56a8.71 8.71 0 0 1 .71 4c.11 1.58 1.09 2.99.27 4.48z"
        fill="#720c4d" />
    <path
        d="m57.73 44.41a8 8 0 0 1 -14-7.71c.67-1.23 2.9-1 2.82-2.34-.12-1.84 5.37-2.2 8-.75a7.85 7.85 0 0 1 3.55 5.56c.28 2.26-.64 4.45.12 4.23.33-.1-.31.68-.49 1.01z"
        fill="#972773" />
    <path d="m54.39 40.45a4.4 4.4 0 1 1 -1.73-6 4.39 4.39 0 0 1 1.73 6z" fill="#ae4096"
        opacity=".3" />
    <g fill="#d95bbe">
        <path d="m53.51 39.26a3.39 3.39 0 1 1 -1.34-4.6 3.39 3.39 0 0 1 1.34 4.6z" opacity=".3" />
        <path
            d="m43.93 46.4c0 .31 1.41 1.46 2 1.75s1.72.9 2 .79 4.38-8.24 4.22-9.07a1.46 1.46 0 0 0 -1.66-1.1c-.49.14-6.49 6.82-6.56 7.63z" />
        <path
            d="m49 46.22a7.89 7.89 0 0 0 3.44.79c2.14-.27 2.66-1.29 3.13-1 .27.15-2 1.56-3.06 1.7a7.65 7.65 0 0 1 -3.87-.71c-.25-.18.36-.78.36-.78z" />
        <path
            d="m49.94 44.2a7.58 7.58 0 0 0 3.24.75c2-.26 2.5-1.21 3-1 .25.14-1.88 1.46-2.88 1.6a7.42 7.42 0 0 1 -3.6-.65c-.29-.13.24-.7.24-.7z" />
        <path
            d="m50.29 42.14a6.59 6.59 0 0 0 3.18-.29c1.78-.91 2-2 2.44-1.93.28.06-1.32 2.08-2.2 2.54a6.45 6.45 0 0 1 -3.49.51c-.22-.09.07-.83.07-.83z" />
        <path
            d="m51.4 40.1a4.82 4.82 0 0 0 1.94-1c.9-1 .74-1.68 1.06-1.74s-.31 1.53-.76 2a4.67 4.67 0 0 1 -2.07 1.21c-.19.05-.17-.47-.17-.47z" />
        <path
            d="m46.48 44.5a7.84 7.84 0 0 1 -2.28-2.69c-.75-2-.09-3-.53-3.24-.26-.18-.46 2.48-.1 3.49a7.73 7.73 0 0 0 2.37 3.07c.27.15.54-.63.54-.63z" />
        <path
            d="m47.82 42.69a7.57 7.57 0 0 1 -2.16-2.53c-.7-1.9-.08-2.78-.5-3.06-.24-.16-.43 2.34-.09 3.29a7.23 7.23 0 0 0 2.24 2.89c.25.14.51-.59.51-.59z" />
        <path
            d="m49.46 41a5.57 5.57 0 0 1 -1.34-2.64c-.18-2 .59-2.83.28-3.13s-1 2.37-.87 3.35a5.66 5.66 0 0 0 1.32 3c.2.14.61-.58.61-.58z" />
        <path
            d="m50.8 39.56a4.93 4.93 0 0 1 0-2.18c.46-1.26 1.15-1.43 1.06-1.75s-1.22 1-1.45 1.61a4.82 4.82 0 0 0 -.12 2.4c.07.18.51-.08.51-.08z" />
        <path d="m53.69 35a4 4 0 0 0 -1.95-.71 4 4 0 0 0 -2 .62 2.48 2.48 0 0 1 3.93.09z" />
        <path
            d="m47.71 35.06a4.26 4.26 0 0 0 -1.24 1.67 4.2 4.2 0 0 0 0 2.08 2.51 2.51 0 0 1 1.22-3.75z" />
        <path d="m56.1 42.29a4 4 0 0 0 .85-1.9 4 4 0 0 0 -.48-2 2.48 2.48 0 0 1 -.37 3.92z" />
        <path
            d="m55.19 38.42a3.16 3.16 0 0 0 .07-1.63 3.25 3.25 0 0 0 -.93-1.34 2 2 0 0 1 .86 3z" />
        <path d="m51.9 43.3a3.36 3.36 0 0 0 1.61.25 3.23 3.23 0 0 0 1.49-.78 2 2 0 0 1 -3.05.53z" />
    </g>
    <path
        d="m44.48 46.36c0 .24 1.14 1.17 1.63 1.41s1.39.73 1.63.64 3.54-6.67 3.41-7.35a1.18 1.18 0 0 0 -1.34-.88c-.46.11-5.27 5.52-5.33 6.18z"
        fill="#e888e2" />
    <path d="m18.63 52.34-5-34.44h68.24l-10.28 30.71h-.29zm-4-33.58 4.77 32.66 51.6-3.63 9.73-29z"
        fill="#e4daca" />
    <path
        d="m68.65 73.33h-54.32v-6.39l3.9-15-7.16-45.1 1.7-.28 7.23 45.44-3.69 14.29 50.86 3a2.7 2.7 0 0 1 1.58.61l.87.7a1.55 1.55 0 0 1 -1 2.76zm-52.6-1.72h52.11l-.49-.4a1 1 0 0 0 -.6-.23l-51-3z"
        fill="#e4daca" />
    <path
        d="m1.34 7.14 10.77 2.48a1.73 1.73 0 0 0 2.07-1.29 1.73 1.73 0 0 0 -1.29-2.07l-10.78-2.48a1.74 1.74 0 0 0 -2.11 1.29 1.73 1.73 0 0 0 1.34 2.07z"
        fill="#d60000" />
    <path
        d="m1.9 5.91 9.28 2.14a.89.89 0 0 0 1.06-.66.89.89 0 0 0 -.66-1.06l-9.28-2.13a.89.89 0 0 0 -1.06.66.89.89 0 0 0 .66 1.05z"
        fill="#f10000" />
    <circle cx="65.05" cy="77.1" fill="#303030" r="3.48" />
    <path d="m19.64 77.1a3.48 3.48 0 1 0 3.47-3.47 3.47 3.47 0 0 0 -3.47 3.47z" fill="#303030" />
    <rect fill="#e4daca" height="1.62" rx=".63" transform="matrix(-1 0 0 -1 94.75 36.12)"
        width="70.26" x="12.25" y="17.25" />
    <path d="m53.76 33.08h30.8v.86h-30.8z" fill="#e4daca"
        transform="matrix(.20961856 -.97778324 .97778324 .20961856 21.89 94.11)" />
    <path d="m59.59 49.06-.85-.15 5.64-30.66.85.16z" fill="#e4daca" />
    <path d="m39.25 33.5h31.29v.86h-31.29z" fill="#e4daca"
        transform="matrix(.14970791 -.98873027 .98873027 .14970791 13.14 83.13)" />
    <path d="m46.46 50.02-.86-.1 3.63-31.64.85.1z" fill="#e4daca" />
    <path d="m25.16 34h32.05v.86h-32.05z" fill="#e4daca"
        transform="matrix(.0782851 -.99693101 .99693101 .0782851 3.64 72.8)" />
    <path d="m18.89 34.21h31.54v.86h-31.54z" fill="#e4daca"
        transform="matrix(.02303631 -.99973463 .99973463 .02303631 -.77 68.49)" />
    <path d="m28.01 18.45h.86v32.74h-.86z" fill="#e4daca"
        transform="matrix(.99979858 -.02006994 .02006994 .99979858 -.69 .58)" />
    <path d="m21.65 18.38h.86v33.25h-.86z" fill="#e4daca"
        transform="matrix(.9952614 -.09723549 .09723549 .9952614 -3.3 2.31)" />
    <path d="m14.55 22.73h65.11v.86h-65.11z" fill="#e4daca" />
    <path d="m15.14 27.27h63v.86h-63z" fill="#e4daca" />
    <path d="m15.72 31.81h60.9v.86h-60.9z" fill="#e4daca" />
    <path d="m16.31 36.35h58.79v.86h-58.79z" fill="#e4daca" />
    <path d="m16.89 40.89h56.69v.86h-56.69z" fill="#e4daca" />
    <path d="m17.48 45.43h54.9v.86h-54.9z" fill="#e4daca" />
    <path
        d="m13.17 17.25h67.91a.3.3 0 0 1 .3.3.3.3 0 0 1 -.3.31h-67.91a.31.31 0 0 1 -.3-.31.31.31 0 0 1 .3-.3z"
        fill="#fff" />
    <path
        d="m65.06 78.42a1.78 1.78 0 0 0 1.77-1.77v-3.35a1.77 1.77 0 0 0 -1.77-1.77 1.78 1.78 0 0 0 -1.78 1.77v3.35a1.78 1.78 0 0 0 1.78 1.77z"
        fill="#e4daca" />
    <path
        d="m23.11 78.42a1.78 1.78 0 0 0 1.78-1.77v-3.35a1.78 1.78 0 0 0 -1.78-1.77 1.77 1.77 0 0 0 -1.77 1.77v3.35a1.78 1.78 0 0 0 1.77 1.77z"
        fill="#e4daca" />
    <path d="m64.49 77.1a.56.56 0 1 0 .56-.56.56.56 0 0 0 -.56.56z" fill="#303030" />
    <path d="m22.55 77.1a.56.56 0 1 0 .56-.56.56.56 0 0 0 -.56.56z" fill="#303030" />
</svg>